<?xml version="1.0" encoding="UTF-8" standalone="no"?>
<!-- Created with Inkscape (http://www.inkscape.org/) -->

<svg
   xmlns:dc="http://purl.org/dc/elements/1.1/"
   xmlns:cc="http://creativecommons.org/ns#"
   xmlns:rdf="http://www.w3.org/1999/02/22-rdf-syntax-ns#"
   xmlns:svg="http://www.w3.org/2000/svg"
   xmlns="http://www.w3.org/2000/svg"
   xmlns:sodipodi="http://sodipodi.sourceforge.net/DTD/sodipodi-0.dtd"
   xmlns:inkscape="http://www.inkscape.org/namespaces/inkscape"
   id="svg2"
   version="1.1"
   inkscape:version="0.48.4 r9939"
   width="257.11557"
   height="179.63802"
   xml:space="preserve"
   sodipodi:docname="an,betz-fccm2014_parallel_place.pdf"><metadata
     id="metadata8"><rdf:RDF><cc:Work
         rdf:about=""><dc:format>image/svg+xml</dc:format><dc:type
           rdf:resource="http://purl.org/dc/dcmitype/StillImage" /><dc:title></dc:title></cc:Work></rdf:RDF></metadata><defs
     id="defs6"><clipPath
       clipPathUnits="userSpaceOnUse"
       id="clipPath20"><path
         d="M 0,0 609,0 609,198 0,198 0,0 z"
         id="path22"
         inkscape:connector-curvature="0" /></clipPath><clipPath
       clipPathUnits="userSpaceOnUse"
       id="clipPath996"><path
         d="M 0,0 609,0 609,198 0,198 0,0 z"
         id="path998"
         inkscape:connector-curvature="0" /></clipPath><clipPath
       clipPathUnits="userSpaceOnUse"
       id="clipPath2040"><path
         d="M 0,0 595,0 595,198 0,198 0,0 z"
         id="path2042"
         inkscape:connector-curvature="0" /></clipPath><clipPath
       clipPathUnits="userSpaceOnUse"
       id="clipPath2040-2"><path
         inkscape:connector-curvature="0"
         d="M 0,0 595,0 595,198 0,198 0,0 z"
         id="path2042-7" /></clipPath></defs><sodipodi:namedview
     pagecolor="#ffffff"
     bordercolor="#666666"
     borderopacity="1"
     objecttolerance="10"
     gridtolerance="10"
     guidetolerance="10"
     inkscape:pageopacity="0"
     inkscape:pageshadow="2"
     inkscape:window-width="1855"
     inkscape:window-height="1056"
     id="namedview4"
     showgrid="false"
     fit-margin-top="0"
     fit-margin-left="0"
     fit-margin-right="0"
     fit-margin-bottom="0"
     inkscape:zoom="1.9070707"
     inkscape:cx="159.08102"
     inkscape:cy="-36.348413"
     inkscape:window-x="65"
     inkscape:window-y="24"
     inkscape:window-maximized="1"
     inkscape:current-layer="g2038" /><g
     id="g10"
     inkscape:groupmode="layer"
     inkscape:label="an,betz-fccm2014_parallel_place"
     transform="matrix(1.25,0,0,-1.25,-5.14843,-409.4351)"><g
       id="g980"
       transform="translate(-94.03,-597.549)"><g
         id="g986"
         transform="translate(94.03,426.331)"><g
           id="g2024"
           transform="translate(-94.03,-426.331)"><g
             transform="matrix(0.72606,0,0,0.72606,98.169448,126.27008)"
             id="g2038"
             clip-path="url(#clipPath2040-2)"><path
               id="path2046"
               style="fill:white;fill-opacity:1;fill-rule:evenodd;stroke:none"
               d="M 141.621,0.028125 -0.0285156,0.028125 -0.0285156,197.96 283.271,197.96 283.271,0.028125 141.621,0.028125"
               inkscape:connector-curvature="0" /><g
               transform="scale(0.100088,0.0999117)"
               id="g2048"><path
                 id="path2050"
                 style="fill:none;stroke:none"
                 d="M 1498.75,500.716 307.108,500.716 307.108,1507.52 2690.39,1507.52 2690.39,500.716 1498.75,500.716 z"
                 inkscape:connector-curvature="0" /></g><g
               transform="scale(0.100088,0.0999117)"
               id="g2052"><path
                 id="path2054"
                 style="fill:none;stroke:none"
                 d="M 2690.39,500.997 307.108,500.997"
                 inkscape:connector-curvature="0" /></g><g
               transform="scale(0.100088,0.0999117)"
               id="g2056"><path
                 id="path2058"
                 style="fill:none;stroke:none"
                 d="M 2690.39,668.849 307.108,668.849"
                 inkscape:connector-curvature="0" /></g><g
               transform="scale(0.100088,0.0999117)"
               id="g2060"><path
                 id="path2062"
                 style="fill:none;stroke:none"
                 d="M 2690.39,836.696 307.108,836.696"
                 inkscape:connector-curvature="0" /></g><g
               transform="scale(0.100088,0.0999117)"
               id="g2064"><path
                 id="path2066"
                 style="fill:none;stroke:none"
                 d="M 2690.39,1004.26 307.108,1004.26"
                 inkscape:connector-curvature="0" /></g><g
               transform="scale(0.100088,0.0999117)"
               id="g2068"><path
                 id="path2070"
                 style="fill:none;stroke:none"
                 d="M 2690.39,1172.11 307.108,1172.11"
                 inkscape:connector-curvature="0" /></g><g
               transform="scale(0.100088,0.0999117)"
               id="g2072"><path
                 id="path2074"
                 style="fill:none;stroke:none"
                 d="M 2690.39,1339.96 307.108,1339.96"
                 inkscape:connector-curvature="0" /></g><g
               transform="scale(0.100088,0.0999117)"
               id="g2076"><path
                 id="path2078"
                 style="fill:none;stroke:none"
                 d="M 2690.39,1507.81 307.108,1507.81"
                 inkscape:connector-curvature="0" /></g><g
               transform="scale(0.100088,0.0999117)"
               id="g2080"><path
                 id="path2082"
                 style="fill:none;stroke:none"
                 d="M 307.108,458.542 307.108,500.997"
                 inkscape:connector-curvature="0" /></g><g
               transform="scale(0.100088,0.0999117)"
               id="g2084"><path
                 id="path2086"
                 style="fill:none;stroke:none"
                 d="M 307.108,458.542 307.108,500.997"
                 inkscape:connector-curvature="0" /></g><g
               transform="scale(0.100088,0.0999117)"
               id="g2088"><path
                 id="path2090"
                 style="fill:none;stroke:none"
                 d="M 647.619,458.542 647.619,500.997"
                 inkscape:connector-curvature="0" /></g><g
               transform="scale(0.100088,0.0999117)"
               id="g2092"><path
                 id="path2094"
                 style="fill:none;stroke:none"
                 d="M 647.619,458.542 647.619,500.997"
                 inkscape:connector-curvature="0" /></g><g
               transform="scale(0.100088,0.0999117)"
               id="g2096"><path
                 id="path2098"
                 style="fill:none;stroke:none"
                 d="M 988.127,458.542 988.127,500.997"
                 inkscape:connector-curvature="0" /></g><g
               transform="scale(0.100088,0.0999117)"
               id="g2100"><path
                 id="path2102"
                 style="fill:none;stroke:none"
                 d="M 988.127,458.542 988.127,500.997"
                 inkscape:connector-curvature="0" /></g><g
               transform="scale(0.100088,0.0999117)"
               id="g2104"><path
                 id="path2106"
                 style="fill:none;stroke:none"
                 d="M 1328.64,458.542 1328.64,500.997"
                 inkscape:connector-curvature="0" /></g><g
               transform="scale(0.100088,0.0999117)"
               id="g2108"><path
                 id="path2110"
                 style="fill:none;stroke:none"
                 d="M 1328.64,458.542 1328.64,500.997"
                 inkscape:connector-curvature="0" /></g><g
               transform="scale(0.100088,0.0999117)"
               id="g2112"><path
                 id="path2114"
                 style="fill:none;stroke:none"
                 d="M 1668.86,458.542 1668.86,500.997"
                 inkscape:connector-curvature="0" /></g><g
               transform="scale(0.100088,0.0999117)"
               id="g2116"><path
                 id="path2118"
                 style="fill:none;stroke:none"
                 d="M 1668.86,458.542 1668.86,500.997"
                 inkscape:connector-curvature="0" /></g><g
               transform="scale(0.100088,0.0999117)"
               id="g2120"><path
                 id="path2122"
                 style="fill:none;stroke:none"
                 d="M 2009.37,458.542 2009.37,500.997"
                 inkscape:connector-curvature="0" /></g><g
               transform="scale(0.100088,0.0999117)"
               id="g2124"><path
                 id="path2126"
                 style="fill:none;stroke:none"
                 d="M 2009.37,458.542 2009.37,500.997"
                 inkscape:connector-curvature="0" /></g><g
               transform="scale(0.100088,0.0999117)"
               id="g2128"><path
                 id="path2130"
                 style="fill:none;stroke:none"
                 d="M 2349.88,458.542 2349.88,500.997"
                 inkscape:connector-curvature="0" /></g><g
               transform="scale(0.100088,0.0999117)"
               id="g2132"><path
                 id="path2134"
                 style="fill:none;stroke:none"
                 d="M 2349.88,458.542 2349.88,500.997"
                 inkscape:connector-curvature="0" /></g><g
               transform="scale(0.100088,0.0999117)"
               id="g2136"><path
                 id="path2138"
                 style="fill:none;stroke:none"
                 d="M 2690.39,458.542 2690.39,500.997"
                 inkscape:connector-curvature="0" /></g><g
               transform="scale(0.100088,0.0999117)"
               id="g2140"><path
                 id="path2142"
                 style="fill:none;stroke:none"
                 d="M 2690.39,458.542 2690.39,500.997"
                 inkscape:connector-curvature="0" /></g><g
               transform="scale(0.100088,0.0999117)"
               id="g2144"><path
                 id="path2146"
                 style="fill:none;stroke:none"
                 d="M 307.108,500.997 2690.39,500.997"
                 inkscape:connector-curvature="0" /></g><g
               transform="scale(0.100088,0.0999117)"
               id="g2148"><path
                 id="path2150"
                 style="fill:none;stroke:none"
                 d="M 264.653,500.997 307.108,500.997"
                 inkscape:connector-curvature="0" /></g><g
               transform="scale(0.100088,0.0999117)"
               id="g2152"><path
                 id="path2154"
                 style="fill:none;stroke:none"
                 d="M 264.653,500.997 307.108,500.997"
                 inkscape:connector-curvature="0" /></g><g
               transform="scale(0.100088,0.0999117)"
               id="g2156"><path
                 id="path2158"
                 style="fill:none;stroke:none"
                 d="M 264.653,668.849 307.108,668.849"
                 inkscape:connector-curvature="0" /></g><g
               transform="scale(0.100088,0.0999117)"
               id="g2160"><path
                 id="path2162"
                 style="fill:none;stroke:none"
                 d="M 264.653,668.849 307.108,668.849"
                 inkscape:connector-curvature="0" /></g><g
               transform="scale(0.100088,0.0999117)"
               id="g2164"><path
                 id="path2166"
                 style="fill:none;stroke:none"
                 d="M 264.653,836.696 307.108,836.696"
                 inkscape:connector-curvature="0" /></g><g
               transform="scale(0.100088,0.0999117)"
               id="g2168"><path
                 id="path2170"
                 style="fill:none;stroke:none"
                 d="M 264.653,836.696 307.108,836.696"
                 inkscape:connector-curvature="0" /></g><g
               transform="scale(0.100088,0.0999117)"
               id="g2172"><path
                 id="path2174"
                 style="fill:none;stroke:none"
                 d="M 264.653,1004.26 307.108,1004.26"
                 inkscape:connector-curvature="0" /></g><g
               transform="scale(0.100088,0.0999117)"
               id="g2176"><path
                 id="path2178"
                 style="fill:none;stroke:none"
                 d="M 264.653,1004.26 307.108,1004.26"
                 inkscape:connector-curvature="0" /></g><g
               transform="scale(0.100088,0.0999117)"
               id="g2180"><path
                 id="path2182"
                 style="fill:none;stroke:none"
                 d="M 264.653,1172.11 307.108,1172.11"
                 inkscape:connector-curvature="0" /></g><g
               transform="scale(0.100088,0.0999117)"
               id="g2184"><path
                 id="path2186"
                 style="fill:none;stroke:none"
                 d="M 264.653,1172.11 307.108,1172.11"
                 inkscape:connector-curvature="0" /></g><g
               transform="scale(0.100088,0.0999117)"
               id="g2188"><path
                 id="path2190"
                 style="fill:none;stroke:none"
                 d="M 264.653,1339.96 307.108,1339.96"
                 inkscape:connector-curvature="0" /></g><g
               transform="scale(0.100088,0.0999117)"
               id="g2192"><path
                 id="path2194"
                 style="fill:none;stroke:none"
                 d="M 264.653,1339.96 307.108,1339.96"
                 inkscape:connector-curvature="0" /></g><g
               transform="scale(0.100088,0.0999117)"
               id="g2196"><path
                 id="path2198"
                 style="fill:none;stroke:none"
                 d="M 264.653,1507.81 307.108,1507.81"
                 inkscape:connector-curvature="0" /></g><g
               transform="scale(0.100088,0.0999117)"
               id="g2200"><path
                 id="path2202"
                 style="fill:none;stroke:none"
                 d="M 264.653,1507.81 307.108,1507.81"
                 inkscape:connector-curvature="0" /></g><g
               transform="scale(0.100088,0.0999117)"
               id="g2204"><path
                 id="path2206"
                 style="fill:none;stroke:none"
                 d="M 307.108,500.997 307.108,1507.81"
                 inkscape:connector-curvature="0" /></g><g
               transform="scale(0.100088,0.0999117)"
               id="g2208"><path
                 id="path2210"
                 style="fill:none;stroke:#014686;stroke-width:22.6439991;stroke-linecap:butt;stroke-linejoin:round;stroke-miterlimit:10;stroke-opacity:1;stroke-dasharray:none"
                 d="M 307.108,716.965 647.619,927.554 988.127,1113.24 1328.64,1273.44 1668.86,1393.17 2009.37,1459.69 2349.88,1488.28 2690.39,1497.05"
                 inkscape:connector-curvature="0" /></g><path
               id="path2212"
               style="fill:#014686;fill-opacity:1;fill-rule:evenodd;stroke:none"
               d="M 27.1969,68.0984 34.27932,68.0984 34.27932,75.16832 27.1969,75.16832 27.1969,68.0984 z"
               inkscape:connector-curvature="0" /><g
               transform="scale(0.100088,0.0999117)"
               id="g2214"><path
                 id="path2216"
                 style="fill:none;stroke:none"
                 d="M 271.729,752.348 271.729,681.586 342.49,681.586 342.49,752.348 271.729,752.348 z"
                 inkscape:connector-curvature="0" /></g><path
               id="path2218"
               style="fill:#014686;fill-opacity:1;fill-rule:evenodd;stroke:none"
               d="M 61.2777,89.1387 68.36012,89.1387 68.36012,96.20862 61.2777,96.20862 61.2777,89.1387 z"
               inkscape:connector-curvature="0" /><g
               transform="scale(0.100088,0.0999117)"
               id="g2220"><path
                 id="path2222"
                 style="fill:none;stroke:none"
                 d="M 612.237,962.936 612.237,892.175 682.998,892.175 682.998,962.936 612.237,962.936 z"
                 inkscape:connector-curvature="0" /></g><path
               id="path2224"
               style="fill:#014686;fill-opacity:1;fill-rule:evenodd;stroke:none"
               d="M 95.3586,107.69 102.44141,107.69 102.44141,114.75992 95.3586,114.75992 95.3586,107.69 z"
               inkscape:connector-curvature="0" /><g
               transform="scale(0.100088,0.0999117)"
               id="g2226"><path
                 id="path2228"
                 style="fill:none;stroke:none"
                 d="M 952.744,1148.62 952.744,1077.85 1023.51,1077.85 1023.51,1148.62 952.744,1148.62 z"
                 inkscape:connector-curvature="0" /></g><path
               id="path2230"
               style="fill:#014686;fill-opacity:1;fill-rule:evenodd;stroke:none"
               d="M 129.44,123.697 136.52242,123.697 136.52242,130.76692 129.44,130.76692 129.44,123.697 z"
               inkscape:connector-curvature="0" /><g
               transform="scale(0.100088,0.0999117)"
               id="g2232"><path
                 id="path2234"
                 style="fill:none;stroke:none"
                 d="M 1293.26,1308.82 1293.26,1238.06 1364.02,1238.06 1364.02,1308.82 1293.26,1308.82 z"
                 inkscape:connector-curvature="0" /></g><path
               id="path2236"
               style="fill:#014686;fill-opacity:1;fill-rule:evenodd;stroke:none"
               d="M 163.493,135.659 170.57542,135.659 170.57542,142.72931 163.493,142.72931 163.493,135.659 z"
               inkscape:connector-curvature="0" /><g
               transform="scale(0.100088,0.0999117)"
               id="g2238"><path
                 id="path2240"
                 style="fill:none;stroke:none"
                 d="M 1633.48,1428.55 1633.48,1357.79 1704.24,1357.79 1704.24,1428.55 1633.48,1428.55 z"
                 inkscape:connector-curvature="0" /></g><path
               id="path2242"
               style="fill:#014686;fill-opacity:1;fill-rule:evenodd;stroke:none"
               d="M 197.573,142.305 204.65542,142.305 204.65542,149.37492 197.573,149.37492 197.573,142.305 z"
               inkscape:connector-curvature="0" /><g
               transform="scale(0.100088,0.0999117)"
               id="g2244"><path
                 id="path2246"
                 style="fill:none;stroke:none"
                 d="M 1973.99,1495.07 1973.99,1424.31 2044.75,1424.31 2044.75,1495.07 1973.99,1495.07 z"
                 inkscape:connector-curvature="0" /></g><path
               id="path2248"
               style="fill:#014686;fill-opacity:1;fill-rule:evenodd;stroke:none"
               d="M 231.654,145.161 238.73681,145.161 238.73681,152.23092 231.654,152.23092 231.654,145.161 z"
               inkscape:connector-curvature="0" /><g
               transform="scale(0.100088,0.0999117)"
               id="g2250"><path
                 id="path2252"
                 style="fill:none;stroke:none"
                 d="M 2314.5,1523.66 2314.5,1452.9 2385.26,1452.9 2385.26,1523.66 2314.5,1523.66 z"
                 inkscape:connector-curvature="0" /></g><path
               id="path2254"
               style="fill:#014686;fill-opacity:1;fill-rule:evenodd;stroke:none"
               d="M 265.736,146.038 272.81842,146.038 272.81842,153.10792 265.736,153.10792 265.736,146.038 z"
               inkscape:connector-curvature="0" /><g
               transform="scale(0.100088,0.0999117)"
               id="g2256"><path
                 id="path2258"
                 style="fill:none;stroke:none"
                 d="M 2655.01,1532.43 2655.01,1461.67 2725.77,1461.67 2725.77,1532.43 2655.01,1532.43 z"
                 inkscape:connector-curvature="0" /></g><path
               id="path2260"
               style="fill:#010101;fill-opacity:1;fill-rule:evenodd;stroke:none"
               d="M 28.8965,33.9926 28.8965,34.7277 30.6531,34.7277 30.6531,40.0164 29.0949,38.9133 29.0949,39.7617 30.7098,40.8645 31.5312,40.8645 31.5312,34.7277 33.2027,34.7277 33.2027,33.9926 28.8965,33.9926"
               inkscape:connector-curvature="0" /><path
               id="path2262"
               style="fill:#010101;fill-opacity:1;fill-rule:evenodd;stroke:none"
               d="M 62.7227,33.9926 62.7227,34.6148 C 62.8926,34.9824 63.091,35.3219 63.3176,35.6328 63.5727,35.9156 63.8273,36.1703 64.0824,36.3965 64.3375,36.6508 64.5926,36.8488 64.8758,37.075 65.1309,37.273 65.3574,37.4711 65.5555,37.6691 65.7824,37.8668 65.9523,38.0934 66.0656,38.291 66.207,38.5172 66.2641,38.7719 66.2641,39.0547 66.2641,39.2527 66.2355,39.4223 66.1789,39.5637 66.1223,39.7051 66.0371,39.8465 65.9238,39.9312 65.8105,40.0445 65.6691,40.1293 65.5273,40.1578 65.3574,40.2141 65.1875,40.2426 65.0172,40.2426 64.8191,40.2426 64.6773,40.2141 64.5074,40.1578 64.3656,40.1293 64.2242,40.0445 64.1109,39.9598 63.9691,39.8465 63.884,39.7336 63.7992,39.5922 63.7141,39.4508 63.6859,39.2809 63.6574,39.0828 L 62.7508,39.168 C 62.7793,39.4223 62.8645,39.6484 62.9492,39.875 63.0625,40.0727 63.2043,40.2707 63.4027,40.4402 63.6008,40.6102 63.8273,40.723 64.0824,40.8363 64.3375,40.9211 64.6492,40.9777 65.0172,40.9777 65.3574,40.9777 65.6406,40.9211 65.9238,40.8363 66.1789,40.7516 66.4055,40.6383 66.6039,40.4688 66.7738,40.3273 66.9156,40.1293 67.0289,39.9031 67.1137,39.6484 67.1703,39.3941 67.1703,39.0828 67.1703,38.8566 67.1137,38.6305 67.0289,38.4324 66.9438,38.2062 66.859,38.0082 66.7172,37.8387 66.5754,37.6406 66.4055,37.4711 66.2355,37.273 66.0371,37.1035 65.8672,36.9336 65.6691,36.7641 65.4707,36.5945 65.2441,36.4246 65.0457,36.2832 64.8473,36.1137 64.6773,35.9438 64.4789,35.7742 64.309,35.6047 64.1391,35.4348 63.9977,35.2652 63.8559,35.0953 63.7707,34.9258 63.6859,34.7277 L 67.2836,34.7277 67.2836,33.9926 62.7227,33.9926"
               inkscape:connector-curvature="0" /><path
               id="path2264"
               style="fill:#010101;fill-opacity:1;fill-rule:evenodd;stroke:none"
               d="M 101.421,35.9156 C 101.421,35.6047 101.365,35.3219 101.252,35.0672 101.166,34.8129 100.996,34.6148 100.827,34.4449 100.628,34.2754 100.373,34.134 100.09,34.0492 99.7781,33.9645 99.4668,33.9078 99.0699,33.9078 98.6449,33.9078 98.3051,33.9645 97.9934,34.0773 97.7102,34.1621 97.4836,34.3035 97.2852,34.4734 97.0867,34.6715 96.9453,34.8691 96.8602,35.0953 96.7754,35.2934 96.6902,35.548 96.6621,35.7742 L 97.5969,35.859 C 97.5969,35.6895 97.6535,35.5195 97.7387,35.35 97.7953,35.2086 97.8801,35.0672 98.0219,34.9824 98.1352,34.8691 98.277,34.7844 98.4469,34.7277 98.6449,34.6715 98.8434,34.643 99.0699,34.643 99.5234,34.643 99.8633,34.7562 100.118,34.9539 100.373,35.1805 100.515,35.5195 100.515,35.9438 100.515,36.1984 100.458,36.3965 100.345,36.5379 100.232,36.7074 100.09,36.8207 99.9199,36.9055 99.75,36.9902 99.5516,37.0469 99.3816,37.075 99.1832,37.1035 98.9852,37.1316 98.8152,37.1316 L 98.3336,37.1316 98.3336,37.8953 98.8152,37.8953 C 98.9566,37.8953 99.1551,37.9234 99.325,37.952 99.4949,37.9801 99.6648,38.0367 99.8066,38.1215 99.948,38.2062 100.09,38.3477 100.175,38.4891 100.288,38.6305 100.316,38.8285 100.316,39.0828 100.316,39.4508 100.203,39.7336 100.005,39.9312 99.7781,40.1578 99.4668,40.2426 99.0418,40.2426 98.6449,40.2426 98.3336,40.1578 98.1066,39.9598 97.852,39.7617 97.7102,39.4789 97.682,39.1395 L 96.8035,39.1961 C 96.832,39.507 96.9168,39.7617 97.0301,39.9879 97.1719,40.2141 97.3418,40.384 97.5402,40.5254 97.7387,40.6949 97.9652,40.8082 98.2199,40.8645 98.475,40.9496 98.7582,40.9777 99.0418,40.9777 99.4383,40.9777 99.75,40.9211 100.033,40.8363 100.316,40.7516 100.543,40.6102 100.713,40.4402 100.883,40.2707 101.025,40.1012 101.11,39.875 101.195,39.6484 101.223,39.4223 101.223,39.168 101.223,38.9699 101.195,38.7719 101.138,38.6023 101.081,38.4324 100.996,38.2629 100.883,38.1215 100.77,37.9801 100.628,37.8668 100.43,37.782 100.26,37.6691 100.033,37.584 99.7781,37.5277 L 99.7781,37.5277 C 100.062,37.4992 100.316,37.4426 100.515,37.3297 100.713,37.2449 100.883,37.1316 101.025,36.9621 101.138,36.8207 101.252,36.6793 101.308,36.4812 101.393,36.3117 101.421,36.1137 101.421,35.9156"
               inkscape:connector-curvature="0" /><path
               id="path2266"
               style="fill:#010101;fill-opacity:1;fill-rule:evenodd;stroke:none"
               d="M 134.681,35.548 134.681,33.9926 133.859,33.9926 133.859,35.548 130.601,35.548 130.601,36.2266 133.746,40.8645 134.681,40.8645 134.681,36.2266 135.644,36.2266 135.644,35.548 134.681,35.548 z M 133.859,39.875 C 133.831,39.8465 133.831,39.8184 133.803,39.7898 133.774,39.7336 133.746,39.677 133.718,39.6203 133.689,39.5637 133.632,39.507 133.604,39.4508 133.576,39.3941 133.548,39.3375 133.519,39.2809 L 131.763,36.7074 C 131.734,36.6793 131.706,36.6508 131.678,36.5945 131.65,36.566 131.621,36.5094 131.593,36.4812 131.564,36.4246 131.536,36.368 131.48,36.3398 131.451,36.2832 131.423,36.2551 131.423,36.2266 L 133.859,36.2266 133.859,39.875"
               inkscape:connector-curvature="0" /><path
               id="path2268"
               style="fill:#010101;fill-opacity:1;fill-rule:evenodd;stroke:none"
               d="M 169.612,36.2551 C 169.612,35.8875 169.555,35.5762 169.442,35.2934 169.329,35.0105 169.187,34.7562 168.988,34.5582 168.762,34.3602 168.507,34.1906 168.223,34.0773 167.912,33.9645 167.544,33.9078 167.147,33.9078 166.807,33.9078 166.467,33.9645 166.212,34.0207 165.929,34.1059 165.702,34.2473 165.532,34.3887 165.334,34.5301 165.192,34.6996 165.079,34.8977 164.966,35.0953 164.909,35.3219 164.852,35.548 L 165.759,35.6328 C 165.787,35.5195 165.844,35.3781 165.9,35.2652 165.957,35.152 166.042,35.0391 166.155,34.9258 166.269,34.841 166.411,34.7562 166.58,34.6996 166.75,34.643 166.949,34.6148 167.175,34.6148 167.402,34.6148 167.6,34.6715 167.798,34.7277 167.969,34.8129 168.139,34.8977 168.28,35.0391 168.393,35.1805 168.507,35.35 168.564,35.548 168.648,35.7461 168.677,35.9723 168.677,36.2266 168.677,36.4246 168.648,36.6227 168.592,36.7922 168.507,36.9902 168.422,37.1316 168.28,37.273 168.167,37.3863 167.997,37.4992 167.827,37.5559 167.629,37.6406 167.43,37.6691 167.204,37.6691 167.062,37.6691 166.92,37.6691 166.779,37.6406 166.665,37.6125 166.552,37.5559 166.439,37.5277 166.354,37.4711 166.241,37.4145 166.155,37.3578 166.07,37.3012 165.986,37.2449 165.929,37.1883 L 165.051,37.1883 165.277,40.8645 169.187,40.8645 169.187,40.1293 166.099,40.1293 165.957,37.952 C 166.099,38.0648 166.297,38.1781 166.552,38.2629 166.779,38.3477 167.062,38.3762 167.374,38.3762 167.714,38.3762 168.025,38.3477 168.309,38.2348 168.564,38.1215 168.818,37.9801 168.988,37.782 169.187,37.6125 169.329,37.3863 169.442,37.1035 169.555,36.8488 169.612,36.566 169.612,36.2551"
               inkscape:connector-curvature="0" /><path
               id="path2270"
               style="fill:#010101;fill-opacity:1;fill-rule:evenodd;stroke:none"
               d="M 203.664,36.2551 C 203.664,35.9156 203.608,35.6047 203.523,35.3219 203.409,35.0105 203.268,34.7844 203.098,34.5582 202.9,34.3602 202.673,34.1906 202.389,34.0773 202.106,33.9645 201.795,33.9078 201.426,33.9078 201.03,33.9078 200.69,33.9926 200.378,34.134 200.095,34.3035 199.84,34.5016 199.641,34.7844 199.443,35.0953 199.302,35.4348 199.188,35.859 199.103,36.2832 199.046,36.7355 199.046,37.273 199.046,37.8953 199.103,38.4324 199.216,38.8852 199.33,39.3656 199.5,39.7336 199.698,40.0445 199.896,40.3555 200.18,40.5816 200.463,40.7516 200.775,40.893 201.115,40.9777 201.511,40.9777 201.738,40.9777 201.964,40.9496 202.163,40.893 202.361,40.8645 202.559,40.7797 202.729,40.6668 202.9,40.5535 203.041,40.4121 203.154,40.2426 203.296,40.0727 203.381,39.8465 203.466,39.5922 L 202.616,39.4223 C 202.531,39.7336 202.389,39.9312 202.191,40.0727 201.993,40.2141 201.766,40.2707 201.483,40.2707 201.256,40.2707 201.03,40.2141 200.831,40.1012 200.633,39.9879 200.491,39.8184 200.35,39.5922 200.208,39.3656 200.095,39.0828 200.038,38.7438 199.953,38.4043 199.925,38.0082 199.925,37.5559 200.066,37.8387 200.293,38.0648 200.605,38.2348 200.888,38.3762 201.228,38.4609 201.596,38.4609 201.908,38.4609 202.191,38.4043 202.446,38.3195 202.701,38.2062 202.9,38.0648 203.098,37.8668 203.268,37.6691 203.409,37.4426 203.523,37.1883 203.608,36.9055 203.664,36.5945 203.664,36.2551 z M 202.758,36.2266 C 202.758,36.4531 202.729,36.6793 202.673,36.877 202.616,37.0469 202.531,37.2164 202.418,37.3578 202.305,37.4992 202.163,37.6125 201.993,37.6691 201.795,37.7539 201.596,37.782 201.37,37.782 201.228,37.782 201.058,37.7539 200.888,37.6973 200.746,37.6691 200.577,37.584 200.463,37.4711 200.321,37.3863 200.208,37.2449 200.123,37.075 200.038,36.877 200.01,36.6793 200.01,36.4246 200.01,36.1703 200.038,35.9438 200.095,35.7176 200.18,35.4914 200.265,35.2934 200.378,35.152 200.52,34.9824 200.661,34.841 200.831,34.7562 201.001,34.6715 201.2,34.6148 201.398,34.6148 201.625,34.6148 201.823,34.643 201.964,34.7277 202.134,34.8129 202.276,34.8977 202.418,35.0391 202.531,35.1805 202.616,35.35 202.673,35.548 202.729,35.7461 202.758,35.9723 202.758,36.2266"
               inkscape:connector-curvature="0" /><path
               id="path2272"
               style="fill:#010101;fill-opacity:1;fill-rule:evenodd;stroke:none"
               d="M 237.689,40.1578 C 237.32,39.6484 237.009,39.1395 236.725,38.6586 236.442,38.1496 236.187,37.6691 235.989,37.1883 235.762,36.6793 235.621,36.1703 235.479,35.6609 235.366,35.152 235.309,34.5863 235.309,34.0207 L 234.402,34.0207 C 234.402,34.5582 234.459,35.0953 234.601,35.6328 234.714,36.1418 234.912,36.6793 235.111,37.1883 235.338,37.6973 235.592,38.1781 235.904,38.6871 236.187,39.168 236.499,39.6484 236.839,40.1293 L 233.128,40.1293 233.128,40.8645 237.689,40.8645 237.689,40.1578"
               inkscape:connector-curvature="0" /><path
               id="path2274"
               style="fill:#010101;fill-opacity:1;fill-rule:evenodd;stroke:none"
               d="M 271.798,35.9156 C 271.798,35.6328 271.741,35.35 271.656,35.1238 271.571,34.8691 271.43,34.6715 271.231,34.4734 271.033,34.3035 270.807,34.1621 270.495,34.0492 270.212,33.9645 269.871,33.9078 269.446,33.9078 269.05,33.9078 268.71,33.9645 268.398,34.0492 268.115,34.1621 267.86,34.3035 267.662,34.4734 267.492,34.643 267.35,34.8691 267.237,35.1238 267.152,35.35 267.095,35.6328 267.095,35.9156 267.095,36.1703 267.152,36.3965 267.209,36.5945 267.294,36.7641 267.407,36.9336 267.52,37.075 267.662,37.2164 267.804,37.3297 267.973,37.4145 268.143,37.5277 268.313,37.584 268.484,37.6125 L 268.484,37.6125 C 268.285,37.6691 268.115,37.7254 267.973,37.8387 267.804,37.952 267.69,38.0648 267.577,38.2062 267.492,38.3477 267.407,38.4891 267.35,38.6871 267.294,38.8566 267.265,39.0266 267.265,39.2242 267.265,39.4508 267.322,39.677 267.407,39.9031 267.492,40.1012 267.634,40.2988 267.832,40.4688 268.002,40.6102 268.229,40.7516 268.484,40.8363 268.767,40.9211 269.079,40.9777 269.446,40.9777 269.815,40.9777 270.127,40.9211 270.41,40.8363 270.693,40.7516 270.92,40.6102 271.09,40.4402 271.26,40.2988 271.402,40.1012 271.486,39.9031 271.571,39.677 271.628,39.4508 271.628,39.1961 271.628,39.0266 271.6,38.8285 271.543,38.6586 271.486,38.4891 271.402,38.3477 271.316,38.2062 271.203,38.0648 271.09,37.9234 270.92,37.8387 270.778,37.7254 270.608,37.6691 270.41,37.6406 L 270.41,37.6125 C 270.608,37.584 270.778,37.5277 270.948,37.4426 271.118,37.3578 271.26,37.2449 271.402,37.1035 271.515,36.9621 271.628,36.7922 271.685,36.5945 271.77,36.3965 271.798,36.1703 271.798,35.9156 z M 270.721,39.168 C 270.721,39.3375 270.693,39.4789 270.636,39.6203 270.608,39.7617 270.523,39.9031 270.438,39.9879 270.325,40.1012 270.212,40.1859 270.041,40.2426 269.871,40.2988 269.673,40.3273 269.446,40.3273 269.192,40.3273 269.022,40.2988 268.852,40.2426 268.682,40.1859 268.568,40.1012 268.455,39.9879 268.342,39.9031 268.285,39.7617 268.229,39.6203 268.2,39.4789 268.172,39.3375 268.172,39.168 268.172,39.0266 268.172,38.8852 268.229,38.7438 268.257,38.6023 268.313,38.4609 268.427,38.3477 268.512,38.2348 268.625,38.1496 268.795,38.0648 268.965,37.9801 269.192,37.952 269.446,37.952 269.73,37.952 269.957,37.9801 270.098,38.0648 270.268,38.1496 270.41,38.2348 270.495,38.3477 270.58,38.4609 270.636,38.6023 270.665,38.7438 270.693,38.8852 270.721,39.0266 270.721,39.168 z M 270.891,36.0004 C 270.891,36.1703 270.863,36.3398 270.807,36.4812 270.778,36.6508 270.693,36.7641 270.58,36.9055 270.466,37.0184 270.325,37.1035 270.127,37.1883 269.957,37.2449 269.702,37.3012 269.446,37.3012 269.163,37.3012 268.965,37.2449 268.767,37.1883 268.597,37.1035 268.455,37.0184 268.342,36.9055 268.229,36.7641 268.143,36.6227 268.087,36.4812 268.03,36.3117 268.002,36.1418 268.002,35.9723 268.002,35.7742 268.03,35.5762 268.087,35.4066 268.143,35.2367 268.229,35.0953 268.342,34.9539 268.455,34.841 268.597,34.7277 268.795,34.6715 268.965,34.5863 269.192,34.5582 269.475,34.5582 269.73,34.5582 269.957,34.5863 270.127,34.6715 270.325,34.7277 270.466,34.841 270.58,34.9539 270.693,35.0953 270.778,35.2367 270.807,35.4066 270.863,35.5762 270.891,35.7742 270.891,36.0004"
               inkscape:connector-curvature="0" /><path
               id="path2276"
               style="fill:#010101;fill-opacity:1;fill-rule:evenodd;stroke:none"
               d="M 23.6273,50.084 C 23.6273,49.4336 23.5422,48.868 23.4289,48.4152 23.2871,47.9629 23.1172,47.5953 22.9191,47.3406 22.6922,47.0578 22.4375,46.8602 22.1539,46.7188 21.8426,46.6055 21.5309,46.5488 21.2191,46.5488 20.8793,46.5488 20.5676,46.6055 20.2844,46.7188 19.9727,46.8602 19.7461,47.0578 19.5195,47.3125 19.2926,47.5953 19.1512,47.9629 19.0094,48.4152 18.8961,48.868 18.8395,49.4336 18.8395,50.084 18.8395,50.7625 18.8961,51.3566 19.0094,51.809 19.1512,52.2613 19.3211,52.6289 19.5195,52.8836 19.7461,53.1664 20.0012,53.3359 20.2844,53.4492 20.5676,53.5625 20.9074,53.6188 21.2477,53.6188 21.559,53.6188 21.8707,53.5625 22.1539,53.4492 22.4656,53.3359 22.6922,53.1664 22.9191,52.8836 23.1457,52.6289 23.3156,52.2613 23.4289,51.809 23.5422,51.3566 23.6273,50.7625 23.6273,50.084 z M 22.7207,50.084 C 22.7207,50.6211 22.6922,51.0738 22.6355,51.4414 22.5508,51.809 22.4656,52.0918 22.3242,52.318 22.2105,52.5441 22.0406,52.6855 21.8707,52.7703 21.6723,52.8555 21.4742,52.9117 21.2477,52.9117 20.9926,52.9117 20.766,52.8555 20.5961,52.7703 20.3977,52.6855 20.2277,52.516 20.1145,52.318 19.9727,52.0918 19.8875,51.809 19.8309,51.4414 19.7461,51.0738 19.7176,50.6211 19.7176,50.084 19.7176,49.5465 19.7461,49.1223 19.8309,48.7547 19.8875,48.3871 19.9727,48.1043 20.1145,47.8781 20.2559,47.652 20.3977,47.5105 20.5961,47.3973 20.766,47.3125 20.9926,47.2559 21.2191,47.2559 21.4457,47.2559 21.6723,47.3125 21.8426,47.3973 22.0406,47.5105 22.1824,47.652 22.3242,47.8781 22.4375,48.1043 22.5508,48.3871 22.6074,48.7547 22.6922,49.1223 22.7207,49.5465 22.7207,50.084"
               inkscape:connector-curvature="0" /><path
               id="path2278"
               style="fill:#010101;fill-opacity:1;fill-rule:evenodd;stroke:none"
               d="M 19.2078,63.4039 19.2078,64.1391 20.9641,64.1391 20.9641,69.4273 19.4059,68.3246 19.4059,69.173 21.0207,70.2758 21.8426,70.2758 21.8426,64.1391 23.5141,64.1391 23.5141,63.4039 19.2078,63.4039"
               inkscape:connector-curvature="0" /><path
               id="path2280"
               style="fill:#010101;fill-opacity:1;fill-rule:evenodd;stroke:none"
               d="M 18.9527,80.1738 18.9527,80.7961 C 19.1227,81.1637 19.3211,81.5031 19.5477,81.8141 19.8027,82.0969 20.0578,82.3512 20.3125,82.5777 20.5676,82.832 20.8227,83.0301 21.1059,83.2562 21.3609,83.4543 21.5875,83.6523 21.7859,83.85 22.0125,84.048 22.1824,84.2742 22.2957,84.4723 22.4375,84.6984 22.4941,84.9531 22.4941,85.2359 22.4941,85.434 22.4656,85.6035 22.409,85.7449 22.3523,85.8863 22.2676,86.0277 22.1539,86.1125 22.0406,86.2258 21.8992,86.3105 21.7574,86.3387 21.5875,86.3953 21.4176,86.4238 21.2477,86.4238 21.0492,86.4238 20.9074,86.3953 20.7375,86.3387 20.5961,86.3105 20.4543,86.2258 20.341,86.141 20.1992,86.0277 20.1145,85.9145 20.0293,85.773 19.9441,85.6316 19.916,85.4621 19.8875,85.2641 L 18.9812,85.3488 C 19.0094,85.6035 19.0945,85.8297 19.1793,86.0559 19.2926,86.2539 19.4344,86.452 19.6328,86.6215 19.8309,86.7914 20.0578,86.9043 20.3125,87.0176 20.5676,87.1023 20.8793,87.159 21.2477,87.159 21.5875,87.159 21.8707,87.1023 22.1539,87.0176 22.409,86.9328 22.6355,86.8195 22.834,86.65 23.0039,86.5086 23.1457,86.3105 23.259,86.0844 23.3438,85.8297 23.4004,85.5754 23.4004,85.2641 23.4004,85.0379 23.3438,84.8117 23.259,84.6137 23.1738,84.3875 23.0891,84.1895 22.9473,84.0199 22.8055,83.8219 22.6355,83.6523 22.4656,83.4543 22.2676,83.2848 22.0973,83.1148 21.8992,82.9453 21.7008,82.7754 21.4742,82.6059 21.2758,82.4645 21.0773,82.2949 20.9074,82.125 20.7094,81.9555 20.5391,81.7855 20.3691,81.616 20.2277,81.4465 20.0859,81.2766 20.0012,81.107 19.916,80.909 L 23.5141,80.909 23.5141,80.1738 18.9527,80.1738"
               inkscape:connector-curvature="0" /><path
               id="path2282"
               style="fill:#010101;fill-opacity:1;fill-rule:evenodd;stroke:none"
               d="M 23.5707,98.8668 C 23.5707,98.5559 23.5141,98.273 23.4004,98.0184 23.3156,97.7641 23.1457,97.566 22.9758,97.3965 22.7773,97.2266 22.5223,97.0852 22.2391,97.0004 21.9273,96.9156 21.6156,96.859 21.2191,96.859 20.7941,96.859 20.4543,96.9156 20.1426,97.0285 19.8594,97.1137 19.6328,97.2551 19.4344,97.4246 19.2359,97.6227 19.0945,97.8207 19.0094,98.0469 18.9246,98.2449 18.8395,98.4992 18.8109,98.7254 L 19.7461,98.8102 C 19.7461,98.6406 19.8027,98.4711 19.8875,98.3012 19.9441,98.1598 20.0293,98.0184 20.1711,97.9336 20.2844,97.8207 20.4258,97.7355 20.5961,97.6793 20.7941,97.6227 20.9926,97.5941 21.2191,97.5941 21.6723,97.5941 22.0125,97.7074 22.2676,97.9055 22.5223,98.1316 22.6641,98.4711 22.6641,98.8953 22.6641,99.1496 22.6074,99.3477 22.4941,99.4891 22.3809,99.6586 22.2391,99.7719 22.0691,99.8566 21.8992,99.9414 21.7008,99.998 21.5309,100.027 21.3324,100.055 21.1344,100.083 20.9641,100.083 L 20.4824,100.083 20.4824,100.846 20.9641,100.846 C 21.1059,100.846 21.3043,100.875 21.4742,100.903 21.6441,100.931 21.8141,100.988 21.9559,101.073 22.0973,101.157 22.2391,101.299 22.3242,101.44 22.4375,101.582 22.4656,101.78 22.4656,102.034 22.4656,102.402 22.3523,102.685 22.1539,102.883 21.9273,103.109 21.6156,103.194 21.191,103.194 20.7941,103.194 20.4824,103.109 20.2559,102.911 20.0012,102.713 19.8594,102.43 19.8309,102.091 L 18.9527,102.147 C 18.9812,102.459 19.066,102.713 19.1793,102.939 19.3211,103.166 19.491,103.335 19.6895,103.477 19.8875,103.646 20.1145,103.759 20.3691,103.816 20.6242,103.901 20.9074,103.929 21.191,103.929 21.5875,103.929 21.8992,103.872 22.1824,103.788 22.4656,103.703 22.6922,103.561 22.8625,103.392 23.0324,103.222 23.1738,103.052 23.259,102.826 23.3438,102.6 23.3723,102.373 23.3723,102.119 23.3723,101.921 23.3438,101.723 23.2871,101.554 23.2305,101.384 23.1457,101.214 23.0324,101.073 22.9191,100.931 22.7773,100.818 22.5789,100.733 22.409,100.62 22.1824,100.536 21.9273,100.479 L 21.9273,100.479 C 22.2105,100.45 22.4656,100.394 22.6641,100.281 22.8625,100.196 23.0324,100.083 23.1738,99.9133 23.2871,99.7719 23.4004,99.6305 23.4574,99.4324 23.5422,99.2629 23.5707,99.0648 23.5707,98.8668"
               inkscape:connector-curvature="0" /><path
               id="path2284"
               style="fill:#010101;fill-opacity:1;fill-rule:evenodd;stroke:none"
               d="M 22.7488,115.241 22.7488,113.686 21.9273,113.686 21.9273,115.241 18.6695,115.241 18.6695,115.92 21.8141,120.558 22.7488,120.558 22.7488,115.92 23.7121,115.92 23.7121,115.241 22.7488,115.241 z M 21.9273,119.568 C 21.8992,119.539 21.8992,119.511 21.8707,119.483 21.8426,119.427 21.8141,119.37 21.7859,119.313 21.7574,119.257 21.7008,119.2 21.6723,119.144 21.6441,119.087 21.6156,119.03 21.5875,118.974 L 19.8309,116.4 C 19.8027,116.372 19.7742,116.344 19.7461,116.288 19.7176,116.259 19.6895,116.202 19.6609,116.174 19.6328,116.118 19.6043,116.061 19.5477,116.033 19.5195,115.976 19.491,115.948 19.491,115.92 L 21.9273,115.92 21.9273,119.568"
               inkscape:connector-curvature="0" /><path
               id="path2286"
               style="fill:#010101;fill-opacity:1;fill-rule:evenodd;stroke:none"
               d="M 23.5988,132.718 C 23.5988,132.35 23.5422,132.039 23.4289,131.757 23.3156,131.474 23.1738,131.219 22.9758,131.021 22.7488,130.823 22.4941,130.654 22.2105,130.541 21.8992,130.427 21.5309,130.371 21.1344,130.371 20.7941,130.371 20.4543,130.427 20.1992,130.484 19.916,130.569 19.6895,130.71 19.5195,130.852 19.3211,130.993 19.1793,131.162 19.066,131.361 18.9527,131.559 18.8961,131.785 18.8395,132.011 L 19.7461,132.096 C 19.7742,131.983 19.8309,131.841 19.8875,131.728 19.9441,131.615 20.0293,131.502 20.1426,131.389 20.2559,131.304 20.3977,131.219 20.5676,131.162 20.7375,131.106 20.9359,131.078 21.1625,131.078 21.3891,131.078 21.5875,131.134 21.7859,131.191 21.9559,131.276 22.1258,131.361 22.2676,131.502 22.3809,131.643 22.4941,131.813 22.5508,132.011 22.6355,132.209 22.6641,132.435 22.6641,132.69 22.6641,132.888 22.6355,133.086 22.5789,133.255 22.4941,133.453 22.409,133.595 22.2676,133.736 22.1539,133.849 21.984,133.962 21.8141,134.019 21.6156,134.104 21.4176,134.132 21.191,134.132 21.0492,134.132 20.9074,134.132 20.766,134.104 20.6527,134.075 20.5391,134.019 20.4258,133.991 20.341,133.934 20.2277,133.877 20.1426,133.821 20.0578,133.764 19.9727,133.708 19.916,133.651 L 19.0379,133.651 19.2645,137.328 23.1738,137.328 23.1738,136.592 20.0859,136.592 19.9441,134.415 C 20.0859,134.528 20.2844,134.641 20.5391,134.726 20.766,134.811 21.0492,134.839 21.3609,134.839 21.7008,134.839 22.0125,134.811 22.2957,134.698 22.5508,134.584 22.8055,134.443 22.9758,134.245 23.1738,134.075 23.3156,133.849 23.4289,133.566 23.5422,133.312 23.5988,133.029 23.5988,132.718"
               inkscape:connector-curvature="0" /><path
               id="path2288"
               style="fill:#010101;fill-opacity:1;fill-rule:evenodd;stroke:none"
               d="M 23.5707,149.488 C 23.5707,149.149 23.5141,148.838 23.4289,148.555 23.3156,148.244 23.1738,148.018 23.0039,147.791 22.8055,147.593 22.5789,147.424 22.2957,147.311 22.0125,147.197 21.7008,147.141 21.3324,147.141 20.9359,147.141 20.5961,147.226 20.2844,147.367 20.0012,147.537 19.7461,147.735 19.5477,148.018 19.3492,148.329 19.2078,148.668 19.0945,149.092 19.0094,149.516 18.9527,149.969 18.9527,150.506 18.9527,151.129 19.0094,151.666 19.1227,152.118 19.2359,152.599 19.4059,152.966 19.6043,153.278 19.8027,153.589 20.0859,153.815 20.3691,153.985 20.6809,154.126 21.0207,154.211 21.4176,154.211 21.6441,154.211 21.8707,154.182 22.0691,154.126 22.2676,154.098 22.4656,154.013 22.6355,153.9 22.8055,153.787 22.9473,153.645 23.0605,153.475 23.2023,153.306 23.2871,153.08 23.3723,152.825 L 22.5223,152.655 C 22.4375,152.966 22.2957,153.164 22.0973,153.306 21.8992,153.447 21.6723,153.504 21.3891,153.504 21.1625,153.504 20.9359,153.447 20.7375,153.334 20.5391,153.221 20.3977,153.051 20.2559,152.825 20.1145,152.599 20.0012,152.316 19.9441,151.977 19.8594,151.638 19.8309,151.241 19.8309,150.789 19.9727,151.072 20.1992,151.298 20.5109,151.468 20.7941,151.609 21.1344,151.694 21.5023,151.694 21.8141,151.694 22.0973,151.638 22.3523,151.552 22.6074,151.439 22.8055,151.298 23.0039,151.1 23.1738,150.902 23.3156,150.676 23.4289,150.421 23.5141,150.139 23.5707,149.827 23.5707,149.488 z M 22.6641,149.46 C 22.6641,149.686 22.6355,149.912 22.5789,150.11 22.5223,150.28 22.4375,150.45 22.3242,150.591 22.2105,150.732 22.0691,150.846 21.8992,150.902 21.7008,150.987 21.5023,151.015 21.2758,151.015 21.1344,151.015 20.9641,150.987 20.7941,150.93 20.6527,150.902 20.4824,150.817 20.3691,150.704 20.2277,150.619 20.1145,150.478 20.0293,150.308 19.9441,150.11 19.916,149.912 19.916,149.658 19.916,149.403 19.9441,149.177 20.0012,148.951 20.0859,148.725 20.1711,148.527 20.2844,148.385 20.4258,148.216 20.5676,148.074 20.7375,147.989 20.9074,147.904 21.1059,147.848 21.3043,147.848 21.5309,147.848 21.7293,147.876 21.8707,147.961 22.0406,148.046 22.1824,148.13 22.3242,148.272 22.4375,148.413 22.5223,148.583 22.5789,148.781 22.6355,148.979 22.6641,149.205 22.6641,149.46"
               inkscape:connector-curvature="0" /><path
               id="path2290"
               style="fill:#010101;fill-opacity:1;fill-rule:evenodd;stroke:none"
               d="M 125.36,177.514 C 125.36,177.118 125.304,176.778 125.134,176.467 124.992,176.156 124.765,175.873 124.454,175.647 124.17,175.421 123.774,175.223 123.32,175.11 122.839,174.968 122.301,174.912 121.677,174.912 120.544,174.912 119.694,175.11 119.071,175.505 118.448,175.873 118.051,176.439 117.881,177.174 L 119.043,177.429 C 119.099,177.174 119.212,176.976 119.326,176.778 119.439,176.58 119.609,176.439 119.836,176.298 120.034,176.156 120.289,176.043 120.601,175.958 120.912,175.902 121.281,175.845 121.706,175.845 122.074,175.845 122.414,175.873 122.697,175.958 123.009,176.015 123.264,176.1 123.491,176.241 123.689,176.354 123.859,176.524 123.972,176.722 124.114,176.92 124.17,177.174 124.17,177.429 124.17,177.74 124.086,177.966 123.972,178.164 123.83,178.334 123.632,178.475 123.405,178.588 123.15,178.73 122.867,178.814 122.527,178.899 122.216,178.984 121.819,179.069 121.422,179.154 121.168,179.21 120.912,179.267 120.686,179.352 120.431,179.408 120.176,179.493 119.949,179.578 119.723,179.663 119.496,179.776 119.298,179.889 119.099,180.03 118.929,180.172 118.759,180.341 118.618,180.511 118.504,180.709 118.42,180.936 118.334,181.162 118.306,181.416 118.306,181.727 118.306,182.123 118.391,182.491 118.561,182.802 118.731,183.113 118.958,183.339 119.269,183.537 119.581,183.735 119.921,183.877 120.346,183.961 120.771,184.046 121.224,184.103 121.706,184.103 122.244,184.103 122.725,184.046 123.122,183.961 123.519,183.877 123.83,183.763 124.114,183.594 124.397,183.396 124.595,183.198 124.765,182.943 124.935,182.689 125.048,182.378 125.162,182.038 L 123.972,181.84 C 123.887,182.067 123.802,182.236 123.689,182.406 123.604,182.576 123.434,182.717 123.264,182.83 123.066,182.943 122.867,183.056 122.584,183.113 122.329,183.17 122.017,183.198 121.677,183.198 121.252,183.198 120.912,183.141 120.629,183.085 120.346,183 120.119,182.915 119.949,182.773 119.779,182.661 119.666,182.491 119.581,182.321 119.524,182.152 119.468,181.982 119.468,181.784 119.468,181.501 119.553,181.303 119.666,181.133 119.807,180.964 119.978,180.794 120.232,180.681 120.459,180.568 120.714,180.483 121.026,180.398 121.309,180.341 121.621,180.257 121.961,180.172 122.244,180.115 122.527,180.059 122.782,179.974 123.066,179.917 123.32,179.832 123.575,179.748 123.83,179.663 124.057,179.55 124.284,179.437 124.511,179.295 124.68,179.154 124.85,178.984 125.02,178.814 125.134,178.588 125.219,178.362 125.304,178.107 125.36,177.825 125.36,177.514"
               inkscape:connector-curvature="0" /><path
               id="path2292"
               style="fill:#010101;fill-opacity:1;fill-rule:evenodd;stroke:none"
               d="M 132.216,178.504 C 132.216,177.966 132.188,177.485 132.103,177.061 132.018,176.609 131.876,176.241 131.678,175.93 131.48,175.619 131.196,175.364 130.885,175.195 130.573,174.996 130.176,174.912 129.695,174.912 129.185,174.912 128.76,174.996 128.391,175.195 128.023,175.364 127.74,175.675 127.57,176.1 L 127.513,176.1 C 127.542,176.1 127.542,176.043 127.542,175.986 127.542,175.93 127.542,175.845 127.542,175.732 127.542,175.647 127.542,175.534 127.542,175.393 127.542,175.279 127.542,175.138 127.542,175.025 L 127.542,172.338 126.409,172.338 126.409,180.483 C 126.409,180.653 126.409,180.822 126.409,180.964 126.409,181.105 126.409,181.246 126.38,181.388 126.38,181.501 126.38,181.614 126.38,181.699 126.38,181.784 126.38,181.84 126.38,181.897 L 127.485,181.897 C 127.485,181.869 127.485,181.84 127.485,181.755 127.485,181.671 127.513,181.586 127.513,181.473 127.513,181.388 127.513,181.246 127.513,181.133 127.542,181.02 127.542,180.907 127.542,180.794 L 127.57,180.794 C 127.655,181.02 127.796,181.19 127.938,181.36 128.052,181.501 128.221,181.643 128.391,181.727 128.562,181.84 128.76,181.897 128.958,181.954 129.185,181.982 129.411,182.01 129.695,182.01 130.176,182.01 130.573,181.925 130.885,181.755 131.196,181.586 131.48,181.36 131.678,181.048 131.876,180.738 132.018,180.37 132.103,179.946 132.188,179.493 132.216,179.012 132.216,178.504 z M 131.026,178.475 C 131.026,178.899 130.998,179.267 130.941,179.606 130.885,179.917 130.8,180.2 130.686,180.427 130.545,180.653 130.375,180.822 130.176,180.964 129.978,181.077 129.723,181.133 129.383,181.133 129.157,181.133 128.902,181.105 128.675,181.02 128.448,180.964 128.25,180.822 128.08,180.624 127.938,180.398 127.796,180.115 127.683,179.776 127.598,179.408 127.542,178.956 127.542,178.39 127.542,177.909 127.598,177.485 127.683,177.146 127.74,176.807 127.882,176.552 128.023,176.326 128.165,176.128 128.363,175.986 128.59,175.902 128.816,175.788 129.1,175.76 129.383,175.76 129.695,175.76 129.978,175.817 130.176,175.93 130.375,176.071 130.545,176.241 130.686,176.467 130.8,176.693 130.885,176.976 130.941,177.316 130.998,177.655 131.026,178.051 131.026,178.475"
               inkscape:connector-curvature="0" /><path
               id="path2294"
               style="fill:#010101;fill-opacity:1;fill-rule:evenodd;stroke:none"
               d="M 134.029,178.221 C 134.029,177.853 134.057,177.542 134.143,177.231 134.199,176.92 134.312,176.665 134.482,176.467 134.624,176.241 134.823,176.071 135.077,175.958 135.304,175.817 135.616,175.76 135.956,175.76 136.437,175.76 136.834,175.873 137.146,176.071 137.429,176.269 137.627,176.524 137.741,176.807 L 138.732,176.524 C 138.675,176.354 138.562,176.156 138.449,175.958 138.307,175.76 138.137,175.591 137.911,175.449 137.712,175.279 137.429,175.166 137.117,175.053 136.777,174.968 136.409,174.912 135.956,174.912 134.936,174.912 134.143,175.223 133.633,175.817 133.095,176.411 132.839,177.316 132.839,178.504 132.839,179.154 132.896,179.691 133.066,180.144 133.236,180.596 133.434,180.964 133.718,181.246 134.001,181.529 134.341,181.727 134.709,181.84 135.077,181.982 135.474,182.038 135.899,182.038 136.466,182.038 136.947,181.954 137.344,181.755 137.741,181.557 138.052,181.303 138.279,180.992 138.505,180.653 138.675,180.257 138.789,179.832 138.874,179.38 138.93,178.899 138.93,178.362 L 138.93,178.221 134.029,178.221 z M 137.741,179.097 C 137.684,179.832 137.486,180.341 137.202,180.681 136.891,181.02 136.437,181.19 135.871,181.19 135.701,181.19 135.502,181.162 135.276,181.105 135.077,181.048 134.879,180.936 134.709,180.766 134.511,180.624 134.369,180.398 134.256,180.115 134.114,179.861 134.057,179.521 134.029,179.097 L 137.741,179.097"
               inkscape:connector-curvature="0" /><path
               id="path2296"
               style="fill:#010101;fill-opacity:1;fill-rule:evenodd;stroke:none"
               d="M 140.772,178.221 C 140.772,177.853 140.8,177.542 140.885,177.231 140.942,176.92 141.055,176.665 141.225,176.467 141.367,176.241 141.565,176.071 141.82,175.958 142.046,175.817 142.358,175.76 142.698,175.76 143.18,175.76 143.577,175.873 143.888,176.071 144.171,176.269 144.37,176.524 144.483,176.807 L 145.475,176.524 C 145.418,176.354 145.305,176.156 145.191,175.958 145.05,175.76 144.88,175.591 144.653,175.449 144.455,175.279 144.171,175.166 143.86,175.053 143.52,174.968 143.152,174.912 142.698,174.912 141.679,174.912 140.885,175.223 140.375,175.817 139.837,176.411 139.582,177.316 139.582,178.504 139.582,179.154 139.639,179.691 139.809,180.144 139.979,180.596 140.177,180.964 140.46,181.246 140.743,181.529 141.084,181.727 141.452,181.84 141.82,181.982 142.217,182.038 142.641,182.038 143.208,182.038 143.69,181.954 144.086,181.755 144.483,181.557 144.795,181.303 145.021,180.992 145.248,180.653 145.418,180.257 145.531,179.832 145.616,179.38 145.673,178.899 145.673,178.362 L 145.673,178.221 140.772,178.221 z M 144.483,179.097 C 144.426,179.832 144.228,180.341 143.945,180.681 143.633,181.02 143.18,181.19 142.613,181.19 142.443,181.19 142.245,181.162 142.018,181.105 141.82,181.048 141.621,180.936 141.452,180.766 141.254,180.624 141.112,180.398 140.998,180.115 140.857,179.861 140.8,179.521 140.772,179.097 L 144.483,179.097"
               inkscape:connector-curvature="0" /><path
               id="path2298"
               style="fill:#010101;fill-opacity:1;fill-rule:evenodd;stroke:none"
               d="M 150.971,176.1 C 150.772,175.675 150.489,175.364 150.121,175.166 149.781,174.968 149.356,174.884 148.818,174.884 147.968,174.884 147.316,175.166 146.92,175.76 146.495,176.326 146.296,177.231 146.296,178.39 146.296,180.794 147.146,181.982 148.818,181.982 149.356,181.982 149.781,181.897 150.121,181.699 150.489,181.501 150.772,181.218 150.971,180.794 L 150.971,180.794 C 150.971,180.822 150.971,180.907 150.971,180.992 150.971,181.077 150.971,181.19 150.971,181.275 150.971,181.388 150.971,181.473 150.971,181.557 150.971,181.643 150.971,181.699 150.971,181.755 L 150.971,184.414 152.104,184.414 152.104,176.411 C 152.104,176.269 152.104,176.1 152.104,175.958 152.132,175.788 152.132,175.647 152.132,175.534 152.132,175.393 152.132,175.279 152.132,175.195 152.132,175.11 152.161,175.053 152.161,174.996 L 151.055,174.996 C 151.055,175.053 151.055,175.11 151.027,175.195 151.027,175.279 151.027,175.364 151.027,175.449 150.999,175.562 150.999,175.675 150.999,175.788 150.999,175.902 150.999,175.986 150.999,176.1 L 150.971,176.1 z M 147.514,178.447 C 147.514,177.966 147.543,177.57 147.599,177.231 147.656,176.891 147.741,176.609 147.882,176.382 147.996,176.184 148.166,176.015 148.393,175.902 148.591,175.817 148.818,175.76 149.129,175.76 149.412,175.76 149.696,175.817 149.922,175.902 150.149,176.015 150.347,176.156 150.489,176.382 150.659,176.58 150.772,176.891 150.857,177.231 150.942,177.57 150.971,177.994 150.971,178.504 150.971,178.984 150.942,179.408 150.857,179.748 150.772,180.087 150.659,180.341 150.489,180.568 150.347,180.766 150.149,180.907 149.922,180.992 149.696,181.105 149.441,181.133 149.129,181.133 148.846,181.133 148.619,181.077 148.421,180.992 148.223,180.907 148.053,180.738 147.911,180.511 147.769,180.313 147.656,180.03 147.599,179.691 147.543,179.352 147.514,178.928 147.514,178.447"
               inkscape:connector-curvature="0" /><path
               id="path2300"
               style="fill:#010101;fill-opacity:1;fill-rule:evenodd;stroke:none"
               d="M 154.512,181.897 154.512,177.542 C 154.512,177.202 154.54,176.948 154.597,176.722 154.654,176.495 154.71,176.298 154.823,176.156 154.937,176.043 155.079,175.93 155.277,175.873 155.447,175.817 155.673,175.788 155.929,175.788 156.212,175.788 156.466,175.845 156.665,175.93 156.891,176.043 157.09,176.156 157.232,176.354 157.373,176.524 157.515,176.75 157.6,177.005 157.685,177.287 157.713,177.57 157.713,177.909 L 157.713,181.897 158.846,181.897 158.846,176.495 C 158.846,176.354 158.846,176.212 158.875,176.043 158.875,175.902 158.875,175.732 158.875,175.591 158.875,175.449 158.875,175.336 158.875,175.223 158.875,175.138 158.903,175.082 158.903,175.025 L 157.827,175.025 C 157.827,175.053 157.798,175.11 157.798,175.223 157.798,175.308 157.798,175.421 157.798,175.534 157.77,175.647 157.77,175.76 157.77,175.902 157.77,176.015 157.77,176.128 157.77,176.212 L 157.741,176.212 C 157.628,176.015 157.515,175.845 157.373,175.675 157.26,175.505 157.09,175.364 156.92,175.251 156.75,175.138 156.552,175.053 156.325,174.996 156.098,174.94 155.843,174.912 155.56,174.912 155.163,174.912 154.852,174.968 154.568,175.053 154.285,175.138 154.059,175.279 153.889,175.477 153.719,175.675 153.577,175.93 153.492,176.241 153.407,176.524 153.379,176.891 153.379,177.316 L 153.379,181.897 154.512,181.897"
               inkscape:connector-curvature="0" /><path
               id="path2302"
               style="fill:#010101;fill-opacity:1;fill-rule:evenodd;stroke:none"
               d="M 165.957,178.504 C 165.957,177.966 165.929,177.485 165.844,177.061 165.759,176.609 165.617,176.241 165.419,175.93 165.221,175.619 164.937,175.364 164.626,175.195 164.314,174.996 163.918,174.912 163.436,174.912 162.926,174.912 162.501,174.996 162.132,175.195 161.764,175.364 161.481,175.675 161.311,176.1 L 161.254,176.1 C 161.283,176.1 161.283,176.043 161.283,175.986 161.283,175.93 161.283,175.845 161.283,175.732 161.283,175.647 161.283,175.534 161.283,175.393 161.283,175.279 161.283,175.138 161.283,175.025 L 161.283,172.338 160.15,172.338 160.15,180.483 C 160.15,180.653 160.15,180.822 160.15,180.964 160.15,181.105 160.15,181.246 160.121,181.388 160.121,181.501 160.121,181.614 160.121,181.699 160.121,181.784 160.121,181.84 160.121,181.897 L 161.226,181.897 C 161.226,181.869 161.226,181.84 161.226,181.755 161.226,181.671 161.254,181.586 161.254,181.473 161.254,181.388 161.254,181.246 161.254,181.133 161.283,181.02 161.283,180.907 161.283,180.794 L 161.311,180.794 C 161.396,181.02 161.538,181.19 161.679,181.36 161.793,181.501 161.962,181.643 162.132,181.727 162.303,181.84 162.501,181.897 162.699,181.954 162.926,181.982 163.152,182.01 163.436,182.01 163.918,182.01 164.314,181.925 164.626,181.755 164.937,181.586 165.221,181.36 165.419,181.048 165.617,180.738 165.759,180.37 165.844,179.946 165.929,179.493 165.957,179.012 165.957,178.504 z M 164.767,178.475 C 164.767,178.899 164.739,179.267 164.682,179.606 164.626,179.917 164.541,180.2 164.427,180.427 164.286,180.653 164.116,180.822 163.918,180.964 163.719,181.077 163.464,181.133 163.124,181.133 162.898,181.133 162.643,181.105 162.416,181.02 162.189,180.964 161.991,180.822 161.821,180.624 161.679,180.398 161.538,180.115 161.424,179.776 161.339,179.408 161.283,178.956 161.283,178.39 161.283,177.909 161.339,177.485 161.424,177.146 161.481,176.807 161.623,176.552 161.764,176.326 161.906,176.128 162.104,175.986 162.331,175.902 162.557,175.788 162.841,175.76 163.124,175.76 163.436,175.76 163.719,175.817 163.918,175.93 164.116,176.071 164.286,176.241 164.427,176.467 164.541,176.693 164.626,176.976 164.682,177.316 164.739,177.655 164.767,178.051 164.767,178.475"
               inkscape:connector-curvature="0" /><path
               id="path2304"
               style="fill:#010101;fill-opacity:1;fill-rule:evenodd;stroke:none"
               d="M 120.743,16.8266 119.723,16.8266 118.646,20.7574 C 118.618,20.8707 118.589,20.9836 118.561,21.1535 118.504,21.2949 118.476,21.4363 118.448,21.5777 118.42,21.7473 118.391,21.9172 118.334,22.0586 118.306,21.8887 118.278,21.7473 118.25,21.5777 118.193,21.4363 118.164,21.2949 118.136,21.1535 118.108,20.9836 118.079,20.8707 118.023,20.7574 L 116.946,16.8266 115.955,16.8266 114.113,23.0199 114.991,23.0199 116.125,19.0891 C 116.153,18.891 116.21,18.7215 116.266,18.5234 116.295,18.3539 116.351,18.184 116.38,18.0426 116.408,17.873 116.436,17.7031 116.464,17.5617 116.521,17.7598 116.578,17.9578 116.606,18.1559 116.635,18.2406 116.663,18.3254 116.663,18.4102 116.691,18.4953 116.72,18.6082 116.748,18.693 116.748,18.7781 116.776,18.8629 116.805,18.9477 116.833,19.0043 116.861,19.0891 116.861,19.1457 L 117.938,23.0199 118.759,23.0199 119.836,19.1457 C 119.836,19.0891 119.864,19.0043 119.893,18.9477 119.921,18.8629 119.921,18.7781 119.949,18.693 119.978,18.6082 120.006,18.5234 120.006,18.4102 120.034,18.3254 120.062,18.2406 120.062,18.1559 120.119,17.9578 120.176,17.7598 120.204,17.5617 120.204,17.5617 120.232,17.6184 120.261,17.7031 120.289,17.8164 120.318,17.9297 120.346,18.0992 120.374,18.2406 120.402,18.4102 120.459,18.5801 120.488,18.7496 120.544,18.9191 120.601,19.0891 L 121.677,23.0199 122.555,23.0199 120.743,16.8266"
               inkscape:connector-curvature="0" /><path
               id="path2306"
               style="fill:#010101;fill-opacity:1;fill-rule:evenodd;stroke:none"
               d="M 126.975,19.202 C 126.975,18.382 126.777,17.7598 126.409,17.3641 126.04,16.9398 125.502,16.7418 124.822,16.7418 124.482,16.7418 124.199,16.7984 123.915,16.8832 123.661,16.9965 123.434,17.1375 123.264,17.3355 123.094,17.5617 122.952,17.8164 122.839,18.1273 122.754,18.4387 122.697,18.7781 122.697,19.202 122.697,20.8422 123.405,21.6625 124.85,21.6625 125.219,21.6625 125.53,21.6059 125.785,21.5211 126.068,21.4078 126.295,21.2664 126.465,21.0402 126.635,20.8422 126.748,20.5879 126.834,20.277 126.918,19.9656 126.975,19.6262 126.975,19.202 z M 126.125,19.202 C 126.125,19.5699 126.097,19.8809 126.04,20.107 125.984,20.3617 125.898,20.5598 125.785,20.7008 125.672,20.8422 125.559,20.9273 125.389,20.9836 125.219,21.0402 125.048,21.0688 124.85,21.0688 124.652,21.0688 124.482,21.0402 124.312,20.9836 124.142,20.9273 124,20.8141 123.887,20.6727 123.774,20.5312 123.689,20.3332 123.632,20.107 123.575,19.8527 123.547,19.5699 123.547,19.202 123.547,18.8344 123.575,18.5234 123.632,18.2973 123.689,18.0426 123.802,17.873 123.915,17.7031 124,17.5617 124.142,17.477 124.312,17.4203 124.454,17.3641 124.624,17.3355 124.794,17.3355 125.02,17.3355 125.19,17.3641 125.36,17.4203 125.53,17.477 125.672,17.5617 125.785,17.7031 125.898,17.8445 125.984,18.0426 126.04,18.2973 126.097,18.5234 126.125,18.8344 126.125,19.202"
               inkscape:connector-curvature="0" /><path
               id="path2308"
               style="fill:#010101;fill-opacity:1;fill-rule:evenodd;stroke:none"
               d="M 128.193,16.8266 128.193,20.4746 C 128.193,20.5598 128.193,20.6727 128.193,20.7859 128.193,20.8707 128.193,20.9836 128.193,21.0688 128.193,21.1816 128.193,21.2664 128.165,21.3516 128.165,21.4363 128.165,21.5211 128.165,21.5777 L 128.93,21.5777 C 128.93,21.5211 128.93,21.4363 128.93,21.3516 128.93,21.2664 128.93,21.1816 128.93,21.0688 128.958,20.9836 128.958,20.8988 128.958,20.8141 128.958,20.7293 128.958,20.6727 128.958,20.616 L 128.958,20.616 C 129.015,20.7859 129.071,20.9555 129.157,21.0688 129.213,21.2102 129.298,21.323 129.383,21.4078 129.468,21.493 129.553,21.5492 129.666,21.6059 129.78,21.6344 129.921,21.6625 130.091,21.6625 130.176,21.6625 130.233,21.6625 130.29,21.6344 130.346,21.6344 130.375,21.6344 130.431,21.6059 L 130.431,20.8988 C 130.375,20.8988 130.318,20.9273 130.233,20.9273 130.176,20.9273 130.091,20.9273 130.006,20.9273 129.808,20.9273 129.666,20.8988 129.525,20.8141 129.411,20.7293 129.298,20.616 129.213,20.4746 129.128,20.3332 129.071,20.1637 129.043,19.9656 129.015,19.7676 128.986,19.5414 128.986,19.3152 L 128.986,16.8266 128.193,16.8266"
               inkscape:connector-curvature="0" /><path
               id="path2310"
               style="fill:#010101;fill-opacity:1;fill-rule:evenodd;stroke:none"
               d="M 134.171,16.8266 132.556,18.9758 131.961,18.4953 131.961,16.8266 131.168,16.8266 131.168,23.3309 131.961,23.3309 131.961,19.2586 134.057,21.5777 134.993,21.5777 133.066,19.5133 135.077,16.8266 134.171,16.8266"
               inkscape:connector-curvature="0" /><path
               id="path2312"
               style="fill:#010101;fill-opacity:1;fill-rule:evenodd;stroke:none"
               d="M 136.296,19.0324 C 136.296,18.7781 136.324,18.5516 136.38,18.3539 136.409,18.1273 136.494,17.9578 136.607,17.8164 136.721,17.6469 136.862,17.5336 137.004,17.4488 137.174,17.3641 137.372,17.3355 137.627,17.3355 137.967,17.3355 138.25,17.3922 138.449,17.5336 138.647,17.675 138.789,17.8445 138.874,18.0711 L 139.554,17.873 C 139.497,17.7316 139.44,17.5902 139.355,17.477 139.27,17.3355 139.129,17.2227 138.987,17.1094 138.845,16.9965 138.647,16.9113 138.42,16.8551 138.194,16.7699 137.939,16.7418 137.627,16.7418 136.919,16.7418 136.38,16.9398 136.012,17.3641 135.644,17.7883 135.474,18.4102 135.474,19.2305 135.474,19.6828 135.502,20.0504 135.616,20.3617 135.729,20.6727 135.899,20.9273 136.097,21.125 136.267,21.2949 136.494,21.4363 136.749,21.5211 137.032,21.6059 137.287,21.6625 137.599,21.6625 137.995,21.6625 138.336,21.6059 138.59,21.4645 138.845,21.3516 139.072,21.1535 139.242,20.9273 139.412,20.7008 139.525,20.4465 139.582,20.1355 139.667,19.8242 139.695,19.4848 139.695,19.1457 L 139.695,19.0324 136.296,19.0324 z M 138.874,19.6262 C 138.817,20.1355 138.704,20.5031 138.477,20.7293 138.279,20.9555 137.967,21.0688 137.57,21.0688 137.457,21.0688 137.316,21.0688 137.174,21.0121 137.004,20.9836 136.891,20.8988 136.749,20.7859 136.636,20.6727 136.522,20.5312 136.437,20.3617 136.352,20.1637 136.324,19.9375 136.296,19.6262 L 138.874,19.6262"
               inkscape:connector-curvature="0" /><path
               id="path2314"
               style="fill:#010101;fill-opacity:1;fill-rule:evenodd;stroke:none"
               d="M 140.942,16.8266 140.942,20.4746 C 140.942,20.5598 140.942,20.6727 140.942,20.7859 140.942,20.8707 140.942,20.9836 140.942,21.0688 140.942,21.1816 140.942,21.2664 140.913,21.3516 140.913,21.4363 140.913,21.5211 140.913,21.5777 L 141.679,21.5777 C 141.679,21.5211 141.679,21.4363 141.679,21.3516 141.679,21.2664 141.679,21.1816 141.679,21.0688 141.707,20.9836 141.707,20.8988 141.707,20.8141 141.707,20.7293 141.707,20.6727 141.707,20.616 L 141.707,20.616 C 141.763,20.7859 141.82,20.9555 141.905,21.0688 141.962,21.2102 142.046,21.323 142.132,21.4078 142.217,21.493 142.302,21.5492 142.415,21.6059 142.528,21.6344 142.67,21.6625 142.84,21.6625 142.925,21.6625 142.982,21.6625 143.038,21.6344 143.095,21.6344 143.123,21.6344 143.18,21.6059 L 143.18,20.8988 C 143.123,20.8988 143.066,20.9273 142.982,20.9273 142.925,20.9273 142.84,20.9273 142.755,20.9273 142.557,20.9273 142.415,20.8988 142.273,20.8141 142.16,20.7293 142.046,20.616 141.962,20.4746 141.877,20.3332 141.82,20.1637 141.792,19.9656 141.763,19.7676 141.735,19.5414 141.735,19.3152 L 141.735,16.8266 140.942,16.8266"
               inkscape:connector-curvature="0" /><path
               id="path2316"
               style="fill:#010101;fill-opacity:1;fill-rule:evenodd;stroke:none"
               d="M 147.996,16.8832 C 147.882,16.8551 147.741,16.8266 147.628,16.7984 147.514,16.7699 147.373,16.7699 147.203,16.7699 146.551,16.7699 146.239,17.1375 146.239,17.8445 L 146.239,21.0121 145.701,21.0121 145.701,21.5777 146.268,21.5777 146.523,22.6523 147.033,22.6523 147.033,21.5777 147.911,21.5777 147.911,21.0121 147.033,21.0121 147.033,18.0145 C 147.033,17.7883 147.061,17.6184 147.146,17.5336 147.231,17.4488 147.344,17.3922 147.543,17.3922 147.628,17.3922 147.684,17.3922 147.769,17.4203 147.826,17.4203 147.911,17.4488 147.996,17.4488 L 147.996,16.8832"
               inkscape:connector-curvature="0" /><path
               id="path2318"
               style="fill:#010101;fill-opacity:1;fill-rule:evenodd;stroke:none"
               d="M 149.214,20.7574 C 149.299,20.8988 149.412,21.0402 149.497,21.1535 149.611,21.2664 149.724,21.3797 149.838,21.4363 149.979,21.5211 150.092,21.5777 150.262,21.6059 150.404,21.6344 150.574,21.6625 150.744,21.6625 151.055,21.6625 151.311,21.6059 151.48,21.5211 151.679,21.4363 151.849,21.323 151.962,21.1816 152.075,21.0402 152.132,20.8707 152.189,20.6445 152.217,20.4465 152.245,20.2203 152.245,19.9656 L 152.245,16.8266 151.452,16.8266 151.452,19.8242 C 151.452,20.0223 151.452,20.1918 151.424,20.3617 151.396,20.5031 151.339,20.6445 151.282,20.7293 151.197,20.8422 151.112,20.8988 150.971,20.9555 150.857,21.0121 150.687,21.0402 150.461,21.0402 150.291,21.0402 150.121,21.0121 149.979,20.9273 149.809,20.8707 149.696,20.7859 149.582,20.6445 149.469,20.5312 149.384,20.3898 149.327,20.2203 149.271,20.0223 149.243,19.8242 149.243,19.6262 L 149.243,16.8266 148.449,16.8266 148.449,23.3309 149.243,23.3309 149.243,21.6344 C 149.243,21.5492 149.243,21.4363 149.243,21.3516 149.243,21.2383 149.243,21.1535 149.214,21.0688 149.214,20.9836 149.214,20.9273 149.214,20.8707 149.214,20.8141 149.214,20.7859 149.214,20.7574 L 149.214,20.7574"
               inkscape:connector-curvature="0" /><path
               id="path2320"
               style="fill:#010101;fill-opacity:1;fill-rule:evenodd;stroke:none"
               d="M 153.69,16.8266 153.69,20.4746 C 153.69,20.5598 153.69,20.6727 153.69,20.7859 153.69,20.8707 153.69,20.9836 153.69,21.0688 153.69,21.1816 153.69,21.2664 153.662,21.3516 153.662,21.4363 153.662,21.5211 153.662,21.5777 L 154.427,21.5777 C 154.427,21.5211 154.427,21.4363 154.427,21.3516 154.427,21.2664 154.427,21.1816 154.427,21.0688 154.455,20.9836 154.455,20.8988 154.455,20.8141 154.455,20.7293 154.455,20.6727 154.455,20.616 L 154.455,20.616 C 154.512,20.7859 154.568,20.9555 154.654,21.0688 154.71,21.2102 154.795,21.323 154.88,21.4078 154.965,21.493 155.05,21.5492 155.163,21.6059 155.277,21.6344 155.418,21.6625 155.588,21.6625 155.673,21.6625 155.73,21.6625 155.787,21.6344 155.843,21.6344 155.871,21.6344 155.929,21.6059 L 155.929,20.8988 C 155.871,20.8988 155.815,20.9273 155.73,20.9273 155.673,20.9273 155.588,20.9273 155.504,20.9273 155.305,20.9273 155.163,20.8988 155.022,20.8141 154.909,20.7293 154.795,20.616 154.71,20.4746 154.625,20.3332 154.568,20.1637 154.54,19.9656 154.512,19.7676 154.484,19.5414 154.484,19.3152 L 154.484,16.8266 153.69,16.8266"
               inkscape:connector-curvature="0" /><path
               id="path2322"
               style="fill:#010101;fill-opacity:1;fill-rule:evenodd;stroke:none"
               d="M 157.288,19.0324 C 157.288,18.7781 157.316,18.5516 157.373,18.3539 157.402,18.1273 157.486,17.9578 157.6,17.8164 157.713,17.6469 157.855,17.5336 157.996,17.4488 158.166,17.3641 158.365,17.3355 158.62,17.3355 158.96,17.3355 159.243,17.3922 159.441,17.5336 159.639,17.675 159.781,17.8445 159.866,18.0711 L 160.546,17.873 C 160.489,17.7316 160.433,17.5902 160.348,17.477 160.263,17.3355 160.121,17.2227 159.98,17.1094 159.838,16.9965 159.639,16.9113 159.413,16.8551 159.186,16.7699 158.931,16.7418 158.62,16.7418 157.911,16.7418 157.373,16.9398 157.005,17.3641 156.637,17.7883 156.466,18.4102 156.466,19.2305 156.466,19.6828 156.495,20.0504 156.608,20.3617 156.721,20.6727 156.891,20.9273 157.09,21.125 157.26,21.2949 157.486,21.4363 157.741,21.5211 158.025,21.6059 158.28,21.6625 158.591,21.6625 158.988,21.6625 159.328,21.6059 159.583,21.4645 159.838,21.3516 160.064,21.1535 160.234,20.9273 160.404,20.7008 160.518,20.4465 160.575,20.1355 160.659,19.8242 160.688,19.4848 160.688,19.1457 L 160.688,19.0324 157.288,19.0324 z M 159.866,19.6262 C 159.809,20.1355 159.696,20.5031 159.47,20.7293 159.271,20.9555 158.96,21.0688 158.563,21.0688 158.45,21.0688 158.308,21.0688 158.166,21.0121 157.996,20.9836 157.883,20.8988 157.741,20.7859 157.628,20.6727 157.515,20.5312 157.43,20.3617 157.345,20.1637 157.316,19.9375 157.288,19.6262 L 159.866,19.6262"
               inkscape:connector-curvature="0" /><path
               id="path2324"
               style="fill:#010101;fill-opacity:1;fill-rule:evenodd;stroke:none"
               d="M 163.124,16.7418 C 162.643,16.7418 162.303,16.8551 162.048,17.1094 161.821,17.3641 161.708,17.7316 161.708,18.1559 161.708,18.4668 161.764,18.7215 161.878,18.9477 161.991,19.1457 162.132,19.2871 162.331,19.4 162.529,19.5133 162.756,19.598 162.982,19.6547 163.238,19.6828 163.493,19.7113 163.747,19.7113 L 164.824,19.7113 164.824,19.9656 C 164.824,20.1637 164.796,20.3332 164.767,20.4746 164.711,20.616 164.654,20.7293 164.569,20.8141 164.484,20.8988 164.371,20.9555 164.257,21.0121 164.116,21.0402 163.974,21.0688 163.804,21.0688 163.634,21.0688 163.493,21.0402 163.379,21.0402 163.266,21.0121 163.152,20.9555 163.068,20.8988 162.982,20.8422 162.898,20.7859 162.841,20.6727 162.784,20.5879 162.756,20.4465 162.727,20.3051 L 161.906,20.3898 C 161.934,20.5598 161.991,20.7293 162.076,20.8988 162.161,21.0402 162.274,21.1816 162.416,21.2949 162.586,21.4078 162.756,21.493 162.982,21.5777 163.209,21.6344 163.493,21.6625 163.804,21.6625 164.399,21.6625 164.852,21.5211 165.164,21.2383 165.475,20.9836 165.617,20.5879 165.617,20.0504 L 165.617,18.0145 C 165.617,17.7883 165.646,17.6184 165.702,17.477 165.759,17.3641 165.9,17.3074 166.07,17.3074 166.099,17.3074 166.155,17.3074 166.184,17.3074 166.241,17.3355 166.269,17.3355 166.325,17.3355 L 166.325,16.8551 C 166.212,16.8266 166.127,16.7984 166.014,16.7984 165.929,16.7699 165.816,16.7699 165.702,16.7699 165.561,16.7699 165.419,16.7984 165.334,16.8266 165.221,16.8832 165.136,16.9398 165.05,17.0246 164.994,17.1094 164.937,17.1941 164.909,17.3074 164.88,17.4488 164.852,17.5902 164.852,17.7316 L 164.824,17.7316 C 164.739,17.5902 164.626,17.4488 164.541,17.3355 164.427,17.1941 164.314,17.1094 164.172,17.0246 164.059,16.9398 163.889,16.8551 163.719,16.7984 163.549,16.7699 163.351,16.7418 163.124,16.7418 z M 163.322,17.3355 C 163.577,17.3355 163.776,17.3922 163.974,17.477 164.172,17.5617 164.314,17.675 164.455,17.8164 164.569,17.9578 164.654,18.1273 164.711,18.2973 164.796,18.4668 164.824,18.6082 164.824,18.7781 L 164.824,19.1457 163.946,19.1457 C 163.747,19.1457 163.577,19.1457 163.407,19.1172 163.238,19.0891 163.068,19.0324 162.926,18.9758 162.812,18.891 162.699,18.8062 162.614,18.6648 162.557,18.5234 162.501,18.3539 162.501,18.1559 162.501,17.873 162.586,17.675 162.727,17.5336 162.869,17.3922 163.068,17.3355 163.322,17.3355"
               inkscape:connector-curvature="0" /><path
               id="path2326"
               style="fill:#010101;fill-opacity:1;fill-rule:evenodd;stroke:none"
               d="M 170.15,17.5902 C 170.008,17.2789 169.81,17.0527 169.583,16.9113 169.329,16.7984 169.045,16.7137 168.677,16.7137 168.082,16.7137 167.629,16.9398 167.345,17.3355 167.062,17.7316 166.92,18.3539 166.92,19.1738 166.92,20.8141 167.515,21.6625 168.677,21.6625 169.045,21.6625 169.357,21.5777 169.583,21.4645 169.81,21.323 170.008,21.125 170.15,20.8141 L 170.178,20.8141 C 170.178,20.8707 170.178,20.8988 170.178,20.9555 170.178,21.0402 170.178,21.0969 170.178,21.1535 170.178,21.2383 170.15,21.2949 170.15,21.3516 170.15,21.4078 170.15,21.4645 170.15,21.493 L 170.15,23.3309 170.943,23.3309 170.943,17.7883 C 170.943,17.675 170.943,17.5617 170.971,17.477 170.971,17.3641 170.971,17.2789 170.971,17.166 170.971,17.0812 170.971,17.0246 170.971,16.9398 170.971,16.8832 170.971,16.8551 170.971,16.8266 L 170.235,16.8266 C 170.207,16.8551 170.207,16.8832 170.207,16.9398 170.207,16.9965 170.207,17.0527 170.207,17.1375 170.178,17.1941 170.178,17.2789 170.178,17.3355 170.178,17.4203 170.178,17.5055 170.178,17.5902 L 170.15,17.5902 z M 167.77,19.202 C 167.77,18.8629 167.77,18.5801 167.827,18.3539 167.855,18.1273 167.94,17.9297 168.025,17.7598 168.11,17.6184 168.223,17.5055 168.365,17.4488 168.507,17.3641 168.677,17.3355 168.875,17.3355 169.102,17.3355 169.272,17.3641 169.442,17.4488 169.583,17.5055 169.725,17.6184 169.838,17.7598 169.952,17.9012 170.037,18.0992 170.093,18.3539 170.15,18.6082 170.15,18.891 170.15,19.2586 170.15,19.5699 170.15,19.8809 170.093,20.107 170.037,20.3332 169.952,20.5312 169.838,20.6727 169.725,20.8141 169.583,20.8988 169.442,20.9836 169.272,21.0402 169.102,21.0688 168.904,21.0688 168.705,21.0688 168.535,21.0402 168.393,20.9555 168.252,20.8988 168.139,20.7859 168.025,20.6445 167.94,20.5031 167.884,20.3051 167.827,20.0504 167.798,19.8242 167.77,19.5414 167.77,19.202"
               inkscape:connector-curvature="0" /><path
               id="path2328"
               style="fill:#010101;fill-opacity:1;fill-rule:evenodd;stroke:none"
               d="M 175.986,18.1559 C 175.986,17.9297 175.929,17.7316 175.844,17.5617 175.759,17.3641 175.618,17.2227 175.476,17.1094 175.306,16.9965 175.108,16.9113 174.853,16.8266 174.626,16.7699 174.343,16.7418 174.031,16.7418 173.776,16.7418 173.521,16.7699 173.295,16.7984 173.068,16.8551 172.87,16.9113 172.7,16.9965 172.558,17.1094 172.416,17.2227 172.303,17.3922 172.19,17.5336 172.105,17.7316 172.048,17.9578 L 172.756,18.0711 C 172.813,17.8164 172.955,17.6469 173.153,17.5336 173.38,17.3922 173.663,17.3355 174.031,17.3355 174.201,17.3355 174.371,17.3641 174.513,17.3922 174.654,17.3922 174.768,17.4488 174.881,17.5055 174.966,17.5617 175.051,17.6469 175.108,17.7316 175.164,17.8164 175.193,17.9297 175.193,18.0711 175.193,18.2125 175.164,18.3539 175.108,18.4387 175.023,18.5234 174.938,18.6082 174.825,18.6648 174.711,18.7215 174.541,18.7781 174.371,18.8344 174.201,18.8629 174.031,18.9191 173.805,18.9758 173.635,19.0324 173.436,19.0891 173.238,19.1457 173.068,19.202 172.898,19.2871 172.728,19.4 172.586,19.4848 172.473,19.6262 172.388,19.7676 172.275,19.909 172.246,20.107 172.246,20.3332 172.246,20.7574 172.388,21.0969 172.7,21.323 173.011,21.5492 173.464,21.6625 174.059,21.6625 174.57,21.6625 174.995,21.5777 175.306,21.3797 175.618,21.2102 175.816,20.8988 175.901,20.5031 L 175.164,20.4184 C 175.136,20.5312 175.108,20.6445 175.023,20.7293 174.966,20.8141 174.881,20.8707 174.768,20.9273 174.683,20.9836 174.57,21.0121 174.428,21.0402 174.314,21.0688 174.173,21.0688 174.059,21.0688 173.691,21.0688 173.436,21.0121 173.266,20.8988 173.096,20.7859 173.011,20.6445 173.011,20.4184 173.011,20.277 173.039,20.1637 173.096,20.0789 173.153,19.9941 173.238,19.9375 173.351,19.8809 173.464,19.8242 173.606,19.7676 173.776,19.7395 173.918,19.6828 174.088,19.6547 174.286,19.598 174.428,19.5699 174.541,19.5414 174.683,19.4848 174.825,19.4566 174.938,19.4 175.051,19.3719 175.193,19.3152 175.306,19.2586 175.42,19.1738 175.533,19.1172 175.618,19.0324 175.703,18.9191 175.788,18.8344 175.844,18.7215 175.901,18.5801 175.958,18.4668 175.986,18.3254 175.986,18.1559"
               inkscape:connector-curvature="0" /></g></g></g></g></g></svg>