<?xml version="1.0" encoding="UTF-8" standalone="no"?>
<!-- Created with Inkscape (http://www.inkscape.org/) -->

<svg
   xmlns:dc="http://purl.org/dc/elements/1.1/"
   xmlns:cc="http://creativecommons.org/ns#"
   xmlns:rdf="http://www.w3.org/1999/02/22-rdf-syntax-ns#"
   xmlns:svg="http://www.w3.org/2000/svg"
   xmlns="http://www.w3.org/2000/svg"
   xmlns:sodipodi="http://sodipodi.sourceforge.net/DTD/sodipodi-0.dtd"
   xmlns:inkscape="http://www.inkscape.org/namespaces/inkscape"
   id="svg2"
   version="1.1"
   inkscape:version="0.48.4 r9939"
   width="200.09625"
   height="106.60533"
   xml:space="preserve"
   sodipodi:docname="category_reduce.svg"><metadata
     id="metadata8"><rdf:RDF><cc:Work
         rdf:about=""><dc:format>image/svg+xml</dc:format><dc:type
           rdf:resource="http://purl.org/dc/dcmitype/StillImage" /><dc:title></dc:title></cc:Work></rdf:RDF></metadata><defs
     id="defs6"><clipPath
       clipPathUnits="userSpaceOnUse"
       id="clipPath102"><path
         d="m 0,0 348.425,0 0,185.28 L 0,185.28 0,0 z"
         id="path104"
         inkscape:connector-curvature="0" /></clipPath><clipPath
       clipPathUnits="userSpaceOnUse"
       id="clipPath114"><path
         d="m 0.029999,185.28 348.395001,0 0,-185.25 -348.395001,0 0,185.25 z"
         id="path116"
         inkscape:connector-curvature="0" /></clipPath><clipPath
       clipPathUnits="userSpaceOnUse"
       id="clipPath490"><path
         d="m 0.029999,185.28 348.395001,0 0,-185.25 -348.395001,0 0,185.25 z"
         id="path492"
         inkscape:connector-curvature="0" /></clipPath><clipPath
       clipPathUnits="userSpaceOnUse"
       id="clipPath718"><path
         d="m 0.029999,185.28 348.395001,0 0,-185.25 -348.395001,0 0,185.25 z"
         id="path720"
         inkscape:connector-curvature="0" /></clipPath><clipPath
       clipPathUnits="userSpaceOnUse"
       id="clipPath490-8"><path
         inkscape:connector-curvature="0"
         d="m 0.029999,185.28 348.395001,0 0,-185.25 -348.395001,0 0,185.25 z"
         id="path492-1" /></clipPath><clipPath
       clipPathUnits="userSpaceOnUse"
       id="clipPath718-5"><path
         inkscape:connector-curvature="0"
         d="m 0.029999,185.28 348.395001,0 0,-185.25 -348.395001,0 0,185.25 z"
         id="path720-1" /></clipPath></defs><sodipodi:namedview
     pagecolor="#ffffff"
     bordercolor="#666666"
     borderopacity="1"
     objecttolerance="10"
     gridtolerance="10"
     guidetolerance="10"
     inkscape:pageopacity="0"
     inkscape:pageshadow="2"
     inkscape:window-width="1855"
     inkscape:window-height="1056"
     id="namedview4"
     showgrid="false"
     fit-margin-top="0"
     fit-margin-left="0"
     fit-margin-right="0"
     fit-margin-bottom="0"
     inkscape:zoom="3.2072495"
     inkscape:cx="14.350804"
     inkscape:cy="77.87335"
     inkscape:window-x="65"
     inkscape:window-y="24"
     inkscape:window-maximized="1"
     inkscape:current-layer="g10" /><g
     id="g10"
     inkscape:groupmode="layer"
     inkscape:label="iicyb.Structured.Parallel.Programming.Patterns.for.Efficient.Computation"
     transform="matrix(1.25,0,0,-1.25,-347.68375,644.22125)"><path
       inkscape:connector-curvature="0"
       id="path412"
       style="fill:#265dab;fill-opacity:1;fill-rule:nonzero;stroke:none"
       d="m 294.705,515.377 126.959,0 c 1.528,0 2.76,-1.231 2.76,-2.761 l 0,-11.039 c 0,-1.53 -1.232,-2.76 -2.76,-2.76 l -126.959,0 c -1.53,0 -2.759,1.23 -2.759,2.76 l 0,11.039 c 0,1.53 1.229,2.761 2.759,2.761" /><path
       inkscape:connector-curvature="0"
       id="path420"
       style="fill:#88bde6;fill-opacity:1;fill-rule:nonzero;stroke:none"
       d="m 312.092,511.789 c 1.104,1.103 1.933,0.827 4.692,0.827 2.76,0 3.588,0.276 4.692,-0.827 1.105,-1.105 0.829,-1.933 0.829,-4.692 0,-2.761 0.276,-3.588 -0.829,-4.694 -1.104,-1.103 -1.932,-0.826 -4.692,-0.826 -2.759,0 -3.588,-0.277 -4.692,0.826 -1.104,1.106 -0.825,1.933 -0.825,4.694 0,2.759 -0.279,3.587 0.825,4.692" /><path
       inkscape:connector-curvature="0"
       id="path428"
       style="fill:#88bde6;fill-opacity:1;fill-rule:nonzero;stroke:none"
       d="m 328.652,511.789 c 1.103,1.103 1.932,0.827 4.692,0.827 2.761,0 3.588,0.276 4.69,-0.827 1.106,-1.105 0.831,-1.933 0.831,-4.692 0,-2.761 0.275,-3.588 -0.831,-4.694 -1.102,-1.103 -1.929,-0.826 -4.69,-0.826 -2.76,0 -3.589,-0.277 -4.692,0.826 -1.104,1.106 -0.826,1.933 -0.826,4.694 0,2.759 -0.278,3.587 0.826,4.692" /><path
       inkscape:connector-curvature="0"
       id="path436"
       style="fill:#88bde6;fill-opacity:1;fill-rule:nonzero;stroke:none"
       d="m 345.212,511.789 c 1.105,1.103 1.933,0.827 4.692,0.827 2.761,0 3.587,0.276 4.692,-0.827 1.105,-1.105 0.83,-1.933 0.83,-4.692 0,-2.761 0.275,-3.588 -0.83,-4.694 -1.105,-1.103 -1.931,-0.826 -4.692,-0.826 -2.759,0 -3.587,-0.277 -4.692,0.826 -1.104,1.106 -0.827,1.933 -0.827,4.694 0,2.759 -0.277,3.587 0.827,4.692" /><path
       inkscape:connector-curvature="0"
       id="path444"
       style="fill:#88bde6;fill-opacity:1;fill-rule:nonzero;stroke:none"
       d="m 361.774,511.789 c 1.101,1.103 1.93,0.827 4.689,0.827 2.762,0 3.589,0.276 4.692,-0.827 1.105,-1.105 0.83,-1.933 0.83,-4.692 0,-2.761 0.275,-3.588 -0.83,-4.694 -1.103,-1.103 -1.93,-0.826 -4.692,-0.826 -2.759,0 -3.588,-0.277 -4.689,0.826 -1.107,1.106 -0.831,1.933 -0.831,4.694 0,2.759 -0.276,3.587 0.831,4.692" /><path
       inkscape:connector-curvature="0"
       id="path452"
       style="fill:#88bde6;fill-opacity:1;fill-rule:nonzero;stroke:none"
       d="m 378.332,511.789 c 1.103,1.103 1.933,0.827 4.693,0.827 2.76,0 3.586,0.276 4.691,-0.827 1.105,-1.105 0.827,-1.933 0.827,-4.692 0,-2.761 0.278,-3.588 -0.827,-4.694 -1.105,-1.103 -1.931,-0.826 -4.691,-0.826 -2.76,0 -3.59,-0.277 -4.693,0.826 -1.104,1.106 -0.827,1.933 -0.827,4.694 0,2.759 -0.277,3.587 0.827,4.692" /><path
       inkscape:connector-curvature="0"
       id="path460"
       style="fill:#88bde6;fill-opacity:1;fill-rule:nonzero;stroke:none"
       d="m 394.891,511.789 c 1.102,1.103 1.933,0.827 4.694,0.827 2.759,0 3.587,0.276 4.69,-0.827 1.107,-1.105 0.829,-1.933 0.829,-4.692 0,-2.761 0.278,-3.588 -0.829,-4.694 -1.103,-1.103 -1.931,-0.826 -4.69,-0.826 -2.761,0 -3.592,-0.277 -4.694,0.826 -1.104,1.106 -0.827,1.933 -0.827,4.694 0,2.759 -0.277,3.587 0.827,4.692" /><path
       inkscape:connector-curvature="0"
       id="path468"
       style="fill:#88bde6;fill-opacity:1;fill-rule:nonzero;stroke:none"
       d="m 411.45,511.789 c 1.105,1.103 1.934,0.827 4.696,0.827 2.757,0 3.586,0.276 4.689,-0.827 1.106,-1.105 0.829,-1.933 0.829,-4.692 0,-2.761 0.277,-3.588 -0.829,-4.694 -1.103,-1.103 -1.932,-0.826 -4.689,-0.826 -2.762,0 -3.591,-0.277 -4.696,0.826 -1.102,1.106 -0.826,1.933 -0.826,4.694 0,2.759 -0.276,3.587 0.826,4.692" /><path
       inkscape:connector-curvature="0"
       id="path476"
       style="fill:#88bde6;fill-opacity:1;fill-rule:nonzero;stroke:none"
       d="m 295.533,511.789 c 1.104,1.103 1.933,0.827 4.691,0.827 2.761,0 3.59,0.276 4.692,-0.827 1.105,-1.105 0.829,-1.933 0.829,-4.692 0,-2.761 0.276,-3.588 -0.829,-4.694 -1.102,-1.103 -1.931,-0.826 -4.692,-0.826 -2.758,0 -3.587,-0.277 -4.691,0.826 -1.104,1.106 -0.828,1.933 -0.828,4.694 0,2.759 -0.276,3.587 0.828,4.692" /><path
       inkscape:connector-curvature="0"
       id="path484"
       style="fill:#90cd97;fill-opacity:1;fill-rule:nonzero;stroke:none"
       d="m 289.185,447.576 -11.038,48.481 160.077,0 -11.041,-48.481 -137.998,0"
       sodipodi:nodetypes="ccccc" /><path
       d="m 407.863,451.896 11.04,0 0,11.042 -11.04,0 0,-11.042 z"
       style="fill:#059748;fill-opacity:1;fill-rule:nonzero;stroke:none"
       id="path682"
       inkscape:connector-curvature="0" /><g
       id="g4051"
       style="stroke:#df5c24;stroke-width:0.80000001;stroke-miterlimit:4;stroke-dasharray:none"><path
         inkscape:connector-curvature="0"
         id="path548"
         style="fill:none;stroke:#df5c24;stroke-width:0.80000001;stroke-linecap:butt;stroke-linejoin:miter;stroke-miterlimit:4;stroke-opacity:1;stroke-dasharray:none"
         d="m 413.384,473.978 0,-2.761 2.762,0 c 0,-1.381 -0.089,-5.124 -0.044,-5.943 0.044,-0.819 0.044,-1.338 0.044,-1.338" /><path
         inkscape:connector-curvature="0"
         id="path560"
         style="fill:none;stroke:#df5c24;stroke-width:0.80000001;stroke-linecap:butt;stroke-linejoin:miter;stroke-miterlimit:4;stroke-opacity:1;stroke-dasharray:none"
         d="m 347.145,473.978 0,-2.761 2.759,0 c 0,-1.381 -0.085,-5.124 -0.043,-5.943 0.043,-0.819 0.043,-1.338 0.043,-1.338" /><path
         d="m 349.904,465.646 -0.855,0.857 0.855,-2.993 0.856,2.993 -0.856,-0.857"
         style="fill:#000000;fill-opacity:1;fill-rule:evenodd;stroke:#df5c24;stroke-width:0.80000001;stroke-miterlimit:4;stroke-dasharray:none"
         id="path564"
         inkscape:connector-curvature="0" /><path
         d="m 349.904,465.646 -0.855,0.859 0.855,-2.995 0.856,2.995 -0.856,-0.859 z"
         style="fill:none;stroke:#df5c24;stroke-width:0.80000001;stroke-linecap:butt;stroke-linejoin:miter;stroke-miterlimit:4;stroke-opacity:1;stroke-dasharray:none"
         id="path568"
         inkscape:connector-curvature="0" /><path
         inkscape:connector-curvature="0"
         id="path596"
         style="fill:none;stroke:#df5c24;stroke-width:0.80000001;stroke-linecap:butt;stroke-linejoin:miter;stroke-miterlimit:4;stroke-opacity:1;stroke-dasharray:none"
         d="m 314.025,473.978 0,-5.521 30.36,0 c 0,-1.38 -0.087,-2.364 -0.042,-3.183 0.042,-0.819 0.042,-1.338 0.042,-1.338" /><path
         d="m 344.385,465.646 -0.857,0.857 0.857,-2.993 0.854,2.993 -0.854,-0.857"
         style="fill:#000000;fill-opacity:1;fill-rule:evenodd;stroke:#df5c24;stroke-width:0.80000001;stroke-miterlimit:4;stroke-dasharray:none"
         id="path600"
         inkscape:connector-curvature="0" /><path
         d="m 344.385,465.646 -0.857,0.859 0.857,-2.995 0.854,2.995 -0.854,-0.859 z"
         style="fill:none;stroke:#df5c24;stroke-width:0.80000001;stroke-linecap:butt;stroke-linejoin:miter;stroke-miterlimit:4;stroke-opacity:1;stroke-dasharray:none"
         id="path604"
         inkscape:connector-curvature="0" /><path
         inkscape:connector-curvature="0"
         id="path608"
         style="fill:none;stroke:#df5c24;stroke-width:0.80000001;stroke-linecap:butt;stroke-linejoin:miter;stroke-miterlimit:4;stroke-opacity:1;stroke-dasharray:none"
         d="m 380.265,473.978 0,-5.521 30.359,0 c 0,-1.38 -0.087,-2.364 -0.043,-3.183 0.043,-0.819 0.043,-1.338 0.043,-1.338" /><path
         d="m 410.624,465.646 -0.856,0.857 0.856,-2.993 0.855,2.993 -0.855,-0.857"
         style="fill:none;stroke:#df5c24;stroke-width:0.80000001;stroke-miterlimit:4;stroke-dasharray:none"
         id="path612"
         inkscape:connector-curvature="0" /><g
         style="stroke:#df5c24;stroke-width:0.80000001;stroke-miterlimit:4;stroke-dasharray:none"
         transform="translate(0,-48)"
         id="g4025"><path
           inkscape:connector-curvature="0"
           id="path500"
           style="fill:none;stroke:#df5c24;stroke-width:0.80000001;stroke-linecap:butt;stroke-linejoin:miter;stroke-miterlimit:4;stroke-opacity:1;stroke-dasharray:none"
           d="m 349.904,549.577 0,-15.561" /><path
           inkscape:connector-curvature="0"
           id="path504"
           style="fill:#000000;fill-opacity:1;fill-rule:evenodd;stroke:#df5c24;stroke-width:0.80000001;stroke-miterlimit:4;stroke-dasharray:none"
           d="m 349.904,535.727 -0.855,0.855 0.855,-2.994 0.856,2.994 -0.856,-0.855" /><path
           inkscape:connector-curvature="0"
           id="path508"
           style="fill:none;stroke:#df5c24;stroke-width:0.80000001;stroke-linecap:butt;stroke-linejoin:miter;stroke-miterlimit:4;stroke-opacity:1;stroke-dasharray:none"
           d="m 349.904,535.727 -0.855,0.855 0.855,-2.994 0.856,2.994 -0.856,-0.855 z" /><path
           d="m 316.784,549.577 0,-15.561"
           style="fill:none;stroke:#df5c24;stroke-width:0.80000001;stroke-linecap:butt;stroke-linejoin:miter;stroke-miterlimit:4;stroke-opacity:1;stroke-dasharray:none"
           id="path512"
           inkscape:connector-curvature="0" /><path
           inkscape:connector-curvature="0"
           id="path516"
           style="fill:#000000;fill-opacity:1;fill-rule:evenodd;stroke:#df5c24;stroke-width:0.80000001;stroke-miterlimit:4;stroke-dasharray:none"
           d="m 316.784,535.727 -0.854,0.855 0.854,-2.994 0.855,2.994 -0.855,-0.855" /><path
           inkscape:connector-curvature="0"
           id="path520"
           style="fill:none;stroke:#df5c24;stroke-width:0.80000001;stroke-linecap:butt;stroke-linejoin:miter;stroke-miterlimit:4;stroke-opacity:1;stroke-dasharray:none"
           d="m 316.784,535.727 -0.854,0.855 0.854,-2.994 0.855,2.994 -0.855,-0.855 z" /><path
           d="m 383.025,549.577 0,-15.561"
           style="fill:none;stroke:#df5c24;stroke-width:0.80000001;stroke-linecap:butt;stroke-linejoin:miter;stroke-miterlimit:4;stroke-opacity:1;stroke-dasharray:none"
           id="path524"
           inkscape:connector-curvature="0" /><path
           inkscape:connector-curvature="0"
           id="path528"
           style="fill:#000000;fill-opacity:1;fill-rule:evenodd;stroke:#df5c24;stroke-width:0.80000001;stroke-miterlimit:4;stroke-dasharray:none"
           d="m 383.025,535.727 -0.856,0.855 0.856,-2.994 0.852,2.994 -0.852,-0.855" /><path
           inkscape:connector-curvature="0"
           id="path532"
           style="fill:none;stroke:#df5c24;stroke-width:0.80000001;stroke-linecap:butt;stroke-linejoin:miter;stroke-miterlimit:4;stroke-opacity:1;stroke-dasharray:none"
           d="m 383.025,535.727 -0.856,0.855 0.856,-2.994 0.852,2.994 -0.852,-0.855 z" /><path
           d="m 416.146,549.577 0,-15.561"
           style="fill:none;stroke:#df5c24;stroke-width:0.80000001;stroke-linecap:butt;stroke-linejoin:miter;stroke-miterlimit:4;stroke-opacity:1;stroke-dasharray:none"
           id="path536"
           inkscape:connector-curvature="0" /><path
           inkscape:connector-curvature="0"
           id="path540"
           style="fill:#000000;fill-opacity:1;fill-rule:evenodd;stroke:#df5c24;stroke-width:0.80000001;stroke-miterlimit:4;stroke-dasharray:none"
           d="m 416.146,535.727 -0.859,0.855 0.859,-2.994 0.852,2.994 -0.852,-0.855" /><path
           inkscape:connector-curvature="0"
           id="path544"
           style="fill:none;stroke:#df5c24;stroke-width:0.80000001;stroke-linecap:butt;stroke-linejoin:miter;stroke-miterlimit:4;stroke-opacity:1;stroke-dasharray:none"
           d="m 416.146,535.727 -0.859,0.855 0.859,-2.994 0.852,2.994 -0.852,-0.855 z" /><path
           d="m 300.224,549.577 0,-11.04 11.043,0 c 0,-1.38 -0.088,-2.363 -0.044,-3.183 0.044,-0.819 0.044,-1.338 0.044,-1.338"
           style="fill:none;stroke:#df5c24;stroke-width:0.80000001;stroke-linecap:butt;stroke-linejoin:miter;stroke-miterlimit:4;stroke-opacity:1;stroke-dasharray:none"
           id="path620"
           inkscape:connector-curvature="0" /><path
           inkscape:connector-curvature="0"
           id="path624"
           style="fill:#000000;fill-opacity:1;fill-rule:evenodd;stroke:#df5c24;stroke-width:0.80000001;stroke-miterlimit:4;stroke-dasharray:none"
           d="m 311.267,535.727 -0.858,0.855 0.858,-2.994 0.852,2.994 -0.852,-0.855" /><path
           inkscape:connector-curvature="0"
           id="path628"
           style="fill:none;stroke:#df5c24;stroke-width:0.80000001;stroke-linecap:butt;stroke-linejoin:miter;stroke-miterlimit:4;stroke-opacity:1;stroke-dasharray:none"
           d="m 311.267,535.727 -0.858,0.855 0.858,-2.994 0.852,2.994 -0.852,-0.855 z" /><path
           d="m 333.344,549.577 0,-11.04 11.041,0 c 0,-1.38 -0.087,-2.363 -0.042,-3.183 0.042,-0.819 0.042,-1.338 0.042,-1.338"
           style="fill:none;stroke:#df5c24;stroke-width:0.80000001;stroke-linecap:butt;stroke-linejoin:miter;stroke-miterlimit:4;stroke-opacity:1;stroke-dasharray:none"
           id="path644"
           inkscape:connector-curvature="0" /><path
           inkscape:connector-curvature="0"
           id="path648"
           style="fill:#000000;fill-opacity:1;fill-rule:evenodd;stroke:#df5c24;stroke-width:0.80000001;stroke-miterlimit:4;stroke-dasharray:none"
           d="m 344.385,535.727 -0.857,0.855 0.857,-2.994 0.854,2.994 -0.854,-0.855" /><path
           inkscape:connector-curvature="0"
           id="path652"
           style="fill:none;stroke:#df5c24;stroke-width:0.80000001;stroke-linecap:butt;stroke-linejoin:miter;stroke-miterlimit:4;stroke-opacity:1;stroke-dasharray:none"
           d="m 344.385,535.727 -0.857,0.855 0.857,-2.994 0.854,2.994 -0.854,-0.855 z" /><path
           d="m 366.463,549.577 0,-11.04 11.042,0 c 0,-1.38 -0.087,-2.363 -0.044,-3.183 0.044,-0.819 0.044,-1.338 0.044,-1.338"
           style="fill:none;stroke:#df5c24;stroke-width:0.80000001;stroke-linecap:butt;stroke-linejoin:miter;stroke-miterlimit:4;stroke-opacity:1;stroke-dasharray:none"
           id="path656"
           inkscape:connector-curvature="0" /><path
           inkscape:connector-curvature="0"
           id="path660"
           style="fill:#000000;fill-opacity:1;fill-rule:evenodd;stroke:#df5c24;stroke-width:0.80000001;stroke-miterlimit:4;stroke-dasharray:none"
           d="m 377.505,535.727 -0.855,0.855 0.855,-2.994 0.853,2.994 -0.853,-0.855" /><path
           inkscape:connector-curvature="0"
           id="path664"
           style="fill:none;stroke:#df5c24;stroke-width:0.80000001;stroke-linecap:butt;stroke-linejoin:miter;stroke-miterlimit:4;stroke-opacity:1;stroke-dasharray:none"
           d="m 377.505,535.727 -0.855,0.855 0.855,-2.994 0.853,2.994 -0.853,-0.855 z" /><path
           d="m 399.585,549.577 0,-11.04 11.039,0 c 0,-1.38 -0.087,-2.363 -0.043,-3.183 0.043,-0.819 0.043,-1.338 0.043,-1.338"
           style="fill:none;stroke:#df5c24;stroke-width:0.80000001;stroke-linecap:butt;stroke-linejoin:miter;stroke-miterlimit:4;stroke-opacity:1;stroke-dasharray:none"
           id="path668"
           inkscape:connector-curvature="0" /><path
           inkscape:connector-curvature="0"
           id="path672"
           style="fill:#000000;fill-opacity:1;fill-rule:evenodd;stroke:#df5c24;stroke-width:0.80000001;stroke-miterlimit:4;stroke-dasharray:none"
           d="m 410.624,535.727 -0.856,0.855 0.856,-2.994 0.855,2.994 -0.855,-0.855" /><path
           inkscape:connector-curvature="0"
           id="path676"
           style="fill:none;stroke:#df5c24;stroke-width:0.80000001;stroke-linecap:butt;stroke-linejoin:miter;stroke-miterlimit:4;stroke-opacity:1;stroke-dasharray:none"
           d="m 410.624,535.727 -0.856,0.855 0.856,-2.994 0.855,2.994 -0.855,-0.855 z" /></g><path
         inkscape:connector-curvature="0"
         id="path3106"
         style="fill:none;stroke:#df5c24;stroke-width:0.80000001;stroke-miterlimit:4;stroke-dasharray:none"
         d="m 416.1422,465.646 -0.856,0.857 0.856,-2.993 0.855,2.993 -0.855,-0.857" /></g><path
       d="m 407.863,473.978 11.04,0 0,11.038 -11.04,0 0,-11.038 z"
       style="fill:#059748;fill-opacity:1;fill-rule:nonzero;stroke:none"
       id="path678"
       inkscape:connector-curvature="0" /><path
       d="m 374.744,473.978 11.041,0 0,11.038 -11.041,0 0,-11.038 z"
       style="fill:#059748;fill-opacity:1;fill-rule:nonzero;stroke:none"
       id="path694"
       inkscape:connector-curvature="0" /><path
       d="m 341.625,473.978 11.04,0 0,11.038 -11.04,0 0,-11.038 z"
       style="fill:#059748;fill-opacity:1;fill-rule:nonzero;stroke:none"
       id="path698"
       inkscape:connector-curvature="0" /><path
       d="m 308.505,473.978 11.039,0 0,11.038 -11.039,0 0,-11.038 z"
       style="fill:#059748;fill-opacity:1;fill-rule:nonzero;stroke:none"
       id="path702"
       inkscape:connector-curvature="0" /><path
       d="m 341.625,451.896 11.04,0 0,11.042 -11.04,0 0,-11.042 z"
       style="fill:#059748;fill-opacity:1;fill-rule:nonzero;stroke:none"
       id="path706"
       inkscape:connector-curvature="0" /><path
       inkscape:connector-curvature="0"
       id="path724"
       style="fill:#88bde6;stroke:none"
       d="m 408.68922,440.33544 c 1.105,1.104 1.935,0.827 4.695,0.827 2.757,0 3.588,0.277 4.689,-0.827 1.108,-1.106 0.829,-1.932 0.829,-4.692 0,-2.762 0.279,-3.588 -0.829,-4.693 -1.101,-1.103 -1.932,-0.827 -4.689,-0.827 -2.76,0 -3.59,-0.276 -4.695,0.827 -1.102,1.105 -0.826,1.931 -0.826,4.693 0,2.76 -0.276,3.586 0.826,4.692 z" /><g
       id="g3100"
       transform="translate(-0.33003,0)"><path
         sodipodi:nodetypes="cc"
         inkscape:connector-curvature="0"
         id="path524-5"
         style="fill:none;stroke:#df5c24;stroke-width:0.80000001;stroke-linecap:butt;stroke-linejoin:miter;stroke-miterlimit:4;stroke-opacity:1;stroke-dasharray:none"
         d="m 413.71503,451.93593 0,-8.85744" /><path
         d="m 413.71503,444.12325 -0.856,0.855 0.856,-2.994 0.852,2.994 -0.852,-0.855 z"
         style="fill:none;stroke:#df5c24;stroke-width:0.80000001;stroke-linecap:butt;stroke-linejoin:miter;stroke-miterlimit:4;stroke-opacity:1;stroke-dasharray:none"
         id="path532-4"
         inkscape:connector-curvature="0" /></g><path
       d="m 342.45122,440.33544 c 1.105,1.104 1.935,0.827 4.695,0.827 2.757,0 3.588,0.277 4.689,-0.827 1.108,-1.106 0.829,-1.932 0.829,-4.692 0,-2.762 0.279,-3.588 -0.829,-4.693 -1.101,-1.103 -1.932,-0.827 -4.689,-0.827 -2.76,0 -3.59,-0.276 -4.695,0.827 -1.102,1.105 -0.826,1.931 -0.826,4.693 0,2.76 -0.276,3.586 0.826,4.692 z"
       style="fill:#88bde6;stroke:none"
       id="path3108"
       inkscape:connector-curvature="0" /><g
       transform="translate(-66.56803,0)"
       id="g3110"><path
         d="m 413.71503,451.93593 0,-8.85744"
         style="fill:none;stroke:#df5c24;stroke-width:0.80000001;stroke-linecap:butt;stroke-linejoin:miter;stroke-miterlimit:4;stroke-opacity:1;stroke-dasharray:none"
         id="path3112"
         inkscape:connector-curvature="0"
         sodipodi:nodetypes="cc" /><path
         inkscape:connector-curvature="0"
         id="path3114"
         style="fill:none;stroke:#df5c24;stroke-width:0.80000001;stroke-linecap:butt;stroke-linejoin:miter;stroke-miterlimit:4;stroke-opacity:1;stroke-dasharray:none"
         d="m 413.71503,444.12325 -0.856,0.855 0.856,-2.994 0.852,2.994 -0.852,-0.855 z" /></g></g></svg>