<?xml version="1.0" encoding="UTF-8" standalone="no"?>
<!-- Created with Inkscape (http://www.inkscape.org/) -->

<svg
   xmlns:dc="http://purl.org/dc/elements/1.1/"
   xmlns:cc="http://creativecommons.org/ns#"
   xmlns:rdf="http://www.w3.org/1999/02/22-rdf-syntax-ns#"
   xmlns:svg="http://www.w3.org/2000/svg"
   xmlns="http://www.w3.org/2000/svg"
   xmlns:sodipodi="http://sodipodi.sourceforge.net/DTD/sodipodi-0.dtd"
   xmlns:inkscape="http://www.inkscape.org/namespaces/inkscape"
   id="svg2"
   version="1.1"
   inkscape:version="0.48.4 r9939"
   width="186.62267"
   height="124.99696"
   xml:space="preserve"
   sodipodi:docname="conflict_net.svg"><metadata
     id="metadata8"><rdf:RDF><cc:Work
         rdf:about=""><dc:format>image/svg+xml</dc:format><dc:type
           rdf:resource="http://purl.org/dc/dcmitype/StillImage" /><dc:title /></cc:Work></rdf:RDF></metadata><defs
     id="defs6" /><sodipodi:namedview
     pagecolor="#ffffff"
     bordercolor="#666666"
     borderopacity="1"
     objecttolerance="10"
     gridtolerance="10"
     guidetolerance="10"
     inkscape:pageopacity="0"
     inkscape:pageshadow="2"
     inkscape:window-width="1855"
     inkscape:window-height="1056"
     id="namedview4"
     showgrid="false"
     inkscape:zoom="2.6970052"
     inkscape:cx="-18.533138"
     inkscape:cy="64.065128"
     inkscape:window-x="1985"
     inkscape:window-y="24"
     inkscape:window-maximized="1"
     inkscape:current-layer="g5421"
     fit-margin-top="0"
     fit-margin-left="0"
     fit-margin-right="0"
     fit-margin-bottom="0" /><g
     id="g10"
     inkscape:groupmode="layer"
     inkscape:label="todaes2011_parallel_place"
     transform="matrix(1.25,0,0,-1.25,-353.81675,800.0132)"><g
       id="g5421"><g
         id="g5936"
         transform="matrix(0,-1.9428793,1.9428793,0,-708.66505,1247.4032)"><path
           d="m 317.22,515.041 42.27,0 0,67.63 -42.27,0 0,-67.63 z"
           style="fill:#90cd97;fill-opacity:1;fill-rule:nonzero;stroke:none"
           id="path828"
           inkscape:connector-curvature="0" /><path
           d="m 317.21905,515.0405 8.4599,0 0,16.91 -8.4599,0 0,-16.91 z"
           style="fill:none;stroke:#265dab;stroke-width:1.27999997;stroke-linecap:butt;stroke-linejoin:miter;stroke-miterlimit:4;stroke-opacity:1;stroke-dasharray:1.28, 1.28;stroke-dashoffset:0"
           id="path4278"
           inkscape:connector-curvature="0" /><path
           inkscape:connector-curvature="0"
           id="path4274"
           style="fill:none;stroke:#265dab;stroke-width:1.27999997;stroke-linecap:butt;stroke-linejoin:miter;stroke-miterlimit:4;stroke-opacity:1;stroke-dasharray:1.28, 1.28;stroke-dashoffset:0"
           d="m 351.03405,565.761 8.4599,0 0,16.91 -8.4599,0 0,-16.91 z" /><path
           d="m 313,510.811 50.72,0 0,76.09 -50.72,0 0,-76.09 z"
           style="fill:none;stroke:#fbb258;stroke-width:0.74000001;stroke-linecap:butt;stroke-linejoin:miter;stroke-miterlimit:4;stroke-opacity:1;stroke-dasharray:none"
           id="path830"
           inkscape:connector-curvature="0" /><g
           style="stroke:#fbb258"
           id="g832"
           transform="translate(313,561.541)"><path
             d="M 0,0 50.72,0"
             style="fill:none;stroke:#fbb258;stroke-width:0.75;stroke-linecap:butt;stroke-linejoin:miter;stroke-miterlimit:4;stroke-opacity:1;stroke-dasharray:none"
             id="path834"
             inkscape:connector-curvature="0" /><g
             style="stroke:#fbb258"
             id="g836"
             transform="translate(0,-25.37)"><path
               d="M 0,0 50.72,0"
               style="fill:none;stroke:#fbb258;stroke-width:0.75;stroke-linecap:butt;stroke-linejoin:miter;stroke-miterlimit:4;stroke-opacity:1;stroke-dasharray:none"
               id="path838"
               inkscape:connector-curvature="0" /><g
               style="stroke:#fbb258"
               id="g840"
               transform="translate(16.9,50.73)"><path
                 d="M 0,0 0,-76.09"
                 style="fill:none;stroke:#fbb258;stroke-width:0.75;stroke-linecap:butt;stroke-linejoin:miter;stroke-miterlimit:4;stroke-opacity:1;stroke-dasharray:none"
                 id="path842"
                 inkscape:connector-curvature="0" /><g
                 style="stroke:#fbb258"
                 id="g844"
                 transform="translate(16.909,0)"><path
                   d="M 0,0 0,-76.09"
                   style="fill:none;stroke:#fbb258;stroke-width:0.75;stroke-linecap:butt;stroke-linejoin:miter;stroke-miterlimit:4;stroke-opacity:1;stroke-dasharray:none"
                   id="path846"
                   inkscape:connector-curvature="0" /></g></g></g></g><path
           d="m 317.22,540.401 8.4599,0 0,16.91 -8.4599,0 0,-16.91 z"
           style="fill:#88bde6;fill-opacity:1;fill-rule:nonzero;stroke:none"
           id="path848"
           inkscape:connector-curvature="0" /><path
           d="m 317.22,540.401 8.4599,0 0,16.91 -8.4599,0 0,-16.91 z"
           style="fill:none;stroke:#265dab;stroke-width:0.74000001;stroke-linecap:butt;stroke-linejoin:miter;stroke-miterlimit:4;stroke-opacity:1;stroke-dasharray:none"
           id="path850"
           inkscape:connector-curvature="0" /><path
           d="m 351.04,515.041 8.4502,0 0,16.91 -8.4502,0 0,-16.91 z"
           style="fill:#88bde6;fill-opacity:1;fill-rule:nonzero;stroke:none"
           id="path852"
           inkscape:connector-curvature="0" /><path
           inkscape:connector-curvature="0"
           id="path856"
           style="fill:none;stroke:#265dab;stroke-width:0.74000001;stroke-linecap:butt;stroke-linejoin:miter;stroke-miterlimit:4;stroke-opacity:1;stroke-dasharray:none"
           d="m 351.04,515.041 8.4502,0 0,16.91 -8.4502,0 0,-16.91 z" /><g
           style="fill:#e5126f;stroke:#e5126f"
           transform="translate(-48,0)"
           id="g4280"><g
             style="fill:#e5126f;stroke:#e5126f"
             transform="translate(373.68,574.221)"
             id="g950"><path
               inkscape:connector-curvature="0"
               id="path952"
               style="fill:#e5126f;stroke:#e5126f;stroke-width:0.75;stroke-linecap:butt;stroke-linejoin:miter;stroke-miterlimit:4;stroke-opacity:1;stroke-dasharray:none"
               d="M 0,0 25.36,0" /></g><g
             style="fill:#e5126f;stroke:#e5126f"
             transform="translate(391.519,574.221)"
             id="g954"><path
               inkscape:connector-curvature="0"
               id="path956"
               style="fill:#e5126f;fill-opacity:1;fill-rule:evenodd;stroke:#e5126f"
               d="M 0,0 -3,-3.01 7.521,0 -3,3 0,0" /></g><g
             style="fill:#e5126f;stroke:#e5126f"
             transform="translate(391.519,574.221)"
             id="g958"><path
               inkscape:connector-curvature="0"
               id="path960"
               style="fill:#e5126f;stroke:#e5126f;stroke-width:0.75;stroke-linecap:butt;stroke-linejoin:miter;stroke-miterlimit:4;stroke-opacity:1;stroke-dasharray:none"
               d="M 0,0 -3,-3.01 7.521,0 -3,3 0,0 z" /><g
               style="fill:#e5126f;stroke:#e5126f"
               transform="translate(7.521,-50.729)"
               id="g962"><path
                 inkscape:connector-curvature="0"
                 id="path964"
                 style="fill:#e5126f;stroke:#e5126f;stroke-width:0.75;stroke-linecap:butt;stroke-linejoin:miter;stroke-miterlimit:4;stroke-opacity:1;stroke-dasharray:none"
                 d="M 0,0 -25.36,0" /></g></g><g
             style="fill:#e5126f;stroke:#e5126f"
             transform="translate(381.19,523.491)"
             id="g966"><path
               inkscape:connector-curvature="0"
               id="path968"
               style="fill:#e5126f;fill-opacity:1;fill-rule:evenodd;stroke:#e5126f"
               d="M 0,0 3.01,3.01 -7.511,0 3.01,-3 0,0" /></g><g
             style="fill:#e5126f;stroke:#e5126f"
             transform="translate(381.19,523.491)"
             id="g970"><path
               inkscape:connector-curvature="0"
               id="path972"
               style="fill:#e5126f;stroke:#e5126f;stroke-width:0.75;stroke-linecap:butt;stroke-linejoin:miter;stroke-miterlimit:4;stroke-opacity:1;stroke-dasharray:none"
               d="M 0,0 3.01,3.01 -7.511,0 3.01,-3 0,0 z" /></g></g><path
           d="m 317.22,565.761 8.4599,0 0,16.91 -8.4599,0 0,-16.91 z"
           style="fill:#88bde6;fill-opacity:1;fill-rule:nonzero;stroke:none"
           id="path974"
           inkscape:connector-curvature="0" /><path
           d="m 317.22,565.761 8.4599,0 0,16.91 -8.4599,0 0,-16.91 z"
           style="fill:none;stroke:#265dab;stroke-width:0.74000001;stroke-linecap:butt;stroke-linejoin:miter;stroke-miterlimit:4;stroke-opacity:1;stroke-dasharray:none"
           id="path976"
           inkscape:connector-curvature="0" /><g
           style="stroke:#059748"
           id="g978"
           transform="translate(325.68,548.862)"><path
             d="m 0,0 8.45,0 4.231,4.219 0,16.91 -12.681,0"
             style="fill:none;stroke:#059748;stroke-width:0.75;stroke-linecap:butt;stroke-linejoin:miter;stroke-miterlimit:4;stroke-opacity:1;stroke-dasharray:none"
             id="path980"
             inkscape:connector-curvature="0" /></g><g
           id="g982"
           transform="translate(327.15,548.862)"><path
             d="m 0,0 c 0,-0.83 -0.671,-1.511 -1.5,-1.511 -0.83,0 -1.511,0.681 -1.511,1.511 0,0.819 0.681,1.5 1.511,1.5 C -0.671,1.5 0,0.819 0,0"
             style="fill:#000000;fill-opacity:1;fill-rule:evenodd;stroke:none"
             id="path984"
             inkscape:connector-curvature="0" /></g><g
           style="fill:#60bd68"
           id="g986"
           transform="translate(327.15,548.862)"><path
             d="m 0,0 c 0,-0.83 -0.671,-1.511 -1.5,-1.511 -0.83,0 -1.511,0.681 -1.511,1.511 0,0.819 0.681,1.5 1.511,1.5 C -0.671,1.5 0,0.819 0,0 z"
             style="fill:#60bd68;stroke:#000000;stroke-width:0.37;stroke-linecap:butt;stroke-linejoin:miter;stroke-miterlimit:4;stroke-opacity:1;stroke-dasharray:none"
             id="path988"
             inkscape:connector-curvature="0" /></g><g
           id="g990"
           transform="translate(324.21,569.991)"><path
             d="M 0,0 C 0,0.83 0.67,1.5 1.5,1.5 2.33,1.5 3,0.83 3,0 3,-0.83 2.33,-1.5 1.5,-1.5 0.67,-1.5 0,-0.83 0,0"
             style="fill:#000000;fill-opacity:1;fill-rule:evenodd;stroke:none"
             id="path992"
             inkscape:connector-curvature="0" /></g><g
           style="fill:#60bd68"
           id="g994"
           transform="translate(324.21,569.991)"><path
             d="M 0,0 C 0,0.83 0.67,1.5 1.5,1.5 2.33,1.5 3,0.83 3,0 3,-0.83 2.33,-1.5 1.5,-1.5 0.67,-1.5 0,-0.83 0,0 z"
             style="fill:#60bd68;stroke:#000000;stroke-width:0.37;stroke-linecap:butt;stroke-linejoin:miter;stroke-miterlimit:4;stroke-opacity:1;stroke-dasharray:none"
             id="path996"
             inkscape:connector-curvature="0" /></g><g
           style="stroke:#059748"
           id="g998"
           transform="translate(351.04,527.721)"><path
             d="m 0,0 -12.68,0 0,16.91 -4.23,4.231"
             style="fill:none;stroke:#059748;stroke-width:0.75;stroke-linecap:butt;stroke-linejoin:miter;stroke-miterlimit:4;stroke-opacity:1;stroke-dasharray:none"
             id="path1000"
             inkscape:connector-curvature="0" /></g><g
           id="g1002"
           transform="translate(349.57,527.721)"><path
             d="M 0,0 C 0,0.83 0.67,1.51 1.5,1.51 2.33,1.51 3,0.83 3,0 3,-0.83 2.33,-1.5 1.5,-1.5 0.67,-1.5 0,-0.83 0,0"
             style="fill:#000000;fill-opacity:1;fill-rule:evenodd;stroke:none"
             id="path1004"
             inkscape:connector-curvature="0" /></g><g
           style="fill:#60bd68"
           id="g1006"
           transform="translate(349.57,527.721)"><path
             d="M 0,0 C 0,0.83 0.67,1.51 1.5,1.51 2.33,1.51 3,0.83 3,0 3,-0.83 2.33,-1.5 1.5,-1.5 0.67,-1.5 0,-0.83 0,0 z"
             style="fill:#60bd68;stroke:#000000;stroke-width:0.37;stroke-linecap:butt;stroke-linejoin:miter;stroke-miterlimit:4;stroke-opacity:1;stroke-dasharray:none"
             id="path1008"
             inkscape:connector-curvature="0" /></g><g
           id="g1010"
           transform="translate(333.09,549.901)"><path
             d="m 0,0 c 0.59,0.58 1.54,0.58 2.12,0 0.59,-0.59 0.59,-1.54 0,-2.13 C 1.54,-2.71 0.59,-2.71 0,-2.13 -0.59,-1.54 -0.59,-0.59 0,0"
             style="fill:#000000;fill-opacity:1;fill-rule:evenodd;stroke:none"
             id="path1012"
             inkscape:connector-curvature="0" /></g><g
           style="fill:#60bd68"
           id="g1014"
           transform="translate(333.09,549.901)"><path
             d="m 0,0 c 0.59,0.58 1.54,0.59 2.12,0 0.59,-0.59 0.59,-1.54 0,-2.13 C 1.54,-2.71 0.59,-2.71 0,-2.13 -0.59,-1.54 -0.59,-0.59 0,0 z"
             style="fill:#60bd68;stroke:#000000;stroke-width:0.37;stroke-linecap:butt;stroke-linejoin:miter;stroke-miterlimit:4;stroke-opacity:1;stroke-dasharray:none"
             id="path1016"
             inkscape:connector-curvature="0" /></g></g></g></g></svg>