<svg xmlns:dc="http://purl.org/dc/elements/1.1/" xmlns:cc="http://creativecommons.org/ns#" xmlns:rdf="http://www.w3.org/1999/02/22-rdf-syntax-ns#" xmlns:svg="http://www.w3.org/2000/svg" xmlns="http://www.w3.org/2000/svg" xmlns:xlink="http://www.w3.org/1999/xlink" xmlns:sodipodi="http://sodipodi.sourceforge.net/DTD/sodipodi-0.dtd" xmlns:inkscape="http://www.inkscape.org/namespaces/inkscape" height="354.09494" version="1.1" viewBox="0 0 262.01885 283.27595" width="327.52356" id="svg5638" inkscape:version="0.48.4 r9939" sodipodi:docname="netlist.svg">
  <metadata id="metadata6017">
    <rdf:RDF>
      <cc:Work rdf:about="">
        <dc:format>image/svg+xml</dc:format>
        <dc:type rdf:resource="http://purl.org/dc/dcmitype/StillImage"/>
      </cc:Work>
    </rdf:RDF>
  </metadata>
  <sodipodi:namedview pagecolor="#ffffff" bordercolor="#666666" borderopacity="1" objecttolerance="10" gridtolerance="10" guidetolerance="10" inkscape:pageopacity="0" inkscape:pageshadow="2" inkscape:window-width="927" inkscape:window-height="1028" id="namedview6015" showgrid="false" fit-margin-top="0" fit-margin-left="0" fit-margin-right="0" fit-margin-bottom="0" inkscape:zoom="1.7481481" inkscape:cx="184.54856" inkscape:cy="203.66146" inkscape:window-x="2912" inkscape:window-y="24" inkscape:window-maximized="0" inkscape:current-layer="axes_1"/>
  <defs id="defs5640" style="stroke-linecap:butt;stroke-linejoin:round">
    <style type="text/css" id="style5642">
*{stroke-linecap:butt;stroke-linejoin:round;}
  </style>
    <defs id="defs5828">
      <path style="stroke-linecap:butt;stroke-linejoin:round" inkscape:connector-curvature="0" id="C2_0_41f499cd02" d="m -11.1803,11.1803 22.3606,0 0,-22.3606 -22.3606,0 z"/>
    </defs>
    <clipPath id="p7b0b5c6bc8-1">
      <rect height="334.79999" width="334.79999" x="54" y="43.200001" id="rect6013-5" style="stroke-linecap:butt;stroke-linejoin:round"/>
    </clipPath>
    <clipPath id="clipPath6971">
      <rect height="334.79999" width="334.79999" x="54" y="43.200001" id="rect6973" style="stroke-linecap:butt;stroke-linejoin:round"/>
    </clipPath>
  </defs>
  <g id="figure_1" style="stroke-linecap:butt;stroke-linejoin:round" transform="translate(-90.390586,-68.962013)">
    <g id="axes_1" style="stroke-linecap:butt;stroke-linejoin:round">
      <g id="nets">
        <g style="stroke-linecap:butt;stroke-linejoin:round" id="matplotlib.axis_1"/>
        <g style="stroke-linecap:butt;stroke-linejoin:round" id="matplotlib.axis_2"/>
        <g style="stroke-linecap:butt;stroke-linejoin:round" id="LineCollection_1">
          <defs id="defs5652">
            <path style="stroke-linecap:butt;stroke-linejoin:round" inkscape:connector-curvature="0" id="C0_0_21968f3d18" d="m 149.657,-351.6 143.486,186"/>
            <path style="stroke-linecap:butt;stroke-linejoin:round" inkscape:connector-curvature="0" id="C0_1_0104e9d682" d="m 149.657,-351.6 143.486,37.2"/>
            <path style="stroke-linecap:butt;stroke-linejoin:round" inkscape:connector-curvature="0" id="C0_2_e3cc1c878b" d="M 149.657,-351.6 197.486,-240"/>
            <path style="stroke-linecap:butt;stroke-linejoin:round" inkscape:connector-curvature="0" id="C0_3_630061648e" d="m 149.657,-351.6 0,37.2"/>
            <path style="stroke-linecap:butt;stroke-linejoin:round" inkscape:connector-curvature="0" id="C0_4_e463d5099a" d="M 293.143,-351.6 197.486,-240"/>
            <path style="stroke-linecap:butt;stroke-linejoin:round" inkscape:connector-curvature="0" id="C0_5_ecded0e0f5" d="m 293.143,-351.6 -143.486,37.2"/>
            <path style="stroke-linecap:butt;stroke-linejoin:round" inkscape:connector-curvature="0" id="C0_6_06d0295151" d="m 293.143,-314.4 -95.657,111.6"/>
            <path style="stroke-linecap:butt;stroke-linejoin:round" inkscape:connector-curvature="0" id="C0_7_acd1086737" d="m 197.486,-240 0,37.2"/>
            <path style="stroke-linecap:butt;stroke-linejoin:round" inkscape:connector-curvature="0" id="C0_8_cd66202f34" d="m 197.486,-240 -95.657,37.2"/>
            <path style="stroke-linecap:butt;stroke-linejoin:round" inkscape:connector-curvature="0" id="C0_9_c0fe579a4f" d="m 149.657,-314.4 191.314,37.2"/>
            <path style="stroke-linecap:butt;stroke-linejoin:round" inkscape:connector-curvature="0" id="C0_a_277dd0372a" d="m 197.486,-202.8 95.657,37.2"/>
            <path style="stroke-linecap:butt;stroke-linejoin:round" inkscape:connector-curvature="0" id="C0_b_50306b3704" d="m 101.829,-202.8 95.657,37.2"/>
            <path style="stroke-linecap:butt;stroke-linejoin:round" inkscape:connector-curvature="0" id="C0_c_48ecbc331d" d="m 101.829,-202.8 95.657,111.6"/>
            <path style="stroke-linecap:butt;stroke-linejoin:round" inkscape:connector-curvature="0" id="C0_d_4badd4f6c5" d="M 340.971,-277.2 197.486,-165.6"/>
            <path style="stroke-linecap:butt;stroke-linejoin:round" inkscape:connector-curvature="0" id="C0_e_78dce1fa74" d="M 340.971,-277.2 197.486,-240"/>
            <path style="stroke-linecap:butt;stroke-linejoin:round" inkscape:connector-curvature="0" id="C0_f_db47eed823" d="m 293.143,-165.6 -47.829,74.4"/>
            <path style="stroke-linecap:butt;stroke-linejoin:round" inkscape:connector-curvature="0" id="C0_10_9eec6c24ad" d="m 197.486,-165.6 95.657,74.4"/>
          </defs>
          <g style="stroke-linecap:butt;stroke-linejoin:round" id="g5671" clip-path="url(#p7b0b5c6bc8)">
            <use height="432" width="432" id="use5673" y="432" xlink:href="#C0_0_21968f3d18" x="0" style="fill:none;stroke:#000000;stroke-linecap:butt;stroke-linejoin:round"/>
          </g>
          <g style="stroke-linecap:butt;stroke-linejoin:round" id="g5675" clip-path="url(#p7b0b5c6bc8)">
            <use height="432" width="432" id="use5677" y="432" xlink:href="#C0_1_0104e9d682" x="0" style="fill:none;stroke:#000000;stroke-linecap:butt;stroke-linejoin:round"/>
          </g>
          <g style="stroke-linecap:butt;stroke-linejoin:round" id="g5679" clip-path="url(#p7b0b5c6bc8)">
            <use height="432" width="432" id="use5681" y="432" xlink:href="#C0_2_e3cc1c878b" x="0" style="fill:none;stroke:#000000;stroke-linecap:butt;stroke-linejoin:round"/>
          </g>
          <g style="stroke-linecap:butt;stroke-linejoin:round" id="g5683" clip-path="url(#p7b0b5c6bc8)">
            <use height="432" width="432" id="use5685" y="432" xlink:href="#C0_3_630061648e" x="0" style="fill:none;stroke:#000000;stroke-linecap:butt;stroke-linejoin:round"/>
          </g>
          <g style="stroke-linecap:butt;stroke-linejoin:round" id="g5687" clip-path="url(#p7b0b5c6bc8)">
            <use height="432" width="432" id="use5689" y="432" xlink:href="#C0_4_e463d5099a" x="0" style="fill:none;stroke:#000000;stroke-linecap:butt;stroke-linejoin:round"/>
          </g>
          <g style="stroke-linecap:butt;stroke-linejoin:round" id="g5691" clip-path="url(#p7b0b5c6bc8)">
            <use height="432" width="432" id="use5693" y="432" xlink:href="#C0_5_ecded0e0f5" x="0" style="fill:none;stroke:#000000;stroke-linecap:butt;stroke-linejoin:round"/>
          </g>
          <g style="stroke-linecap:butt;stroke-linejoin:round" id="g5695" clip-path="url(#p7b0b5c6bc8)">
            <use height="432" width="432" id="use5697" y="432" xlink:href="#C0_6_06d0295151" x="0" style="fill:none;stroke:#000000;stroke-linecap:butt;stroke-linejoin:round"/>
          </g>
          <g style="stroke-linecap:butt;stroke-linejoin:round" id="g5699" clip-path="url(#p7b0b5c6bc8)">
            <use height="432" width="432" id="use5701" y="432" xlink:href="#C0_7_acd1086737" x="0" style="fill:none;stroke:#000000;stroke-linecap:butt;stroke-linejoin:round"/>
          </g>
          <g style="stroke-linecap:butt;stroke-linejoin:round" id="g5703" clip-path="url(#p7b0b5c6bc8)">
            <use height="432" width="432" id="use5705" y="432" xlink:href="#C0_8_cd66202f34" x="0" style="fill:none;stroke:#000000;stroke-linecap:butt;stroke-linejoin:round"/>
          </g>
          <g style="stroke-linecap:butt;stroke-linejoin:round" id="g5707" clip-path="url(#p7b0b5c6bc8)">
            <use height="432" width="432" id="use5709" y="432" xlink:href="#C0_9_c0fe579a4f" x="0" style="fill:none;stroke:#000000;stroke-linecap:butt;stroke-linejoin:round"/>
          </g>
          <g style="stroke-linecap:butt;stroke-linejoin:round" id="g5711" clip-path="url(#p7b0b5c6bc8)">
            <use height="432" width="432" id="use5713" y="432" xlink:href="#C0_a_277dd0372a" x="0" style="fill:none;stroke:#000000;stroke-linecap:butt;stroke-linejoin:round"/>
          </g>
          <g style="stroke-linecap:butt;stroke-linejoin:round" id="g5715" clip-path="url(#p7b0b5c6bc8)">
            <use height="432" width="432" id="use5717" y="432" xlink:href="#C0_b_50306b3704" x="0" style="fill:none;stroke:#000000;stroke-linecap:butt;stroke-linejoin:round"/>
          </g>
          <g style="stroke-linecap:butt;stroke-linejoin:round" id="g5719" clip-path="url(#p7b0b5c6bc8)">
            <use height="432" width="432" id="use5721" y="432" xlink:href="#C0_c_48ecbc331d" x="0" style="fill:none;stroke:#000000;stroke-linecap:butt;stroke-linejoin:round"/>
          </g>
          <g style="stroke-linecap:butt;stroke-linejoin:round" id="g5723" clip-path="url(#p7b0b5c6bc8)">
            <use height="432" width="432" id="use5725" y="432" xlink:href="#C0_d_4badd4f6c5" x="0" style="fill:none;stroke:#000000;stroke-linecap:butt;stroke-linejoin:round"/>
          </g>
          <g style="stroke-linecap:butt;stroke-linejoin:round" id="g5727" clip-path="url(#p7b0b5c6bc8)">
            <use height="432" width="432" id="use5729" y="432" xlink:href="#C0_e_78dce1fa74" x="0" style="fill:none;stroke:#000000;stroke-linecap:butt;stroke-linejoin:round"/>
          </g>
          <g style="stroke-linecap:butt;stroke-linejoin:round" id="g5731" clip-path="url(#p7b0b5c6bc8)">
            <use height="432" width="432" id="use5733" y="432" xlink:href="#C0_f_db47eed823" x="0" style="fill:none;stroke:#000000;stroke-linecap:butt;stroke-linejoin:round"/>
          </g>
          <g style="stroke-linecap:butt;stroke-linejoin:round" id="g5735" clip-path="url(#p7b0b5c6bc8)">
            <use height="432" width="432" id="use5737" y="432" xlink:href="#C0_10_9eec6c24ad" x="0" style="fill:none;stroke:#000000;stroke-linecap:butt;stroke-linejoin:round"/>
          </g>
        </g>
        <g style="stroke-linecap:butt;stroke-linejoin:round" id="LineCollection_2">
          <defs id="defs5740">
            <path style="stroke-linecap:butt;stroke-linejoin:round" inkscape:connector-curvature="0" id="C1_0_92a8c7ecc4" d="m 257.271,-212.1 35.872,46.5"/>
            <path style="stroke-linecap:butt;stroke-linejoin:round" inkscape:connector-curvature="0" id="C1_1_fbd18937c4" d="m 257.271,-323.7 35.872,9.3"/>
            <path style="stroke-linecap:butt;stroke-linejoin:round" inkscape:connector-curvature="0" id="C1_2_83d159ce16" d="m 185.529,-267.9 11.957,27.9"/>
            <path style="stroke-linecap:butt;stroke-linejoin:round" inkscape:connector-curvature="0" id="C1_3_6a292bb28d" d="m 149.657,-323.7 0,9.3"/>
            <path style="stroke-linecap:butt;stroke-linejoin:round" inkscape:connector-curvature="0" id="C1_4_a0115d4454" d="M 221.4,-267.9 197.486,-240"/>
            <path style="stroke-linecap:butt;stroke-linejoin:round" inkscape:connector-curvature="0" id="C1_5_4615d17fc6" d="m 185.529,-323.7 -35.872,9.3"/>
            <path style="stroke-linecap:butt;stroke-linejoin:round" inkscape:connector-curvature="0" id="C1_6_00cfa39bcd" d="m 221.4,-230.7 -23.914,27.9"/>
            <path style="stroke-linecap:butt;stroke-linejoin:round" inkscape:connector-curvature="0" id="C1_7_83d4dd4b27" d="m 197.486,-212.1 0,9.3"/>
            <path style="stroke-linecap:butt;stroke-linejoin:round" inkscape:connector-curvature="0" id="C1_8_e9a858cf3e" d="m 125.743,-212.1 -23.914,9.3"/>
            <path style="stroke-linecap:butt;stroke-linejoin:round" inkscape:connector-curvature="0" id="C1_9_af0a66c692" d="m 293.143,-286.5 47.828,9.3"/>
            <path style="stroke-linecap:butt;stroke-linejoin:round" inkscape:connector-curvature="0" id="C1_a_617d8f2b20" d="m 269.229,-174.9 23.914,9.3"/>
            <path style="stroke-linecap:butt;stroke-linejoin:round" inkscape:connector-curvature="0" id="C1_b_03fd83eabb" d="m 173.571,-174.9 23.915,9.3"/>
            <path style="stroke-linecap:butt;stroke-linejoin:round" inkscape:connector-curvature="0" id="C1_c_ddbaee9172" d="m 173.571,-119.1 23.915,27.9"/>
            <path style="stroke-linecap:butt;stroke-linejoin:round" inkscape:connector-curvature="0" id="C1_d_9b11ea21a0" d="m 233.357,-193.5 -35.871,27.9"/>
            <path style="stroke-linecap:butt;stroke-linejoin:round" inkscape:connector-curvature="0" id="C1_e_9d1836b6d1" d="m 233.357,-249.3 -35.871,9.3"/>
            <path style="stroke-linecap:butt;stroke-linejoin:round" inkscape:connector-curvature="0" id="C1_f_296bc01a41" d="m 257.271,-109.8 -11.957,18.6"/>
            <path style="stroke-linecap:butt;stroke-linejoin:round" inkscape:connector-curvature="0" id="C1_10_deb9023184" d="m 269.229,-109.8 23.914,18.6"/>
          </defs>
          <g style="stroke-linecap:butt;stroke-linejoin:round" id="g5759" clip-path="url(#p7b0b5c6bc8)">
            <use height="432" width="432" id="use5761" y="432" xlink:href="#C1_0_92a8c7ecc4" x="0" style="fill:none;stroke:#000000;stroke-width:4;stroke-linecap:butt;stroke-linejoin:round"/>
          </g>
          <g style="stroke-linecap:butt;stroke-linejoin:round" id="g5763" clip-path="url(#p7b0b5c6bc8)">
            <use height="432" width="432" id="use5765" y="432" xlink:href="#C1_1_fbd18937c4" x="0" style="fill:none;stroke:#000000;stroke-width:4;stroke-linecap:butt;stroke-linejoin:round"/>
          </g>
          <g style="stroke-linecap:butt;stroke-linejoin:round" id="g5767" clip-path="url(#p7b0b5c6bc8)">
            <use height="432" width="432" id="use5769" y="432" xlink:href="#C1_2_83d159ce16" x="0" style="fill:none;stroke:#000000;stroke-width:4;stroke-linecap:butt;stroke-linejoin:round"/>
          </g>
          <g style="stroke-linecap:butt;stroke-linejoin:round" id="g5771" clip-path="url(#p7b0b5c6bc8)">
            <use height="432" width="432" id="use5773" y="432" xlink:href="#C1_3_6a292bb28d" x="0" style="fill:none;stroke:#000000;stroke-width:4;stroke-linecap:butt;stroke-linejoin:round"/>
          </g>
          <g style="stroke-linecap:butt;stroke-linejoin:round" id="g5775" clip-path="url(#p7b0b5c6bc8)">
            <use height="432" width="432" id="use5777" y="432" xlink:href="#C1_4_a0115d4454" x="0" style="fill:none;stroke:#000000;stroke-width:4;stroke-linecap:butt;stroke-linejoin:round"/>
          </g>
          <g style="stroke-linecap:butt;stroke-linejoin:round" id="g5779" clip-path="url(#p7b0b5c6bc8)">
            <use height="432" width="432" id="use5781" y="432" xlink:href="#C1_5_4615d17fc6" x="0" style="fill:none;stroke:#000000;stroke-width:4;stroke-linecap:butt;stroke-linejoin:round"/>
          </g>
          <g style="stroke-linecap:butt;stroke-linejoin:round" id="g5783" clip-path="url(#p7b0b5c6bc8)">
            <use height="432" width="432" id="use5785" y="432" xlink:href="#C1_6_00cfa39bcd" x="0" style="fill:none;stroke:#000000;stroke-width:4;stroke-linecap:butt;stroke-linejoin:round"/>
          </g>
          <g style="stroke-linecap:butt;stroke-linejoin:round" id="g5787" clip-path="url(#p7b0b5c6bc8)">
            <use height="432" width="432" id="use5789" y="432" xlink:href="#C1_7_83d4dd4b27" x="0" style="fill:none;stroke:#000000;stroke-width:4;stroke-linecap:butt;stroke-linejoin:round"/>
          </g>
          <g style="stroke-linecap:butt;stroke-linejoin:round" id="g5791" clip-path="url(#p7b0b5c6bc8)">
            <use height="432" width="432" id="use5793" y="432" xlink:href="#C1_8_e9a858cf3e" x="0" style="fill:none;stroke:#000000;stroke-width:4;stroke-linecap:butt;stroke-linejoin:round"/>
          </g>
          <g style="stroke-linecap:butt;stroke-linejoin:round" id="g5795" clip-path="url(#p7b0b5c6bc8)">
            <use height="432" width="432" id="use5797" y="432" xlink:href="#C1_9_af0a66c692" x="0" style="fill:none;stroke:#000000;stroke-width:4;stroke-linecap:butt;stroke-linejoin:round"/>
          </g>
          <g style="stroke-linecap:butt;stroke-linejoin:round" id="g5799" clip-path="url(#p7b0b5c6bc8)">
            <use height="432" width="432" id="use5801" y="432" xlink:href="#C1_a_617d8f2b20" x="0" style="fill:none;stroke:#000000;stroke-width:4;stroke-linecap:butt;stroke-linejoin:round"/>
          </g>
          <g style="stroke-linecap:butt;stroke-linejoin:round" id="g5803" clip-path="url(#p7b0b5c6bc8)">
            <use height="432" width="432" id="use5805" y="432" xlink:href="#C1_b_03fd83eabb" x="0" style="fill:none;stroke:#000000;stroke-width:4;stroke-linecap:butt;stroke-linejoin:round"/>
          </g>
          <g style="stroke-linecap:butt;stroke-linejoin:round" id="g5807" clip-path="url(#p7b0b5c6bc8)">
            <use height="432" width="432" id="use5809" y="432" xlink:href="#C1_c_ddbaee9172" x="0" style="fill:none;stroke:#000000;stroke-width:4;stroke-linecap:butt;stroke-linejoin:round"/>
          </g>
          <g style="stroke-linecap:butt;stroke-linejoin:round" id="g5811" clip-path="url(#p7b0b5c6bc8)">
            <use height="432" width="432" id="use5813" y="432" xlink:href="#C1_d_9b11ea21a0" x="0" style="fill:none;stroke:#000000;stroke-width:4;stroke-linecap:butt;stroke-linejoin:round"/>
          </g>
          <g style="stroke-linecap:butt;stroke-linejoin:round" id="g5815" clip-path="url(#p7b0b5c6bc8)">
            <use height="432" width="432" id="use5817" y="432" xlink:href="#C1_e_9d1836b6d1" x="0" style="fill:none;stroke:#000000;stroke-width:4;stroke-linecap:butt;stroke-linejoin:round"/>
          </g>
          <g style="stroke-linecap:butt;stroke-linejoin:round" id="g5819" clip-path="url(#p7b0b5c6bc8)">
            <use height="432" width="432" id="use5821" y="432" xlink:href="#C1_f_296bc01a41" x="0" style="fill:none;stroke:#000000;stroke-width:4;stroke-linecap:butt;stroke-linejoin:round"/>
          </g>
          <g style="stroke-linecap:butt;stroke-linejoin:round" id="g5823" clip-path="url(#p7b0b5c6bc8)">
            <use height="432" width="432" id="use5825" y="432" xlink:href="#C1_10_deb9023184" x="0" style="fill:none;stroke:#000000;stroke-width:4;stroke-linecap:butt;stroke-linejoin:round"/>
          </g>
        </g>
      </g>
      <g id="blocks" style="stroke-linecap:butt;stroke-linejoin:round">
        <g id="inputs" style="stroke-linecap:butt;stroke-linejoin:round">
          <use style="fill:#90cd97;stroke:#eeeeee;stroke-width:0.5;stroke-linecap:butt;stroke-linejoin:round" x="149.65715" xlink:href="#C2_0_41f499cd02" y="80.400002" id="use5833" width="432" height="432"/>
          <use style="fill:#90cd97;stroke:#eeeeee;stroke-width:0.5;stroke-linecap:butt;stroke-linejoin:round" x="293.14285" xlink:href="#C2_0_41f499cd02" y="80.400002" id="use5837" width="432" height="432"/>
          <g style="stroke-linecap:butt;stroke-linejoin:round" id="text_1">
            <g style="stroke-linecap:butt;stroke-linejoin:round" id="g5884" clip-path="url(#p7b0b5c6bc8-1)">
              <!-- 0 -->
              <defs id="defs5886">
                <path style="stroke-linecap:butt;stroke-linejoin:round" inkscape:connector-curvature="0" id="BitstreamVeraSans-Roman-30" d="m 31.7812,66.4062 q -7.6093,0 -11.4531,-7.5 Q 16.5,51.4219 16.5,36.375 q 0,-14.9844 3.8281,-22.4844 3.8438,-7.49998 11.4531,-7.49998 7.6719,0 11.5,7.49998 3.8438,7.5 3.8438,22.4844 0,15.0469 -3.8438,22.5312 -3.8281,7.5 -11.5,7.5 m 0,7.8126 q 12.2657,0 18.7344,-9.7032 6.4688,-9.6875 6.4688,-28.1406 0,-18.4062 -6.4688,-28.10938 -6.4687,-9.6875 -18.7344,-9.6875 -12.25,0 -18.7187,9.6875 -6.46875,9.70318 -6.46875,28.10938 0,18.4531 6.46875,28.1406 6.4687,9.7032 18.7187,9.7032" class="label-text"/>
              </defs>
              <g style="stroke-linecap:butt;stroke-linejoin:round" id="g5889" transform="matrix(0.12,0,0,-0.12,146.63371,83.71125)">
                <use height="432" width="432" y="0" x="0" style="stroke-linecap:butt;stroke-linejoin:round" id="use5891" xlink:href="#BitstreamVeraSans-Roman-30"/>
              </g>
            </g>
          </g>
          <g style="stroke-linecap:butt;stroke-linejoin:round" id="text_2">
            <g style="stroke-linecap:butt;stroke-linejoin:round" id="g5894" clip-path="url(#p7b0b5c6bc8-1)">
              <!-- 1 -->
              <defs id="defs5896">
                <path style="stroke-linecap:butt;stroke-linejoin:round" inkscape:connector-curvature="0" id="BitstreamVeraSans-Roman-31" d="m 12.4062,8.29688 16.1094,0 0,55.62502 -17.5312,-3.5157 0,8.9844 17.4375,3.5156 9.8593,0 0,-64.60932 16.1094,0 0,-8.29688 -41.9844,0 z" class="label-text"/>
              </defs>
              <g style="stroke-linecap:butt;stroke-linejoin:round" id="g5899" transform="matrix(0.12,0,0,-0.12,290.53848,83.71125)">
                <use height="432" width="432" y="0" x="0" style="stroke-linecap:butt;stroke-linejoin:round" id="use5901" xlink:href="#BitstreamVeraSans-Roman-31"/>
              </g>
            </g>
          </g>
        </g>
        <g id="clbs" style="stroke-linecap:butt;stroke-linejoin:round">
          <use style="fill:#88bde6;stroke:#eeeeee;stroke-width:0.5;stroke-linecap:butt;stroke-linejoin:round" x="293.14285" xlink:href="#C2_0_41f499cd02" y="117.6" id="use5841" width="432" height="432"/>
          <use style="fill:#88bde6;stroke:#eeeeee;stroke-width:0.5;stroke-linecap:butt;stroke-linejoin:round" x="197.48572" xlink:href="#C2_0_41f499cd02" y="192" id="use5845" width="432" height="432"/>
          <use style="fill:#88bde6;stroke:#eeeeee;stroke-width:0.5;stroke-linecap:butt;stroke-linejoin:round" x="149.65715" xlink:href="#C2_0_41f499cd02" y="117.6" id="use5849" width="432" height="432"/>
          <use style="fill:#88bde6;stroke:#eeeeee;stroke-width:0.5;stroke-linecap:butt;stroke-linejoin:round" x="101.82858" xlink:href="#C2_0_41f499cd02" y="229.2" id="use5857" width="432" height="432"/>
          <use style="fill:#88bde6;stroke:#eeeeee;stroke-width:0.5;stroke-linecap:butt;stroke-linejoin:round" x="293.14285" xlink:href="#C2_0_41f499cd02" y="266.39999" id="use5865" width="432" height="432"/>
          <g id="text_3" style="stroke-linecap:butt;stroke-linejoin:round">
            <g clip-path="url(#p7b0b5c6bc8)" id="g5904" style="stroke-linecap:butt;stroke-linejoin:round">
              <!-- 2 -->
              <defs id="defs5906">
                <path d="m 19.1875,8.29688 34.4219,0 0,-8.29688 -46.28128,0 0,8.29688 Q 12.9375,14.1094 22.625,23.8906 q 9.7031,9.7969 12.1875,12.6406 4.7344,5.3126 6.6094,9 1.8906,3.6876 1.8906,7.25 0,5.8126 -4.0781,9.4688 -4.0782,3.6719 -10.625,3.6719 -4.6406,0 -9.7969,-1.6094 -5.1406,-1.6094 -11,-4.8906 l 0,9.9687 q 5.9531,2.3906 11.125,3.6094 5.1875,1.2188 9.4844,1.2188 11.3281,0 18.0625,-5.6719 6.7344,-5.6563 6.7344,-15.125 0,-4.5 -1.6876,-8.5313 Q 49.8594,40.875 45.4062,35.4062 44.1875,33.9844 37.6406,27.2188 31.1094,20.4531 19.1875,8.29688" id="BitstreamVeraSans-Roman-32" inkscape:connector-curvature="0" style="stroke-linecap:butt;stroke-linejoin:round" class="label-text"/>
              </defs>
              <g transform="matrix(0.12,0,0,-0.12,290.36598,120.91125)" id="g5909" style="stroke-linecap:butt;stroke-linejoin:round">
                <use xlink:href="#BitstreamVeraSans-Roman-32" id="use5911" style="stroke-linecap:butt;stroke-linejoin:round" x="0" y="0" width="432" height="432"/>
              </g>
            </g>
          </g>
          <g id="text_4" style="stroke-linecap:butt;stroke-linejoin:round">
            <g clip-path="url(#p7b0b5c6bc8)" id="g5914" style="stroke-linecap:butt;stroke-linejoin:round">
              <!-- 3 -->
              <defs id="defs5916">
                <path d="M 40.5781,39.3125 Q 47.6562,37.7969 51.625,33 q 3.9844,-4.7812 3.9844,-11.8125 0,-10.7813 -7.4219,-16.70312 -7.4219,-5.90626 -21.0937,-5.90626 -4.5782,0 -9.4376,0.906255 Q 12.7969,0.390625 7.625,2.20312 l 0,9.51568 q 4.0938,-2.39068 8.9688,-3.60942 4.8906,-1.21876 10.2187,-1.21876 9.2656,0 14.125,3.65628 4.8594,3.6562 4.8594,10.6406 0,6.4531 -4.5157,10.0781 -4.5156,3.6406 -12.5624,3.6406 l -8.5,0 0,8.1094 8.8906,0 q 7.2656,0 11.125,2.9063 3.8594,2.9062 3.8594,8.375 0,5.6093 -3.9844,8.6093 -3.9688,3.0157 -11.3906,3.0157 -4.0626,0 -8.7032,-0.8907 -4.6406,-0.875 -10.2031,-2.7187 l 0,8.7813 q 5.625,1.5624 10.5313,2.3437 4.9062,0.7813 9.25,0.7813 11.2343,0 17.7656,-5.1094 6.5468,-5.0938 6.5468,-13.7813 0,-6.0625 -3.4687,-10.2343 -3.4687,-4.1719 -9.8594,-5.7813" id="BitstreamVeraSans-Roman-33" inkscape:connector-curvature="0" style="stroke-linecap:butt;stroke-linejoin:round" class="label-text"/>
              </defs>
              <g transform="matrix(0.12,0,0,-0.12,194.60665,195.31125)" id="g5919" style="stroke-linecap:butt;stroke-linejoin:round">
                <use xlink:href="#BitstreamVeraSans-Roman-33" id="use5921" style="stroke-linecap:butt;stroke-linejoin:round" x="0" y="0" width="432" height="432"/>
              </g>
            </g>
          </g>
          <g id="text_5" style="stroke-linecap:butt;stroke-linejoin:round">
            <g clip-path="url(#p7b0b5c6bc8)" id="g5924" style="stroke-linecap:butt;stroke-linejoin:round">
              <!-- 4 -->
              <defs id="defs5926">
                <path d="m 37.7969,64.3125 -24.9063,-38.9219 24.9063,0 z m -2.5938,8.5937 12.4063,0 0,-47.5156 10.4062,0 0,-8.2031 -10.4062,0 0,-17.1875 -9.8125,0 0,17.1875 -32.90628,0 0,9.5156 z" id="BitstreamVeraSans-Roman-34" inkscape:connector-curvature="0" style="stroke-linecap:butt;stroke-linejoin:round" class="label-text"/>
              </defs>
              <g transform="matrix(0.12,0,0,-0.12,146.46964,120.91125)" id="g5929" style="stroke-linecap:butt;stroke-linejoin:round">
                <use xlink:href="#BitstreamVeraSans-Roman-34" id="use5931" style="stroke-linecap:butt;stroke-linejoin:round" x="0" y="0" width="432" height="432"/>
              </g>
            </g>
          </g>
          <g id="text_7" style="stroke-linecap:butt;stroke-linejoin:round">
            <g clip-path="url(#p7b0b5c6bc8)" id="g5944" style="stroke-linecap:butt;stroke-linejoin:round">
              <!-- 6 -->
              <defs id="defs5946">
                <path d="m 33.0156,40.375 q -6.6406,0 -10.5312,-4.5469 -3.875,-4.5312 -3.875,-12.4375 0,-7.8594 3.875,-12.4375 3.8906,-4.56248 10.5312,-4.56248 6.6406,0 10.5156,4.56248 3.875,4.5781 3.875,12.4375 0,7.9063 -3.875,12.4375 -3.875,4.5469 -10.5156,4.5469 m 19.5782,30.9219 0,-8.9844 q -3.7188,1.75 -7.5,2.6719 -3.7813,0.9375 -7.5,0.9375 -9.7657,0 -14.9219,-6.5938 -5.1407,-6.5937 -5.875,-19.9219 2.875,4.25 7.2187,6.5157 4.3594,2.2656 9.5782,2.2656 10.9843,0 17.3593,-6.6719 6.375,-6.6562 6.375,-18.125 0,-11.2344 -6.6406,-18.03122 -6.6406,-6.78126 -17.6719,-6.78126 -12.6562,0 -19.3437,9.6875 -6.68752,9.70318 -6.68752,28.10938 0,17.2812 8.20312,27.5625 8.2031,10.2813 22.0156,10.2813 3.7188,0 7.5,-0.7344 3.7813,-0.7344 7.8907,-2.1875" id="BitstreamVeraSans-Roman-36" inkscape:connector-curvature="0" style="stroke-linecap:butt;stroke-linejoin:round" class="label-text"/>
              </defs>
              <g transform="matrix(0.12,0,0,-0.12,98.807946,232.51125)" id="g5949" style="stroke-linecap:butt;stroke-linejoin:round">
                <use xlink:href="#BitstreamVeraSans-Roman-36" id="use5951" style="stroke-linecap:butt;stroke-linejoin:round" x="0" y="0" width="432" height="432"/>
              </g>
            </g>
          </g>
          <g id="text_9" style="stroke-linecap:butt;stroke-linejoin:round">
            <g clip-path="url(#p7b0b5c6bc8)" id="g5964" style="stroke-linecap:butt;stroke-linejoin:round">
              <!-- 8 -->
              <defs id="defs5966">
                <path d="m 31.7812,34.625 q -7.0312,0 -11.0624,-3.7656 -4.0157,-3.7656 -4.0157,-10.3438 0,-6.5937 4.0157,-10.3594 4.0312,-3.76558 11.0624,-3.76558 7.0313,0 11.0782,3.78128 4.0625,3.7969 4.0625,10.3437 0,6.5782 -4.0313,10.3438 -4.0156,3.7656 -11.1094,3.7656 m -9.8593,4.1875 Q 15.5781,40.375 12.0312,44.7188 8.5,49.0781 8.5,55.3281 q 0,8.7344 6.2188,13.8125 6.2343,5.0782 17.0624,5.0782 10.8907,0 17.0938,-5.0782 6.2031,-5.0781 6.2031,-13.8125 0,-6.25 -3.5469,-10.6093 Q 48,40.375 41.7031,38.8125 q 7.125,-1.6563 11.0938,-6.5 3.9843,-4.8281 3.9843,-11.7969 0,-10.60935 -6.4687,-16.28122 -6.4687,-5.65626 -18.5313,-5.65626 -12.0468,0 -18.5312,5.65626 -6.46875,5.67187 -6.46875,16.28122 0,6.9688 3.99995,11.7969 4.0157,4.8437 11.1407,6.5 m -3.6094,15.5781 q 0,-5.6562 3.5313,-8.8281 3.5468,-3.1719 9.9374,-3.1719 6.3594,0 9.9376,3.1719 3.5937,3.1719 3.5937,8.8281 0,5.6719 -3.5937,8.8438 -3.5782,3.1718 -9.9376,3.1718 -6.3906,0 -9.9374,-3.1718 -3.5313,-3.1719 -3.5313,-8.8438" id="BitstreamVeraSans-Roman-38" inkscape:connector-curvature="0" style="stroke-linecap:butt;stroke-linejoin:round" class="label-text"/>
              </defs>
              <g transform="matrix(0.12,0,0,-0.12,290.14286,269.71125)" id="g5969" style="stroke-linecap:butt;stroke-linejoin:round">
                <use xlink:href="#BitstreamVeraSans-Roman-38" id="use5971" style="stroke-linecap:butt;stroke-linejoin:round" x="0" y="0" width="432" height="432"/>
              </g>
            </g>
          </g>
        </g>
        <g id="sync-clbs" style="stroke-linecap:butt;stroke-linejoin:round">
          <use style="fill:#eddd46;stroke:#eeeeee;stroke-width:0.5;stroke-linecap:butt;stroke-linejoin:round" x="197.48572" xlink:href="#C2_0_41f499cd02" y="229.2" id="use5853" width="432" height="432"/>
          <use style="fill:#eddd46;stroke:#eeeeee;stroke-width:0.5;stroke-linecap:butt;stroke-linejoin:round" x="340.97144" xlink:href="#C2_0_41f499cd02" y="154.8" id="use5861" width="432" height="432"/>
          <use style="fill:#eddd46;stroke:#eeeeee;stroke-width:0.5;stroke-linecap:butt;stroke-linejoin:round" x="197.48572" xlink:href="#C2_0_41f499cd02" y="266.39999" id="use5869" width="432" height="432"/>
          <g id="text_6" style="stroke-linecap:butt;stroke-linejoin:round">
            <g clip-path="url(#p7b0b5c6bc8)" id="g5934" style="stroke-linecap:butt;stroke-linejoin:round">
              <!-- 5 -->
              <defs id="defs5936">
                <path d="m 10.7969,72.9062 38.7187,0 0,-8.3124 -29.6875,0 0,-17.8594 q 2.1407,0.7344 4.2813,1.0937 2.1562,0.3594 4.3125,0.3594 12.2031,0 19.3281,-6.6875 7.1406,-6.6875 7.1406,-18.1094 0,-11.7656 -7.3281,-18.29685 -7.3281,-6.51563 -20.6563,-6.51563 -4.5937,0 -9.3593,0.781255 -4.75,0.78125 -9.82815,2.343745 l 0,9.92188 q 4.39065,-2.39062 9.07815,-3.5625 4.6875,-1.17188 9.9062,-1.17188 8.4531,0 13.375,4.43748 4.9375,4.4375 4.9375,12.0625 0,7.6094 -4.9375,12.0469 -4.9219,4.4531 -13.375,4.4531 -3.9531,0 -7.8906,-0.875 -3.9219,-0.875 -8.0156,-2.7344 z" id="BitstreamVeraSans-Roman-35" inkscape:connector-curvature="0" style="stroke-linecap:butt;stroke-linejoin:round" class="label-text"/>
              </defs>
              <g transform="matrix(0.12,0,0,-0.12,194.6554,232.51125)" id="g5939" style="stroke-linecap:butt;stroke-linejoin:round">
                <use xlink:href="#BitstreamVeraSans-Roman-35" id="use5941" style="stroke-linecap:butt;stroke-linejoin:round" x="0" y="0" width="432" height="432"/>
              </g>
            </g>
          </g>
          <g id="text_8" style="stroke-linecap:butt;stroke-linejoin:round">
            <g clip-path="url(#p7b0b5c6bc8)" id="g5954" style="stroke-linecap:butt;stroke-linejoin:round">
              <!-- 7 -->
              <defs id="defs5956">
                <path d="m 8.20312,72.9062 46.87498,0 0,-4.2031 L 28.6094,0 18.3125,0 l 24.9063,64.5938 -35.01568,0 z" id="BitstreamVeraSans-Roman-37" inkscape:connector-curvature="0" style="stroke-linecap:butt;stroke-linejoin:round" class="label-text"/>
              </defs>
              <g transform="matrix(0.12,0,0,-0.12,338.15893,158.11125)" id="g5959" style="stroke-linecap:butt;stroke-linejoin:round">
                <use xlink:href="#BitstreamVeraSans-Roman-37" id="use5961" style="stroke-linecap:butt;stroke-linejoin:round" x="0" y="0" width="432" height="432"/>
              </g>
            </g>
          </g>
          <g id="text_10" style="stroke-linecap:butt;stroke-linejoin:round">
            <g clip-path="url(#p7b0b5c6bc8)" id="g5974" style="stroke-linecap:butt;stroke-linejoin:round">
              <!-- 9 -->
              <defs id="defs5976">
                <path d="m 10.9844,1.51562 0,8.98438 Q 14.7031,8.73438 18.5,7.8125 q 3.8125,-0.92188 7.4844,-0.92188 9.7656,0 14.9062,6.56248 5.1563,6.5625 5.8906,19.9531 -2.8281,-4.2031 -7.1874,-6.4531 -4.3438,-2.25 -9.6094,-2.25 -10.9375,0 -17.3125,6.6094 -6.37502,6.625 -6.37502,18.1094 0,11.2187 6.64062,18 6.6406,6.7969 17.6719,6.7969 12.6562,0 19.3125,-9.7032 6.6719,-9.6875 6.6719,-28.1406 0,-17.2344 -8.1876,-27.51562 -8.1718,-10.28126 -21.9843,-10.28126 -3.7188,0 -7.5313,0.73438 -3.7968,0.734375 -7.9062,2.20312 m 19.625,30.90628 q 6.6406,0 10.5156,4.5312 3.8906,4.5469 3.8906,12.4688 0,7.8593 -3.8906,12.4219 -3.875,4.5624 -10.5156,4.5624 -6.6406,0 -10.5156,-4.5624 -3.875,-4.5626 -3.875,-12.4219 0,-7.9219 3.875,-12.4688 3.875,-4.5312 10.5156,-4.5312" id="BitstreamVeraSans-Roman-39" inkscape:connector-curvature="0" style="stroke-linecap:butt;stroke-linejoin:round" class="label-text"/>
              </defs>
              <g transform="matrix(0.12,0,0,-0.12,194.4679,269.71125)" id="g5979" style="stroke-linecap:butt;stroke-linejoin:round">
                <use xlink:href="#BitstreamVeraSans-Roman-39" id="use5981" style="stroke-linecap:butt;stroke-linejoin:round" x="0" y="0" width="432" height="432"/>
              </g>
            </g>
          </g>
        </g>
        <g id="outputs" style="stroke-linecap:butt;stroke-linejoin:round">
          <use style="fill:#f07e6e;stroke:#eeeeee;stroke-width:0.5;stroke-linecap:butt;stroke-linejoin:round" x="245.31429" xlink:href="#C2_0_41f499cd02" y="340.79999" id="use5873" width="432" height="432"/>
          <use style="fill:#f07e6e;stroke:#eeeeee;stroke-width:0.5;stroke-linecap:butt;stroke-linejoin:round" x="197.48572" xlink:href="#C2_0_41f499cd02" y="340.79999" id="use5877" width="432" height="432"/>
          <use style="fill:#f07e6e;stroke:#eeeeee;stroke-width:0.5;stroke-linecap:butt;stroke-linejoin:round" x="293.14285" xlink:href="#C2_0_41f499cd02" y="340.79999" id="use5881" width="432" height="432"/>
          <g id="text_11" style="stroke-linecap:butt;stroke-linejoin:round">
            <g clip-path="url(#p7b0b5c6bc8)" id="g5984" style="stroke-linecap:butt;stroke-linejoin:round">
              <!-- 10 -->
              <g transform="matrix(0.12,0,0,-0.12,238.73679,344.11125)" id="g5986" style="stroke-linecap:butt;stroke-linejoin:round">
                <path style="stroke-linecap:butt;stroke-linejoin:round" inkscape:connector-curvature="0" id="use5988" d="m 12.4062,8.29688 16.1094,0 0,55.62502 -17.5312,-3.5157 0,8.9844 17.4375,3.5156 9.8593,0 0,-64.60932 16.1094,0 0,-8.29688 -41.9844,0 z" class="label-text"/>
                <path style="stroke-linecap:butt;stroke-linejoin:round" inkscape:connector-curvature="0" id="use5990" d="m 95.404247,66.4062 q -7.6093,0 -11.4531,-7.5 -3.8281,-7.4843 -3.8281,-22.5312 0,-14.9844 3.8281,-22.4844 3.8438,-7.49998 11.4531,-7.49998 7.671903,0 11.500003,7.49998 3.8438,7.5 3.8438,22.4844 0,15.0469 -3.8438,22.5312 -3.8281,7.5 -11.500003,7.5 m 0,7.8126 q 12.265703,0 18.734403,-9.7032 6.4688,-9.6875 6.4688,-28.1406 0,-18.4062 -6.4688,-28.10938 -6.4687,-9.6875 -18.734403,-9.6875 -12.25,0 -18.7187,9.6875 -6.46875,9.70318 -6.46875,28.10938 0,18.4531 6.46875,28.1406 6.4687,9.7032 18.7187,9.7032" class="label-text"/>
              </g>
            </g>
          </g>
          <g id="text_12" style="stroke-linecap:butt;stroke-linejoin:round">
            <g clip-path="url(#p7b0b5c6bc8)" id="g5993" style="stroke-linecap:butt;stroke-linejoin:round">
              <!-- 11 -->
              <g transform="matrix(0.12,0,0,-0.12,191.06384,344.11125)" id="g5995" style="stroke-linecap:butt;stroke-linejoin:round">
                <path style="stroke-linecap:butt;stroke-linejoin:round" inkscape:connector-curvature="0" id="use5997" d="m 12.4062,8.29688 16.1094,0 0,55.62502 -17.5312,-3.5157 0,8.9844 17.4375,3.5156 9.8593,0 0,-64.60932 16.1094,0 0,-8.29688 -41.9844,0 z" class="label-text"/>
                <path style="stroke-linecap:butt;stroke-linejoin:round" inkscape:connector-curvature="0" id="use5999" d="m 76.029247,8.29688 16.1094,0 0,55.62502 -17.5312,-3.5157 0,8.9844 17.4375,3.5156 9.859303,0 0,-64.60932 16.1094,0 0,-8.29688 -41.984403,0 z" class="label-text"/>
              </g>
            </g>
          </g>
          <g id="text_13" style="stroke-linecap:butt;stroke-linejoin:round">
            <g clip-path="url(#p7b0b5c6bc8)" id="g6002" style="stroke-linecap:butt;stroke-linejoin:round">
              <!-- 12 -->
              <g transform="matrix(0.12,0,0,-0.12,286.76786,344.11125)" id="g6004" style="stroke-linecap:butt;stroke-linejoin:round">
                <path style="stroke-linecap:butt;stroke-linejoin:round" inkscape:connector-curvature="0" id="use6006" d="m 12.4062,8.29688 16.1094,0 0,55.62502 -17.5312,-3.5157 0,8.9844 17.4375,3.5156 9.8593,0 0,-64.60932 16.1094,0 0,-8.29688 -41.9844,0 z" class="label-text"/>
                <use x="63.623047" xlink:href="#BitstreamVeraSans-Roman-32" id="use6008" style="stroke-linecap:butt;stroke-linejoin:round" y="0" width="432" height="432"/>
              </g>
            </g>
          </g>
        </g>
      </g>
    </g>
  </g>
  <defs id="defs6010">
    <clipPath id="p7b0b5c6bc8">
      <rect height="334.79999" width="334.79999" x="54" y="43.200001" id="rect6013" style="stroke-linecap:butt;stroke-linejoin:round"/>
    </clipPath>
  </defs>
</svg>