<?xml version="1.0" encoding="UTF-8" standalone="no"?>
<!-- Created with Inkscape (http://www.inkscape.org/) -->

<svg
   xmlns:dc="http://purl.org/dc/elements/1.1/"
   xmlns:cc="http://creativecommons.org/ns#"
   xmlns:rdf="http://www.w3.org/1999/02/22-rdf-syntax-ns#"
   xmlns:svg="http://www.w3.org/2000/svg"
   xmlns="http://www.w3.org/2000/svg"
   xmlns:sodipodi="http://sodipodi.sourceforge.net/DTD/sodipodi-0.dtd"
   xmlns:inkscape="http://www.inkscape.org/namespaces/inkscape"
   version="1.1"
   width="168.93738"
   height="75.082497"
   id="svg2"
   xml:space="preserve"
   inkscape:version="0.48.4 r9939"
   sodipodi:docname="scatter.svg"><sodipodi:namedview
     pagecolor="#ffffff"
     bordercolor="#666666"
     borderopacity="1"
     objecttolerance="10"
     gridtolerance="10"
     guidetolerance="10"
     inkscape:pageopacity="0"
     inkscape:pageshadow="2"
     inkscape:window-width="927"
     inkscape:window-height="1028"
     id="namedview117123"
     showgrid="false"
     inkscape:zoom="4.1204653"
     inkscape:cx="90.217697"
     inkscape:cy="87.747029"
     inkscape:window-x="992"
     inkscape:window-y="24"
     inkscape:window-maximized="0"
     inkscape:current-layer="svg2"
     fit-margin-top="0"
     fit-margin-left="0"
     fit-margin-right="0"
     fit-margin-bottom="0" /><metadata
     id="metadata8"><rdf:RDF><cc:Work
         rdf:about=""><dc:format>image/svg+xml</dc:format><dc:type
           rdf:resource="http://purl.org/dc/dcmitype/StillImage" /><dc:title /></cc:Work></rdf:RDF></metadata><defs
     id="defs6" /><g
     transform="matrix(1.25,0,0,-1.25,-135.28487,197.51625)"
     id="scatter-group"><g
       id="scatter-input-set"
       class="input-set"><g
         style="fill:#265dab"
         id="g890"
         transform="translate(111.9828,158.013)"><path
           inkscape:connector-curvature="0"
           style="fill:#265dab;fill-opacity:1;fill-rule:nonzero;stroke:none"
           id="path892"
           d="M 0,0 127.641,0 C 129.72,0 131.395,-1.674 131.395,-3.755 L 131.395,-18.771 C 131.395,-20.852 129.72,-22.525 127.641,-22.525 L 0,-22.525 C -2.0811,-22.525 -3.7549,-20.852 -3.7549,-18.771 L -3.7549,-3.755 C -3.7549,-1.674 -2.0811,0 0,0" /></g><g
         style="fill:#88bde6"
         id="g978"
         transform="translate(115.7367,154.258)"><path
           inkscape:connector-curvature="0"
           style="fill:#88bde6;fill-opacity:1;fill-rule:nonzero;stroke:none"
           id="path980"
           d="M 0,0 7.508,0 C 9.587,0 11.262,-1.672 11.262,-3.753 L 11.262,-11.262 C 11.262,-13.343 9.587,-15.016 7.508,-15.016 L 0,-15.016 C -2.0811,-15.016 -3.7539,-13.343 -3.7539,-11.262 L -3.7539,-3.753 C -3.7539,-1.672 -2.0811,0 0,0" /></g><g
         style="fill:#88bde6"
         id="g986"
         transform="translate(138.262,154.258)"><path
           inkscape:connector-curvature="0"
           style="fill:#88bde6;fill-opacity:1;fill-rule:nonzero;stroke:none"
           id="path988"
           d="M 0,0 7.508,0 C 9.586,0 11.262,-1.672 11.262,-3.753 L 11.262,-11.262 C 11.262,-13.343 9.586,-15.016 7.508,-15.016 L 0,-15.016 C -2.081,-15.016 -3.755,-13.343 -3.755,-11.262 L -3.755,-3.753 C -3.755,-1.672 -2.081,0 0,0" /></g><g
         style="fill:#88bde6"
         id="g994"
         transform="translate(160.786,154.258)"><path
           inkscape:connector-curvature="0"
           style="fill:#88bde6;fill-opacity:1;fill-rule:nonzero;stroke:none"
           id="path996"
           d="M 0,0 7.509,0 C 9.587,0 11.263,-1.672 11.263,-3.753 L 11.263,-11.262 C 11.263,-13.343 9.587,-15.016 7.509,-15.016 L 0,-15.016 C -2.08,-15.016 -3.754,-13.343 -3.754,-11.262 L -3.754,-3.753 C -3.754,-1.672 -2.08,0 0,0" /></g><g
         style="fill:#88bde6"
         id="g1002"
         transform="translate(183.312,154.258)"><path
           inkscape:connector-curvature="0"
           style="fill:#88bde6;fill-opacity:1;fill-rule:nonzero;stroke:none"
           id="path1004"
           d="M 0,0 7.509,0 C 9.587,0 11.263,-1.672 11.263,-3.753 L 11.263,-11.262 C 11.263,-13.343 9.587,-15.016 7.509,-15.016 L 0,-15.016 C -2.081,-15.016 -3.754,-13.343 -3.754,-11.262 L -3.754,-3.753 C -3.754,-1.672 -2.081,0 0,0" /></g><g
         style="fill:#88bde6"
         id="g1010"
         transform="translate(205.837,154.258)"><path
           inkscape:connector-curvature="0"
           style="fill:#88bde6;fill-opacity:1;fill-rule:nonzero;stroke:none"
           id="path1012"
           d="M 0,0 7.509,0 C 9.587,0 11.262,-1.672 11.262,-3.753 L 11.262,-11.262 C 11.262,-13.343 9.587,-15.016 7.509,-15.016 L 0,-15.016 C -2.081,-15.016 -3.755,-13.343 -3.755,-11.262 L -3.755,-3.753 C -3.755,-1.672 -2.081,0 0,0" /></g><g
         style="fill:#88bde6"
         id="g1018"
         transform="translate(228.362,154.258)"><path
           inkscape:connector-curvature="0"
           style="fill:#88bde6;fill-opacity:1;fill-rule:nonzero;stroke:none"
           id="path1020"
           d="M 0,0 7.508,0 C 9.587,0 11.262,-1.672 11.262,-3.753 L 11.262,-11.262 C 11.262,-13.343 9.587,-15.016 7.508,-15.016 L 0,-15.016 C -2.08,-15.016 -3.754,-13.343 -3.754,-11.262 L -3.754,-3.753 C -3.754,-1.672 -2.08,0 0,0" /></g><g
         transform="scale(1,-1)"
         style="font-size:12px;fill:#265dab"
         id="text1154"><path
           inkscape:connector-curvature="0"
           d="M 166.80394,-149.5417 166.80394,-148.70967 C 166.53831,-148.95706 166.25446,-149.14196 165.95238,-149.26436 165.65289,-149.38675 165.33388,-149.44795 164.99535,-149.44795 164.32868,-149.44795 163.81826,-149.24352 163.4641,-148.83467 163.10993,-148.42842 162.93284,-147.83988 162.93285,-147.06905 162.93284,-146.30081 163.10993,-145.71227 163.4641,-145.30342 163.81826,-144.89717 164.32868,-144.69405 164.99535,-144.69405 165.33388,-144.69405 165.65289,-144.75524 165.95238,-144.87764 166.25446,-145.00003 166.53831,-145.18493 166.80394,-145.43233 L 166.80394,-144.60811 C 166.52789,-144.42061 166.23492,-144.27998 165.92503,-144.18623 165.61774,-144.09248 165.29222,-144.04561 164.94847,-144.04561 164.06566,-144.04561 163.37034,-144.31514 162.86253,-144.8542 162.35472,-145.39587 162.10081,-146.13415 162.10081,-147.06905 162.10081,-148.00654 162.35472,-148.74482 162.86253,-149.28389 163.37034,-149.82555 164.06566,-150.09638 164.94847,-150.09639 165.29743,-150.09638 165.62555,-150.04951 165.93285,-149.95576 166.24274,-149.86461 166.5331,-149.72659 166.80394,-149.5417"
           style="font-size:8px;font-variant:normal;font-weight:normal;writing-mode:lr-tb;fill:#265dab;fill-opacity:1;fill-rule:nonzero;stroke:none;font-family:ArialMT;-inkscape-font-specification:ArialMT"
           id="path117159" /><path
           inkscape:connector-curvature="0"
           d="M 119.55638,-149.21358 118.48607,-146.31123 120.6306,-146.31123 119.55638,-149.21358 M 119.11107,-149.99092 120.0056,-149.99092 122.22826,-144.15889 121.40794,-144.15889 120.87669,-145.65498 118.24779,-145.65498 117.71654,-144.15889 116.88451,-144.15889 119.11107,-149.99092"
           style="font-size:8px;font-variant:normal;font-weight:normal;writing-mode:lr-tb;fill:#265dab;fill-opacity:1;fill-rule:nonzero;stroke:none;font-family:ArialMT;-inkscape-font-specification:ArialMT"
           id="path117161" /><path
           inkscape:connector-curvature="0"
           d="M 140.92021,-146.94405 140.92021,-144.80733 142.18584,-144.80733 C 142.61031,-144.80733 142.92411,-144.89457 143.12724,-145.06905 143.33297,-145.24613 143.43583,-145.51566 143.43584,-145.87764 143.43583,-146.24222 143.33297,-146.51045 143.12724,-146.68233 142.92411,-146.8568 142.61031,-146.94404 142.18584,-146.94405 L 140.92021,-146.94405 M 140.92021,-149.34248 140.92021,-147.58467 142.08818,-147.58467 C 142.47359,-147.58467 142.76005,-147.65628 142.94756,-147.79951 143.13766,-147.94534 143.23271,-148.1667 143.23271,-148.46358 143.23271,-148.75784 143.13766,-148.9779 142.94756,-149.12373 142.76005,-149.26956 142.47359,-149.34248 142.08818,-149.34248 L 140.92021,-149.34248 M 140.13115,-149.99092 142.14677,-149.99092 C 142.74833,-149.99092 143.21187,-149.86592 143.5374,-149.61592 143.86292,-149.36592 144.02568,-149.01045 144.02568,-148.54951 144.02568,-148.19274 143.94234,-147.90889 143.77568,-147.69795 143.60901,-147.48701 143.36422,-147.3555 143.04131,-147.30342 143.42932,-147.22008 143.7301,-147.04561 143.94365,-146.77998 144.15979,-146.51696 144.26786,-146.18753 144.26787,-145.7917 144.26786,-145.27087 144.09078,-144.86852 143.73662,-144.58467 143.38245,-144.30082 142.87854,-144.15889 142.2249,-144.15889 L 140.13115,-144.15889 140.13115,-149.99092"
           style="font-size:8px;font-variant:normal;font-weight:normal;writing-mode:lr-tb;fill:#265dab;fill-opacity:1;fill-rule:nonzero;stroke:none;font-family:ArialMT;-inkscape-font-specification:ArialMT"
           id="path117163" /><path
           inkscape:connector-curvature="0"
           d="M 185.75063,-149.34248 185.75063,-144.80733 186.70375,-144.80733 C 187.50843,-144.80733 188.09698,-144.98962 188.46938,-145.3542 188.84437,-145.71878 189.03187,-146.2943 189.03188,-147.08076 189.03187,-147.86201 188.84437,-148.43363 188.46938,-148.79561 188.09698,-149.16019 187.50843,-149.34248 186.70375,-149.34248 L 185.75063,-149.34248 M 184.96156,-149.99092 186.58266,-149.99092 C 187.71286,-149.99092 188.54229,-149.75524 189.07094,-149.28389 189.59958,-148.81514 189.8639,-148.08076 189.86391,-147.08076 189.8639,-146.07555 189.59828,-145.33727 189.06703,-144.86592 188.53578,-144.39457 187.70765,-144.15889 186.58266,-144.15889 L 184.96156,-144.15889 184.96156,-149.99092"
           style="font-size:8px;font-variant:normal;font-weight:normal;writing-mode:lr-tb;fill:#265dab;fill-opacity:1;fill-rule:nonzero;stroke:none;font-family:ArialMT;-inkscape-font-specification:ArialMT"
           id="path117165" /><path
           inkscape:connector-curvature="0"
           d="M 207.70796,-149.99092 211.39546,-149.99092 211.39546,-149.32686 208.49702,-149.32686 208.49702,-147.6003 211.27437,-147.6003 211.27437,-146.93623 208.49702,-146.93623 208.49702,-144.82295 211.46577,-144.82295 211.46577,-144.15889 207.70796,-144.15889 207.70796,-149.99092"
           style="font-size:8px;font-variant:normal;font-weight:normal;writing-mode:lr-tb;fill:#265dab;fill-opacity:1;fill-rule:nonzero;stroke:none;font-family:ArialMT;-inkscape-font-specification:ArialMT"
           id="path117167" /><path
           inkscape:connector-curvature="0"
           d="M 230.45595,-149.99092 233.80751,-149.99092 233.80751,-149.32686 231.24501,-149.32686 231.24501,-147.60811 233.55751,-147.60811 233.55751,-146.94405 231.24501,-146.94405 231.24501,-144.15889 230.45595,-144.15889 230.45595,-149.99092"
           style="font-size:8px;font-variant:normal;font-weight:normal;writing-mode:lr-tb;fill:#265dab;fill-opacity:1;fill-rule:nonzero;stroke:none;font-family:ArialMT;-inkscape-font-specification:ArialMT"
           id="path117169" /></g></g><g
       id="scatter-output-set"
       class="output-set"><g
         style="fill:#90cd97"
         id="g874"
         transform="translate(111.9828,120.472)"><path
           sodipodi:nodetypes="csssssssc"
           inkscape:connector-curvature="0"
           style="fill:#90cd97;fill-opacity:1;fill-rule:nonzero;stroke:none"
           id="path876"
           d="M 0,0 127.64098,0 C 129.71998,0 131.39398,-1.675 131.39398,-3.754 L 131.39398,-18.771 C 131.39398,-20.853 129.71998,-22.525 127.64098,-22.525 L 0,-22.525 C -2.0811,-22.525 -3.7549,-20.853 -3.7549,-18.771 L -3.7549,-3.754 C -3.7549,-1.675 -2.0811,0 0,0" /></g><g
         style="fill:#059748"
         id="g4544"><g
           style="fill:#059748"
           id="g1034"
           transform="translate(115.7367,116.718)"><path
             inkscape:connector-curvature="0"
             style="fill:#059748;fill-opacity:1;fill-rule:nonzero;stroke:none"
             id="path1036"
             d="M 0,0 7.508,0 C 9.587,0 11.262,-1.674 11.262,-3.755 L 11.262,-11.264 C 11.262,-13.344 9.587,-15.018 7.508,-15.018 L 0,-15.018 C -2.0811,-15.018 -3.7539,-13.344 -3.7539,-11.264 L -3.7539,-3.755 C -3.7539,-1.674 -2.0811,0 0,0" /></g><g
           style="fill:#059748"
           id="g1042"
           transform="translate(138.262,116.718)"><path
             inkscape:connector-curvature="0"
             style="fill:#059748;fill-opacity:1;fill-rule:nonzero;stroke:none"
             id="path1044"
             d="M 0,0 7.508,0 C 9.586,0 11.262,-1.674 11.262,-3.755 L 11.262,-11.264 C 11.262,-13.344 9.586,-15.018 7.508,-15.018 L 0,-15.018 C -2.081,-15.018 -3.755,-13.344 -3.755,-11.264 L -3.755,-3.755 C -3.755,-1.674 -2.081,0 0,0" /></g><g
           style="fill:#059748"
           id="g1050"
           transform="translate(205.837,116.718)"><path
             inkscape:connector-curvature="0"
             style="fill:#059748;fill-opacity:1;fill-rule:nonzero;stroke:none"
             id="path1052"
             d="M 0,0 7.509,0 C 9.587,0 11.262,-1.674 11.262,-3.755 L 11.262,-11.264 C 11.262,-13.344 9.587,-15.018 7.509,-15.018 L 0,-15.018 C -2.081,-15.018 -3.755,-13.344 -3.755,-11.264 L -3.755,-3.755 C -3.755,-1.674 -2.081,0 0,0" /></g><g
           style="fill:#059748"
           id="g1058"
           transform="translate(228.362,116.718)"><path
             inkscape:connector-curvature="0"
             style="fill:#059748;fill-opacity:1;fill-rule:nonzero;stroke:none"
             id="path1060"
             d="M 0,0 7.508,0 C 9.587,0 11.262,-1.674 11.262,-3.755 L 11.262,-11.264 C 11.262,-13.344 9.587,-15.018 7.508,-15.018 L 0,-15.018 C -2.08,-15.018 -3.754,-13.344 -3.754,-11.264 L -3.754,-3.755 C -3.754,-1.674 -2.08,0 0,0" /></g><g
           style="fill:#059748"
           id="g1138"
           transform="translate(160.786,116.718)"><path
             inkscape:connector-curvature="0"
             style="fill:#059748;fill-opacity:1;fill-rule:nonzero;stroke:none"
             id="path1140"
             d="M 0,0 7.509,0 C 9.587,0 11.263,-1.674 11.263,-3.755 L 11.263,-11.264 C 11.263,-13.344 9.587,-15.018 7.509,-15.018 L 0,-15.018 C -2.08,-15.018 -3.754,-13.344 -3.754,-11.264 L -3.754,-3.755 C -3.754,-1.674 -2.08,0 0,0" /></g><g
           style="fill:#059748"
           id="g1146"
           transform="translate(183.312,116.718)"><path
             inkscape:connector-curvature="0"
             style="fill:#059748;fill-opacity:1;fill-rule:nonzero;stroke:none"
             id="path1148"
             d="M 0,0 7.509,0 C 9.587,0 11.263,-1.674 11.263,-3.755 L 11.263,-11.264 C 11.263,-13.344 9.587,-15.018 7.509,-15.018 L 0,-15.018 C -2.081,-15.018 -3.754,-13.344 -3.754,-11.264 L -3.754,-3.755 C -3.754,-1.674 -2.081,0 0,0" /></g></g><path
         inkscape:connector-curvature="0"
         d="M 231.02182,109.40247 231.02182,107.26575 232.28745,107.26575 C 232.71192,107.26575 233.02572,107.35299 233.22885,107.52747 233.43458,107.70455 233.53744,107.97408 233.53745,108.33606 233.53744,108.70064 233.43458,108.96887 233.22885,109.14075 233.02572,109.31522 232.71192,109.40246 232.28745,109.40247 L 231.02182,109.40247 M 231.02182,111.8009 231.02182,110.04309 232.18978,110.04309 C 232.5752,110.04309 232.86166,110.1147 233.04916,110.25793 233.23926,110.40376 233.33432,110.62512 233.33432,110.922 233.33432,111.21626 233.23926,111.43632 233.04916,111.58215 232.86166,111.72798 232.5752,111.8009 232.18978,111.8009 L 231.02182,111.8009 M 230.23276,112.44934 232.24838,112.44934 C 232.84994,112.44933 233.31348,112.32434 233.63901,112.07434 233.96452,111.82434 234.12728,111.46887 234.12729,111.00793 234.12728,110.65116 234.04394,110.36731 233.87729,110.15637 233.71062,109.94543 233.46582,109.81392 233.1429,109.76184 233.53093,109.6785 233.8317,109.50403 234.04526,109.2384 234.2614,108.97538 234.36946,108.64595 234.36948,108.25012 234.36946,107.72929 234.19238,107.32694 233.83822,107.04309 233.48406,106.75924 232.98014,106.61731 232.3265,106.61731 L 230.23276,106.61731 230.23276,112.44934"
         style="font-size:8px;font-variant:normal;font-weight:normal;writing-mode:lr-tb;fill:#90cd97;fill-opacity:1;fill-rule:nonzero;stroke:none;font-family:ArialMT;-inkscape-font-specification:ArialMT"
         id="path117171" /><path
         inkscape:connector-curvature="0"
         d="M 207.93114,112.44934 211.2827,112.44934 211.2827,111.78528 208.72021,111.78528 208.72021,110.06653 211.0327,110.06653 211.0327,109.40247 208.72021,109.40247 208.72021,106.61731 207.93114,106.61731 207.93114,112.44934"
         style="font-size:8px;font-variant:normal;font-weight:normal;writing-mode:lr-tb;fill:#90cd97;fill-opacity:1;fill-rule:nonzero;stroke:none;font-family:ArialMT;-inkscape-font-specification:ArialMT"
         id="path117173" /><path
         inkscape:connector-curvature="0"
         d="M 141.76837,111.672 140.69806,108.76965 142.84259,108.76965 141.76837,111.672 M 141.32306,112.44934 142.21759,112.44934 144.44025,106.61731 143.61993,106.61731 143.08868,108.1134 140.45978,108.1134 139.92853,106.61731 139.0965,106.61731 141.32306,112.44934"
         style="font-size:8px;font-variant:normal;font-weight:normal;writing-mode:lr-tb;fill:#90cd97;fill-opacity:1;fill-rule:nonzero;stroke:none;font-family:ArialMT;-inkscape-font-specification:ArialMT"
         id="path117175" /><path
         inkscape:connector-curvature="0"
         d="M 121.75354,112.00012 121.75354,111.16809 C 121.48791,111.41548 121.20406,111.60038 120.90198,111.72278 120.60249,111.84517 120.28348,111.90637 119.94495,111.90637 119.27828,111.90637 118.76786,111.70194 118.4137,111.29309 118.05953,110.88684 117.88245,110.2983 117.88245,109.52747 117.88245,108.75923 118.05953,108.17069 118.4137,107.76184 118.76786,107.35559 119.27828,107.15247 119.94495,107.15247 120.28348,107.15247 120.60249,107.21366 120.90198,107.33606 121.20406,107.45845 121.48791,107.64335 121.75354,107.89075 L 121.75354,107.06653 C 121.47749,106.87903 121.18453,106.7384 120.87463,106.64465 120.56734,106.5509 120.24182,106.50403 119.89807,106.50403 119.01526,106.50403 118.31994,106.77356 117.81213,107.31262 117.30432,107.85429 117.05041,108.59257 117.05042,109.52747 117.05041,110.46496 117.30432,111.20324 117.81213,111.74231 118.31994,112.28397 119.01526,112.5548 119.89807,112.55481 120.24703,112.5548 120.57515,112.50793 120.88245,112.41418 121.19234,112.32303 121.4827,112.18501 121.75354,112.00012"
         style="font-size:8px;font-variant:normal;font-weight:normal;writing-mode:lr-tb;fill:#90cd97;fill-opacity:1;fill-rule:nonzero;stroke:none;font-family:ArialMT;-inkscape-font-specification:ArialMT"
         id="path117177" /><path
         inkscape:connector-curvature="0"
         d="M 163.22421,111.8009 163.22421,107.26575 164.17734,107.26575 C 164.98202,107.26575 165.57056,107.44804 165.94296,107.81262 166.31796,108.1772 166.50546,108.75272 166.50546,109.53918 166.50546,110.32043 166.31796,110.89204 165.94296,111.25403 165.57056,111.61861 164.98202,111.8009 164.17734,111.8009 L 163.22421,111.8009 M 162.43515,112.44934 164.05624,112.44934 C 165.18645,112.44933 166.01587,112.21366 166.54453,111.74231 167.07317,111.27355 167.33749,110.53918 167.33749,109.53918 167.33749,108.53397 167.07186,107.79569 166.54062,107.32434 166.00936,106.85299 165.18124,106.61731 164.05624,106.61731 L 162.43515,106.61731 162.43515,112.44934"
         style="font-size:8px;font-variant:normal;font-weight:normal;writing-mode:lr-tb;fill:#90cd97;fill-opacity:1;fill-rule:nonzero;stroke:none;font-family:ArialMT;-inkscape-font-specification:ArialMT"
         id="path117179" /><path
         inkscape:connector-curvature="0"
         d="M 185.17996,112.44934 188.86746,112.44934 188.86746,111.78528 185.96902,111.78528 185.96902,110.05872 188.74637,110.05872 188.74637,109.39465 185.96902,109.39465 185.96902,107.28137 188.93777,107.28137 188.93777,106.61731 185.17996,106.61731 185.17996,112.44934"
         style="font-size:8px;font-variant:normal;font-weight:normal;writing-mode:lr-tb;fill:#90cd97;fill-opacity:1;fill-rule:nonzero;stroke:none;font-family:ArialMT;-inkscape-font-specification:ArialMT"
         id="path117181" /></g><g
       id="scatter-order"
       style="stroke-width:0.80000001;stroke-miterlimit:4;stroke-dasharray:none"
       class="order"><g
         transform="translate(141.749,139.509)"
         id="g906"
         style="stroke:#df5c24;stroke-width:0.80000001;stroke-miterlimit:4;stroke-dasharray:none"><path
           d="M 0,0 90.368,-22.257"
           id="path908"
           style="fill:none;stroke:#df5c24;stroke-width:0.80000001;stroke-linecap:butt;stroke-linejoin:miter;stroke-miterlimit:4;stroke-opacity:1;stroke-dasharray:none"
           inkscape:connector-curvature="0" /></g><g
         transform="translate(229.856,117.807)"
         id="g910"
         style="fill:#df5c24;stroke:#df5c24;stroke-width:0.80000001;stroke-miterlimit:4;stroke-dasharray:none"><path
           d="M 0,0 -1.407,-0.85 2.825,-0.694 -0.851,1.408 0,0"
           id="path912"
           style="fill:#df5c24;fill-opacity:1;fill-rule:evenodd;stroke:#df5c24;stroke-width:0.80000001;stroke-miterlimit:4;stroke-dasharray:none"
           inkscape:connector-curvature="0" /></g><g
         transform="translate(229.856,117.807)"
         id="g914"
         style="stroke:#df5c24;stroke-width:0.80000001;stroke-miterlimit:4;stroke-dasharray:none"><g
           transform="translate(-110.365,21.702)"
           id="g918"
           style="stroke:#df5c24;stroke-width:0.80000001;stroke-miterlimit:4;stroke-dasharray:none"><path
             d="M 0,0 22.525,-22.257"
             id="path920"
             style="fill:none;stroke:#df5c24;stroke-width:0.80000001;stroke-linecap:butt;stroke-linejoin:miter;stroke-miterlimit:4;stroke-opacity:1;stroke-dasharray:none"
             inkscape:connector-curvature="0" /></g></g><g
         transform="translate(140.361,118.887)"
         id="g922"
         style="fill:#df5c24;stroke:#df5c24;stroke-width:0.80000001;stroke-miterlimit:4;stroke-dasharray:none"><path
           d="M 0,0 -1.645,-0.011 2.067,-2.044 -0.009,1.646 0,0"
           id="path924"
           style="fill:#df5c24;fill-opacity:1;fill-rule:evenodd;stroke:#df5c24;stroke-width:0.80000001;stroke-miterlimit:4;stroke-dasharray:none"
           inkscape:connector-curvature="0" /></g><g
         transform="translate(140.361,118.887)"
         id="g926"
         style="stroke:#df5c24;stroke-width:0.80000001;stroke-miterlimit:4;stroke-dasharray:none"><g
           transform="translate(24.181,20.622)"
           id="g930"
           style="stroke:#df5c24;stroke-width:0.80000001;stroke-miterlimit:4;stroke-dasharray:none"><path
             d="M 0,0 -45.051,-22.257"
             id="path932"
             style="fill:none;stroke:#df5c24;stroke-width:0.80000001;stroke-linecap:butt;stroke-linejoin:miter;stroke-miterlimit:4;stroke-opacity:1;stroke-dasharray:none"
             inkscape:connector-curvature="0" /></g></g><g
         transform="translate(121.575,118.284)"
         id="g934"
         style="fill:#df5c24;stroke:#df5c24;stroke-width:0.80000001;stroke-miterlimit:4;stroke-dasharray:none"><path
           d="M 0,0 0.528,1.557 -2.606,-1.29 1.558,-0.528 0,0"
           id="path936"
           style="fill:#df5c24;fill-opacity:1;fill-rule:evenodd;stroke:#df5c24;stroke-width:0.80000001;stroke-miterlimit:4;stroke-dasharray:none"
           inkscape:connector-curvature="0" /></g><g
         transform="translate(121.575,118.284)"
         id="g938"
         style="stroke:#df5c24;stroke-width:0.80000001;stroke-miterlimit:4;stroke-dasharray:none"><g
           transform="translate(110.276,21.226)"
           id="g942"
           style="stroke:#df5c24;stroke-width:0.80000001;stroke-miterlimit:4;stroke-dasharray:none"><path
             d="M 0,0 -22.26,-22.257"
             id="path944"
             style="fill:none;stroke:#df5c24;stroke-width:0.80000001;stroke-linecap:butt;stroke-linejoin:miter;stroke-miterlimit:4;stroke-opacity:1;stroke-dasharray:none"
             inkscape:connector-curvature="0" /></g></g><g
         transform="translate(211.235,118.897)"
         id="g946"
         style="fill:#df5c24;stroke:#df5c24;stroke-width:0.80000001;stroke-miterlimit:4;stroke-dasharray:none"><path
           d="M 0,0 0,1.643 -2.057,-2.056 1.644,0 0,0"
           id="path948"
           style="fill:#df5c24;fill-opacity:1;fill-rule:evenodd;stroke:#df5c24;stroke-width:0.80000001;stroke-miterlimit:4;stroke-dasharray:none"
           inkscape:connector-curvature="0" /></g><g
         transform="translate(211.236,118.897)"
         id="g950"
         style="stroke:#df5c24;stroke-width:0.80000001;stroke-miterlimit:4;stroke-dasharray:none"><g
           transform="translate(-24.17,20.881)"
           id="g954"
           style="stroke:#df5c24;stroke-width:0.80000001;stroke-miterlimit:4;stroke-dasharray:none"><path
             d="M 0,0 -22.524,-22.525"
             id="path956"
             style="fill:none;stroke:#df5c24;stroke-width:0.80000001;stroke-linecap:butt;stroke-linejoin:miter;stroke-miterlimit:4;stroke-opacity:1;stroke-dasharray:none"
             inkscape:connector-curvature="0" /></g></g><g
         transform="translate(166.185,118.897)"
         id="g958"
         style="fill:#df5c24;stroke:#df5c24;stroke-width:0.80000001;stroke-miterlimit:4;stroke-dasharray:none"><path
           d="M 0,0 0,1.643 -2.057,-2.056 1.645,0 0,0"
           id="path960"
           style="fill:#df5c24;fill-opacity:1;fill-rule:evenodd;stroke:#df5c24;stroke-width:0.80000001;stroke-miterlimit:4;stroke-dasharray:none"
           inkscape:connector-curvature="0" /></g><g
         transform="translate(166.185,118.897)"
         id="g962"
         style="stroke:#df5c24;stroke-width:0.80000001;stroke-miterlimit:4;stroke-dasharray:none"><g
           transform="translate(43.406,20.881)"
           id="g966"
           style="stroke:#df5c24;stroke-width:0.80000001;stroke-miterlimit:4;stroke-dasharray:none"><path
             d="M 0,0 -22.525,-23.059"
             id="path968"
             style="fill:none;stroke:#df5c24;stroke-width:0.80000001;stroke-linecap:butt;stroke-linejoin:miter;stroke-miterlimit:4;stroke-opacity:1;stroke-dasharray:none"
             inkscape:connector-curvature="0" /></g></g><g
         transform="translate(188.69,118.381)"
         id="g970"
         style="fill:#df5c24;stroke:#df5c24;stroke-width:0.80000001;stroke-miterlimit:4;stroke-dasharray:none"><path
           d="M 0,0 -0.019,1.645 -2.031,-2.08 1.647,0.019 0,0"
           id="path972"
           style="fill:#df5c24;fill-opacity:1;fill-rule:evenodd;stroke:#df5c24;stroke-width:0.80000001;stroke-miterlimit:4;stroke-dasharray:none"
           inkscape:connector-curvature="0" /></g><g
         transform="translate(188.691,118.381)"
         id="g974"
         style="stroke:#df5c24;stroke-width:0.80000001;stroke-miterlimit:4;stroke-dasharray:none" /></g></g></svg>