<?xml version="1.0" encoding="UTF-8" standalone="no"?>
<!-- Created with Inkscape (http://www.inkscape.org/) -->

<svg
   xmlns:dc="http://purl.org/dc/elements/1.1/"
   xmlns:cc="http://creativecommons.org/ns#"
   xmlns:rdf="http://www.w3.org/1999/02/22-rdf-syntax-ns#"
   xmlns:svg="http://www.w3.org/2000/svg"
   xmlns="http://www.w3.org/2000/svg"
   xmlns:sodipodi="http://sodipodi.sourceforge.net/DTD/sodipodi-0.dtd"
   xmlns:inkscape="http://www.inkscape.org/namespaces/inkscape"
   id="svg2"
   version="1.1"
   inkscape:version="0.48.4 r9939"
   width="74.276237"
   height="57.370953"
   xml:space="preserve"
   sodipodi:docname="stream_compaction.svg"><metadata
     id="metadata8"><rdf:RDF><cc:Work
         rdf:about=""><dc:format>image/svg+xml</dc:format><dc:type
           rdf:resource="http://purl.org/dc/dcmitype/StillImage" /><dc:title /></cc:Work></rdf:RDF></metadata><defs
     id="defs6"><clipPath
       clipPathUnits="userSpaceOnUse"
       id="clipPath106"><path
         d="m 0,0 420.175,0 0,231.139 L 0,231.139 0,0 z"
         id="path108"
         inkscape:connector-curvature="0" /></clipPath><clipPath
       clipPathUnits="userSpaceOnUse"
       id="clipPath2740"><path
         d="m 0.029999,231.139 420.145001,0 0,-231.109 -420.145001,0 0,231.109 z"
         id="path2742"
         inkscape:connector-curvature="0" /></clipPath></defs><sodipodi:namedview
     pagecolor="#ffffff"
     bordercolor="#666666"
     borderopacity="1"
     objecttolerance="10"
     gridtolerance="10"
     guidetolerance="10"
     inkscape:pageopacity="0"
     inkscape:pageshadow="2"
     inkscape:window-width="927"
     inkscape:window-height="1028"
     id="namedview4"
     showgrid="false"
     fit-margin-top="0"
     fit-margin-left="0"
     fit-margin-right="0"
     fit-margin-bottom="0"
     inkscape:zoom="9.0714714"
     inkscape:cx="35.467096"
     inkscape:cy="45.316272"
     inkscape:window-x="992"
     inkscape:window-y="24"
     inkscape:window-maximized="0"
     inkscape:current-layer="svg2" /><g
     id="filter-group"
     inkscape:groupmode="layer"
     inkscape:label="iicyb.Structured.Parallel.Programming.Patterns.for.Efficient.Computation"
     transform="matrix(1.25,0,0,-1.25,-344.46173,529.50217)"><g
       id="filter-output-set"
       class="output-set"><g
         style="color:black;fill:#90cd97;fill-opacity:1;fill-rule:nonzero;stroke:none;stroke-width:1;marker:none;visibility:visible;display:inline;overflow:visible;enable-background:accumulate"
         transform="matrix(0.97,0,0,0.97,277.0547,385.37404)"
         id="g4748"><path
           id="path4750"
           style="color:black;fill:#90cd97;fill-opacity:1;fill-rule:nonzero;stroke:none;stroke-width:1;marker:none;visibility:visible;display:inline;overflow:visible;enable-background:accumulate"
           d="M 0,0 35.457,0 C 36.158,0 36.723,-0.564 36.723,-1.266 L 36.723,-6.377 C 36.723,-7.078 36.158,-7.642 35.457,-7.642 L 0,-7.642 C -0.701,-7.642 -1.266,-7.078 -1.266,-6.377 L -1.266,-1.266 C -1.266,-0.564 -0.701,0 0,0"
           inkscape:connector-curvature="0" /></g><g
         style="color:black;fill:#059748;fill-opacity:1;fill-rule:nonzero;stroke:none;stroke-width:1;marker:none;visibility:visible;display:inline;overflow:visible;enable-background:accumulate"
         transform="matrix(0.97,0,0,0.97,306.90839,383.72892)"
         id="g4756"><path
           id="path4758"
           style="color:black;fill:#059748;fill-opacity:1;fill-rule:nonzero;stroke:none;stroke-width:1;marker:none;visibility:visible;display:inline;overflow:visible;enable-background:accumulate"
           d="M 0,0 C 0.506,0.505 0.885,0.379 2.151,0.379 3.415,0.379 3.795,0.505 4.301,0 4.807,-0.507 4.68,-0.886 4.68,-2.152 4.68,-3.416 4.807,-3.795 4.301,-4.302 3.795,-4.808 3.415,-4.681 2.151,-4.681 0.885,-4.681 0.506,-4.808 0,-4.302 -0.506,-3.795 -0.379,-3.416 -0.379,-2.152 -0.379,-0.886 -0.506,-0.507 0,0"
           inkscape:connector-curvature="0" /></g><g
         style="color:black;fill:#059748;fill-opacity:1;fill-rule:nonzero;stroke:none;stroke-width:1;marker:none;visibility:visible;display:inline;overflow:visible;enable-background:accumulate"
         transform="matrix(0.97,0,0,0.97,299.54609,383.72892)"
         id="g4764"><path
           id="path4766"
           style="color:black;fill:#059748;fill-opacity:1;fill-rule:nonzero;stroke:none;stroke-width:1;marker:none;visibility:visible;display:inline;overflow:visible;enable-background:accumulate"
           d="M 0,0 C 0.506,0.505 0.886,0.379 2.151,0.379 3.416,0.379 3.795,0.505 4.301,0 4.807,-0.507 4.681,-0.886 4.681,-2.152 4.681,-3.416 4.807,-3.795 4.301,-4.302 3.795,-4.808 3.416,-4.681 2.151,-4.681 0.886,-4.681 0.506,-4.808 0,-4.302 -0.505,-3.795 -0.378,-3.416 -0.378,-2.152 -0.378,-0.886 -0.505,-0.507 0,0"
           inkscape:connector-curvature="0" /></g><g
         style="color:black;fill:#059748;fill-opacity:1;fill-rule:nonzero;stroke:none;stroke-width:1;marker:none;visibility:visible;display:inline;overflow:visible;enable-background:accumulate"
         transform="matrix(0.97,0,0,0.97,292.18476,383.72892)"
         id="g4772"><path
           id="path4774"
           style="color:black;fill:#059748;fill-opacity:1;fill-rule:nonzero;stroke:none;stroke-width:1;marker:none;visibility:visible;display:inline;overflow:visible;enable-background:accumulate"
           d="M 0,0 C 0.505,0.505 0.886,0.379 2.151,0.379 3.416,0.379 3.795,0.505 4.3,0 4.806,-0.507 4.681,-0.886 4.681,-2.152 4.681,-3.416 4.806,-3.795 4.3,-4.302 3.795,-4.808 3.416,-4.681 2.151,-4.681 0.886,-4.681 0.505,-4.808 0,-4.302 -0.506,-3.795 -0.379,-3.416 -0.379,-2.152 -0.379,-0.886 -0.506,-0.507 0,0"
           inkscape:connector-curvature="0" /></g><g
         style="color:black;fill:#059748;fill-opacity:1;fill-rule:nonzero;stroke:none;stroke-width:1;marker:none;visibility:visible;display:inline;overflow:visible;enable-background:accumulate"
         transform="matrix(0.97,0,0,0.97,284.82343,383.72892)"
         id="g4780"><path
           id="path4782"
           style="color:black;fill:#059748;fill-opacity:1;fill-rule:nonzero;stroke:none;stroke-width:1;marker:none;visibility:visible;display:inline;overflow:visible;enable-background:accumulate"
           d="M 0,0 C 0.506,0.505 0.885,0.379 2.15,0.379 3.415,0.379 3.794,0.505 4.3,0 4.806,-0.507 4.68,-0.886 4.68,-2.152 4.68,-3.416 4.806,-3.795 4.3,-4.302 3.794,-4.808 3.415,-4.681 2.15,-4.681 0.885,-4.681 0.506,-4.808 0,-4.302 -0.506,-3.795 -0.38,-3.416 -0.38,-2.152 -0.38,-0.886 -0.506,-0.507 0,0"
           inkscape:connector-curvature="0" /></g><g
         style="color:black;fill:#059748;fill-opacity:1;fill-rule:nonzero;stroke:none;stroke-width:1;marker:none;visibility:visible;display:inline;overflow:visible;enable-background:accumulate"
         transform="matrix(0.97,0,0,0.97,277.4621,383.72892)"
         id="g4788"><path
           id="path4790"
           style="color:black;fill:#059748;fill-opacity:1;fill-rule:nonzero;stroke:none;stroke-width:1;marker:none;visibility:visible;display:inline;overflow:visible;enable-background:accumulate"
           d="M 0,0 C 0.505,0.505 0.885,0.379 2.15,0.379 3.415,0.379 3.794,0.505 4.3,0 4.806,-0.507 4.68,-0.886 4.68,-2.152 4.68,-3.416 4.806,-3.795 4.3,-4.302 3.794,-4.808 3.415,-4.681 2.15,-4.681 0.885,-4.681 0.505,-4.808 0,-4.302 -0.507,-3.795 -0.38,-3.416 -0.38,-2.152 -0.38,-0.886 -0.507,-0.507 0,0"
           inkscape:connector-curvature="0" /></g><g
         id="g11325"><g
           id="g11377"><g
             transform="matrix(0.97,0,0,0.97,279.5476,385.12765)"
             id="g4800"
             style="fill:#df5c24"><path
               id="path4802"
               style="fill:#df5c24;fill-opacity:1;fill-rule:nonzero;stroke:none"
               d="M 0,0 -0.392,0.392 0,-0.98 0.391,0.392 0,0"
               inkscape:connector-curvature="0" /></g><g
             transform="matrix(0.97,0,0,0.97,286.90893,385.12765)"
             id="g4808"
             style="fill:#df5c24"><path
               id="path4810"
               style="fill:#df5c24;fill-opacity:1;fill-rule:nonzero;stroke:none"
               d="M 0,0 -0.391,0.392 0,-0.98 0.392,0.392 0,0"
               inkscape:connector-curvature="0" /></g><g
             transform="matrix(0.97,0,0,0.97,294.27123,385.12765)"
             id="g4816"
             style="fill:#df5c24"><path
               id="path4818"
               style="fill:#df5c24;fill-opacity:1;fill-rule:nonzero;stroke:none"
               d="M 0,0 -0.392,0.392 0,-0.98 0.392,0.392 0,0"
               inkscape:connector-curvature="0" /></g><g
             transform="matrix(0.97,0,0,0.97,301.63256,385.12765)"
             id="g4824"
             style="fill:#df5c24"><path
               id="path4826"
               style="fill:#df5c24;fill-opacity:1;fill-rule:nonzero;stroke:none"
               d="M 0,0 -0.392,0.392 0,-0.98 0.391,0.392 0,0"
               inkscape:connector-curvature="0" /></g><g
             transform="matrix(0.97,0,0,0.97,308.98322,385.12765)"
             id="g4828"
             style="fill:#df5c24"><path
               id="path4830"
               style="fill:#df5c24;fill-opacity:1;fill-rule:nonzero;stroke:none"
               d="M 0,0 -0.392,0.392 0,-0.98 0.392,0.392 0,0"
               inkscape:connector-curvature="0" /></g><g
             transform="matrix(0.97,0,0,0.97,301.63256,405.23867)"
             id="g4924"
             style="fill:#df5c24"><path
               id="path4926"
               style="fill:#df5c24;fill-opacity:1;fill-rule:nonzero;stroke:none"
               d="M 0,0 -0.392,0.393 0,-0.979 0.391,0.393 0,0"
               inkscape:connector-curvature="0" /></g><g
             style="stroke:#df5c24"
             id="g11359"><g
               style="stroke:#df5c24"
               id="g4796"
               transform="matrix(0.97,0,0,0.97,286.90893,408.63464)"><path
                 inkscape:connector-curvature="0"
                 d="M 0,0 0,-8.853 -7.589,-20.238 -7.589,-24.323"
                 style="fill:none;stroke:#df5c24;stroke-width:0.30000001;stroke-linecap:butt;stroke-linejoin:miter;stroke-miterlimit:4;stroke-opacity:1;stroke-dasharray:none"
                 id="path4798" /></g><g
               style="stroke:#df5c24"
               id="g4804"
               transform="matrix(0.97,0,0,0.97,294.27123,408.63464)"><path
                 inkscape:connector-curvature="0"
                 d="M 0,0 0,-8.853 -7.59,-20.238 -7.59,-24.467"
                 style="fill:none;stroke:#df5c24;stroke-width:0.30000001;stroke-linecap:butt;stroke-linejoin:miter;stroke-miterlimit:4;stroke-opacity:1;stroke-dasharray:none"
                 id="path4806" /></g><g
               style="stroke:#df5c24"
               id="g4812"
               transform="matrix(0.97,0,0,0.97,316.35716,408.63464)"><path
                 inkscape:connector-curvature="0"
                 d="M 0,0 0,-8.853 -22.769,-20.238 -22.769,-24.323"
                 style="fill:none;stroke:#df5c24;stroke-width:0.30000001;stroke-linecap:butt;stroke-linejoin:miter;stroke-miterlimit:4;stroke-opacity:1;stroke-dasharray:none"
                 id="path4814" /></g><g
               style="stroke:#df5c24"
               id="g4820"
               transform="matrix(0.97,0,0,0.97,323.71752,408.63464)"><path
                 inkscape:connector-curvature="0"
                 d="M 0,0 0,-8.853 -22.768,-20.238 -22.768,-24.436"
                 style="fill:none;stroke:#df5c24;stroke-width:0.30000001;stroke-linecap:butt;stroke-linejoin:miter;stroke-miterlimit:4;stroke-opacity:1;stroke-dasharray:none"
                 id="path4822" /></g><g
               style="stroke:#df5c24"
               id="g4832"
               transform="matrix(0.97,0,0,0.97,331.07982,408.63464)"><path
                 inkscape:connector-curvature="0"
                 d="M 0,0 0,-8.853 -22.768,-20.238 -22.768,-24.323"
                 style="fill:none;stroke:#df5c24;stroke-width:0.30000001;stroke-linecap:butt;stroke-linejoin:miter;stroke-miterlimit:4;stroke-opacity:1;stroke-dasharray:none"
                 id="path4834" /></g><g
               style="stroke:#df5c24"
               id="g4916"
               transform="matrix(0.97,0,0,0.97,279.5476,408.63464)"><path
                 inkscape:connector-curvature="0"
                 d="M 0,0 0,-3.794"
                 style="fill:none;stroke:#df5c24;stroke-width:0.30000001;stroke-linecap:butt;stroke-linejoin:miter;stroke-miterlimit:4;stroke-opacity:1;stroke-dasharray:none"
                 id="path4918" /><g
                 style="stroke:#df5c24"
                 id="g4920"
                 transform="translate(22.768,0)"><path
                   inkscape:connector-curvature="0"
                   d="M 0,0 0,-3.794"
                   style="fill:none;stroke:#df5c24;stroke-width:0.30000001;stroke-linecap:butt;stroke-linejoin:miter;stroke-miterlimit:4;stroke-opacity:1;stroke-dasharray:none"
                   id="path4922" /></g></g><g
               style="stroke:#df5c24"
               id="g4928"
               transform="matrix(0.97,0,0,0.97,308.99486,408.63464)"><path
                 inkscape:connector-curvature="0"
                 d="M 0,0 0,-3.794"
                 style="fill:none;stroke:#df5c24;stroke-width:0.30000001;stroke-linecap:butt;stroke-linejoin:miter;stroke-miterlimit:4;stroke-opacity:1;stroke-dasharray:none"
                 id="path4930" /></g></g><g
             transform="matrix(0.97,0,0,0.97,308.99486,405.23867)"
             id="g4932"
             style="fill:#df5c24"><path
               id="path4934"
               style="fill:#df5c24;fill-opacity:1;fill-rule:nonzero;stroke:none"
               d="M 0,0 -0.393,0.393 0,-0.979 0.391,0.393 0,0"
               inkscape:connector-curvature="0" /></g><g
             transform="matrix(0.97,0,0,0.97,279.53402,405.23867)"
             id="g4936"
             style="fill:#df5c24"><path
               id="path4938"
               style="fill:#df5c24;fill-opacity:1;fill-rule:nonzero;stroke:none"
               d="M 0,0 -0.393,0.393 0,-0.979 0.391,0.393 0,0"
               inkscape:connector-curvature="0" /></g></g></g><g
         style="fill:#90cd97"
         transform="translate(1.6,-32.424314)"
         id="g11215"><text
           transform="scale(1,-1)"
           sodipodi:linespacing="125%"
           id="text11187"
           y="-412.465"
           x="277.85367"
           style="font-size:4.4000001px;font-style:normal;font-variant:normal;font-weight:normal;font-stretch:normal;text-align:center;line-height:125%;letter-spacing:0px;word-spacing:0px;writing-mode:lr-tb;text-anchor:middle;fill:#90cd97;fill-opacity:1;stroke:none;font-family:Sans;-inkscape-font-specification:Sans"
           xml:space="preserve"><tspan
             y="-412.465"
             x="277.85367"
             id="tspan11189"
             sodipodi:role="line">B</tspan></text>
<text
           xml:space="preserve"
           style="font-size:4.4000001px;font-style:normal;font-variant:normal;font-weight:normal;font-stretch:normal;text-align:center;line-height:125%;letter-spacing:0px;word-spacing:0px;writing-mode:lr-tb;text-anchor:middle;fill:#90cd97;fill-opacity:1;stroke:none;font-family:Sans;-inkscape-font-specification:Sans"
           x="285.28262"
           y="-412.465"
           id="text11191"
           sodipodi:linespacing="125%"
           transform="scale(1,-1)"><tspan
             sodipodi:role="line"
             id="tspan11193"
             x="285.28262"
             y="-412.465">C</tspan></text>
<text
           transform="scale(1,-1)"
           sodipodi:linespacing="125%"
           id="text11203"
           y="-412.465"
           x="292.5687"
           style="font-size:4.4000001px;font-style:normal;font-variant:normal;font-weight:normal;font-stretch:normal;text-align:center;line-height:125%;letter-spacing:0px;word-spacing:0px;writing-mode:lr-tb;text-anchor:middle;fill:#90cd97;fill-opacity:1;stroke:none;font-family:Sans;-inkscape-font-specification:Sans"
           xml:space="preserve"><tspan
             y="-412.465"
             x="292.5687"
             id="tspan11205"
             sodipodi:role="line">F</tspan></text>
<text
           xml:space="preserve"
           style="font-size:4.4000001px;font-style:normal;font-variant:normal;font-weight:normal;font-stretch:normal;text-align:center;line-height:125%;letter-spacing:0px;word-spacing:0px;writing-mode:lr-tb;text-anchor:middle;fill:#90cd97;fill-opacity:1;stroke:none;font-family:Sans;-inkscape-font-specification:Sans"
           x="300.08252"
           y="-412.465"
           id="text11207"
           sodipodi:linespacing="125%"
           transform="scale(1,-1)"><tspan
             sodipodi:role="line"
             id="tspan11209"
             x="300.08252"
             y="-412.465">G</tspan></text>
<text
           transform="scale(1,-1)"
           sodipodi:linespacing="125%"
           id="text11211"
           y="-412.465"
           x="307.39438"
           style="font-size:4.4000001px;font-style:normal;font-variant:normal;font-weight:normal;font-stretch:normal;text-align:center;line-height:125%;letter-spacing:0px;word-spacing:0px;writing-mode:lr-tb;text-anchor:middle;fill:#90cd97;fill-opacity:1;stroke:none;font-family:Sans;-inkscape-font-specification:Sans"
           xml:space="preserve"><tspan
             y="-412.465"
             x="307.39438"
             id="tspan11213"
             sodipodi:role="line">H</tspan></text>
</g></g><g
       id="filter-input-set"
       class="input-set"><g
         style="fill:#90cd97"
         transform="matrix(0.97,0,0,0.97,277.0935,414.77085)"
         id="g4676"><path
           id="path4678"
           style="fill:#90cd97;fill-opacity:1;fill-rule:nonzero;stroke:none"
           d="M 0,0 58.186,0 C 58.887,0 59.451,-0.564 59.451,-1.265 L 59.451,-6.326 C 59.451,-7.027 58.887,-7.59 58.186,-7.59 L 0,-7.59 C -0.7,-7.59 -1.265,-7.027 -1.265,-6.326 L -1.265,-1.265 C -1.265,-0.564 -0.7,0 0,0"
           inkscape:connector-curvature="0" /></g><g
         style="fill:#059748"
         transform="matrix(0.97,0,0,0.97,284.82343,413.1752)"
         id="g4684"><path
           id="path4686"
           style="fill:#059748;fill-opacity:1;fill-rule:nonzero;stroke:none"
           d="M 0,0 C 0.506,0.506 0.885,0.38 2.15,0.38 3.415,0.38 3.794,0.506 4.3,0 4.806,-0.507 4.68,-0.886 4.68,-2.15 4.68,-3.415 4.806,-3.794 4.3,-4.301 3.794,-4.808 3.415,-4.681 2.15,-4.681 0.885,-4.681 0.506,-4.808 0,-4.301 -0.506,-3.794 -0.38,-3.415 -0.38,-2.15 -0.38,-0.886 -0.506,-0.507 0,0"
           inkscape:connector-curvature="0" /></g><g
         style="fill:#059748"
         transform="matrix(0.97,0,0,0.97,277.4621,413.1752)"
         id="g4692"><path
           id="path4694"
           style="fill:#059748;fill-opacity:1;fill-rule:nonzero;stroke:none"
           d="M 0,0 C 0.505,0.506 0.885,0.38 2.15,0.38 3.415,0.38 3.794,0.506 4.3,0 4.806,-0.507 4.68,-0.886 4.68,-2.15 4.68,-3.415 4.806,-3.794 4.3,-4.301 3.794,-4.808 3.415,-4.681 2.15,-4.681 0.885,-4.681 0.505,-4.808 0,-4.301 -0.507,-3.794 -0.38,-3.415 -0.38,-2.15 -0.38,-0.886 -0.507,-0.507 0,0"
           inkscape:connector-curvature="0" /></g><g
         style="fill:#059748"
         transform="matrix(0.97,0,0,0.97,292.18476,413.1752)"
         id="g4700"><path
           id="path4702"
           style="fill:#059748;fill-opacity:1;fill-rule:nonzero;stroke:none"
           d="M 0,0 C 0.505,0.506 0.886,0.38 2.151,0.38 3.416,0.38 3.795,0.506 4.3,0 4.806,-0.507 4.681,-0.886 4.681,-2.15 4.681,-3.415 4.806,-3.794 4.3,-4.301 3.795,-4.808 3.416,-4.681 2.151,-4.681 0.886,-4.681 0.505,-4.808 0,-4.301 -0.506,-3.794 -0.379,-3.415 -0.379,-2.15 -0.379,-0.886 -0.506,-0.507 0,0"
           inkscape:connector-curvature="0" /></g><g
         style="fill:#059748"
         transform="matrix(0.97,0,0,0.97,299.54609,413.1752)"
         id="g4708"><path
           id="path4710"
           style="fill:#059748;fill-opacity:1;fill-rule:nonzero;stroke:none"
           d="M 0,0 C 0.506,0.506 0.886,0.38 2.151,0.38 3.416,0.38 3.795,0.506 4.301,0 4.807,-0.507 4.681,-0.886 4.681,-2.15 4.681,-3.415 4.807,-3.794 4.301,-4.301 3.795,-4.808 3.416,-4.681 2.151,-4.681 0.886,-4.681 0.506,-4.808 0,-4.301 -0.505,-3.794 -0.378,-3.415 -0.378,-2.15 -0.378,-0.886 -0.505,-0.507 0,0"
           inkscape:connector-curvature="0" /></g><g
         style="fill:#059748"
         transform="matrix(0.97,0,0,0.97,306.90839,413.1752)"
         id="g4716"><path
           id="path4718"
           style="fill:#059748;fill-opacity:1;fill-rule:nonzero;stroke:none"
           d="M 0,0 C 0.506,0.506 0.885,0.38 2.151,0.38 3.415,0.38 3.795,0.506 4.301,0 4.807,-0.507 4.68,-0.886 4.68,-2.15 4.68,-3.415 4.807,-3.794 4.301,-4.301 3.795,-4.808 3.415,-4.681 2.151,-4.681 0.885,-4.681 0.506,-4.808 0,-4.301 -0.506,-3.794 -0.379,-3.415 -0.379,-2.15 -0.379,-0.886 -0.506,-0.507 0,0"
           inkscape:connector-curvature="0" /></g><g
         style="fill:#059748"
         transform="matrix(0.97,0,0,0.97,314.27069,413.1752)"
         id="g4724"><path
           id="path4726"
           style="fill:#059748;fill-opacity:1;fill-rule:nonzero;stroke:none"
           d="M 0,0 C 0.506,0.506 0.885,0.38 2.151,0.38 3.414,0.38 3.794,0.506 4.3,0 4.806,-0.507 4.68,-0.886 4.68,-2.15 4.68,-3.415 4.806,-3.794 4.3,-4.301 3.794,-4.808 3.414,-4.681 2.151,-4.681 0.885,-4.681 0.506,-4.808 0,-4.301 -0.506,-3.794 -0.379,-3.415 -0.379,-2.15 -0.379,-0.886 -0.506,-0.507 0,0"
           inkscape:connector-curvature="0" /></g><g
         style="fill:#059748"
         transform="matrix(0.97,0,0,0.97,321.63202,413.1752)"
         id="g4732"><path
           id="path4734"
           style="fill:#059748;fill-opacity:1;fill-rule:nonzero;stroke:none"
           d="M 0,0 C 0.506,0.506 0.886,0.38 2.15,0.38 3.416,0.38 3.795,0.506 4.3,0 4.807,-0.507 4.681,-0.886 4.681,-2.15 4.681,-3.415 4.807,-3.794 4.3,-4.301 3.795,-4.808 3.416,-4.681 2.15,-4.681 0.886,-4.681 0.506,-4.808 0,-4.301 -0.506,-3.794 -0.379,-3.415 -0.379,-2.15 -0.379,-0.886 -0.506,-0.507 0,0"
           inkscape:connector-curvature="0" /></g><g
         style="fill:#059748"
         transform="matrix(0.97,0,0,0.97,328.99432,413.1752)"
         id="g4740"><path
           id="path4742"
           style="fill:#059748;fill-opacity:1;fill-rule:nonzero;stroke:none"
           d="M 0,0 C 0.506,0.506 0.886,0.38 2.15,0.38 3.416,0.38 3.795,0.506 4.3,0 4.806,-0.507 4.68,-0.886 4.68,-2.15 4.68,-3.415 4.806,-3.794 4.3,-4.301 3.795,-4.808 3.416,-4.681 2.15,-4.681 0.886,-4.681 0.506,-4.808 0,-4.301 -0.506,-3.794 -0.38,-3.415 -0.38,-2.15 -0.38,-0.886 -0.506,-0.507 0,0"
           inkscape:connector-curvature="0" /></g><g
         style="fill:#90cd97"
         transform="translate(8,-3.2)"
         id="g11233"><g
           style="fill:#90cd97"
           transform="translate(0,-1.2319498)"
           id="g11281"><text
             xml:space="preserve"
             style="font-size:4px;font-style:normal;font-variant:normal;font-weight:normal;font-stretch:normal;text-align:center;line-height:125%;letter-spacing:0px;word-spacing:0px;writing-mode:lr-tb;text-anchor:middle;fill:#90cd97;fill-opacity:1;stroke:none;font-family:Sans;-inkscape-font-specification:Sans"
             x="271.4537"
             y="-414.065"
             id="text11235"
             sodipodi:linespacing="125%"
             transform="scale(1,-1)"><tspan
               sodipodi:role="line"
               id="tspan11237"
               x="271.4537"
               y="-414.065">A</tspan></text>
<text
             transform="scale(1,-1)"
             sodipodi:linespacing="125%"
             id="text11239"
             y="-414.065"
             x="278.77319"
             style="font-size:4px;font-style:normal;font-variant:normal;font-weight:normal;font-stretch:normal;text-align:center;line-height:125%;letter-spacing:0px;word-spacing:0px;writing-mode:lr-tb;text-anchor:middle;fill:#90cd97;fill-opacity:1;stroke:none;font-family:Sans;-inkscape-font-specification:Sans"
             xml:space="preserve"><tspan
               y="-414.065"
               x="278.77319"
               id="tspan11241"
               sodipodi:role="line">B</tspan></text>
<text
             xml:space="preserve"
             style="font-size:4px;font-style:normal;font-variant:normal;font-weight:normal;font-stretch:normal;text-align:center;line-height:125%;letter-spacing:0px;word-spacing:0px;writing-mode:lr-tb;text-anchor:middle;fill:#90cd97;fill-opacity:1;stroke:none;font-family:Sans;-inkscape-font-specification:Sans"
             x="286.20209"
             y="-414.065"
             id="text11243"
             sodipodi:linespacing="125%"
             transform="scale(1,-1)"><tspan
               sodipodi:role="line"
               id="tspan11245"
               x="286.20209"
               y="-414.065">C</tspan></text>
<text
             transform="scale(1,-1)"
             sodipodi:linespacing="125%"
             id="text11247"
             y="-414.065"
             x="293.50009"
             style="font-size:4px;font-style:normal;font-variant:normal;font-weight:normal;font-stretch:normal;text-align:center;line-height:125%;letter-spacing:0px;word-spacing:0px;writing-mode:lr-tb;text-anchor:middle;fill:#90cd97;fill-opacity:1;stroke:none;font-family:Sans;-inkscape-font-specification:Sans"
             xml:space="preserve"><tspan
               y="-414.065"
               x="293.50009"
               id="tspan11249"
               sodipodi:role="line">D</tspan></text>
<text
             xml:space="preserve"
             style="font-size:4px;font-style:normal;font-variant:normal;font-weight:normal;font-stretch:normal;text-align:center;line-height:125%;letter-spacing:0px;word-spacing:0px;writing-mode:lr-tb;text-anchor:middle;fill:#90cd97;fill-opacity:1;stroke:none;font-family:Sans;-inkscape-font-specification:Sans"
             x="300.88794"
             y="-414.065"
             id="text11251"
             sodipodi:linespacing="125%"
             transform="scale(1,-1)"><tspan
               sodipodi:role="line"
               id="tspan11253"
               x="300.88794"
               y="-414.065">E</tspan></text>
<text
             transform="scale(1,-1)"
             sodipodi:linespacing="125%"
             id="text11255"
             y="-414.065"
             x="308.25137"
             style="font-size:4px;font-style:normal;font-variant:normal;font-weight:normal;font-stretch:normal;text-align:center;line-height:125%;letter-spacing:0px;word-spacing:0px;writing-mode:lr-tb;text-anchor:middle;fill:#90cd97;fill-opacity:1;stroke:none;font-family:Sans;-inkscape-font-specification:Sans"
             xml:space="preserve"><tspan
               y="-414.065"
               x="308.25137"
               id="tspan11257"
               sodipodi:role="line">F</tspan></text>
<text
             xml:space="preserve"
             style="font-size:4px;font-style:normal;font-variant:normal;font-weight:normal;font-stretch:normal;text-align:center;line-height:125%;letter-spacing:0px;word-spacing:0px;writing-mode:lr-tb;text-anchor:middle;fill:#90cd97;fill-opacity:1;stroke:none;font-family:Sans;-inkscape-font-specification:Sans"
             x="315.75742"
             y="-414.065"
             id="text11259"
             sodipodi:linespacing="125%"
             transform="scale(1,-1)"><tspan
               sodipodi:role="line"
               id="tspan11261"
               x="315.75742"
               y="-414.065">G</tspan></text>
<text
             transform="scale(1,-1)"
             sodipodi:linespacing="125%"
             id="text11263"
             y="-414.065"
             x="323.07983"
             style="font-size:4px;font-style:normal;font-variant:normal;font-weight:normal;font-stretch:normal;text-align:center;line-height:125%;letter-spacing:0px;word-spacing:0px;writing-mode:lr-tb;text-anchor:middle;fill:#90cd97;fill-opacity:1;stroke:none;font-family:Sans;-inkscape-font-specification:Sans"
             xml:space="preserve"><tspan
               y="-414.065"
               x="323.07983"
               id="tspan11265"
               sodipodi:role="line">H</tspan></text>
</g></g></g><g
       id="acceptance-binary-mask"
       class="binary-mask"><g
         id="g5516"
         transform="matrix(0.97,0,0,0.97,277.72691,403.0746)"
         style="fill:#f15854"><g
           id="g52699"><g
             style="fill:#f15854"
             transform="translate(30.359,0)"
             id="g5508"><path
               id="path5510"
               style="fill:#f15854;fill-opacity:1;fill-rule:nonzero;stroke:none"
               d="M 0,0 0.634,0.633 1.898,-0.631 3.164,0.633 3.797,0 2.531,-1.264 3.797,-2.529 3.164,-3.162 1.898,-1.896 0.634,-3.162 0,-2.529 1.265,-1.264 0,0"
               inkscape:connector-curvature="0" /></g><g
             style="fill:#f15854"
             transform="translate(22.746,0)"
             id="g5512"><path
               id="path5514"
               style="fill:#f15854;fill-opacity:1;fill-rule:nonzero;stroke:none"
               d="M 0,0 0.634,0.633 1.899,-0.631 3.164,0.633 3.797,0 2.532,-1.264 3.797,-2.529 3.164,-3.162 1.899,-1.896 0.634,-3.162 0,-2.529 1.266,-1.264 0,0"
               inkscape:connector-curvature="0" /></g><path
             id="path5518"
             style="fill:#f15854;fill-opacity:1;fill-rule:nonzero;stroke:none"
             d="M 0,0 0.634,0.633 1.899,-0.631 3.164,0.633 3.797,0 2.532,-1.264 3.797,-2.529 3.164,-3.162 1.899,-1.896 0.634,-3.162 0,-2.529 1.266,-1.264 0,0"
             inkscape:connector-curvature="0" /><path
             inkscape:connector-curvature="0"
             id="path45921"
             d="M 7.7333633,-1.260432 8.6606951,-2.7029418 11.408337,1.4700394 12.593258,0.47401927 8.7293831,-3.9565564 7.0636263,-1.8614804 z"
             style="fill:#059748;stroke:none" /><path
             style="fill:#059748;stroke:none"
             d="M 15.149547,-1.260432 16.076878,-2.7029418 18.824521,1.4700394 20.009442,0.47401927 16.145566,-3.9565564 14.47981,-1.8614804 z"
             id="path52687"
             inkscape:connector-curvature="0" /><path
             inkscape:connector-curvature="0"
             id="path52689"
             d="M 38.242332,-1.260432 39.169663,-2.7029418 41.917306,1.4700394 43.102227,0.47401927 39.238351,-3.9565564 37.572595,-1.8614804 z"
             style="fill:#059748;stroke:none" /><path
             style="fill:#059748;stroke:none"
             d="M 45.580597,-1.260432 46.507928,-2.7029418 49.255571,1.4700394 50.440492,0.47401927 46.576616,-3.9565564 44.91086,-1.8614804 z"
             id="path52691"
             inkscape:connector-curvature="0" /><path
             inkscape:connector-curvature="0"
             id="path52693"
             d="M 53.282526,-1.260432 54.209857,-2.7029418 56.9575,1.4700394 58.142421,0.47401927 54.278545,-3.9565564 52.612789,-1.8614804 z"
             style="fill:#059748;stroke:none" /></g></g><g
         style="fill:#265dab"
         transform="matrix(0.97,0,0,0.97,277.0935,423.35924)"
         id="g4836"><path
           id="path4838"
           style="fill:#265dab;fill-opacity:1;fill-rule:nonzero;stroke:none"
           d="M 0,0 58.186,0 C 58.887,0 59.451,-0.564 59.451,-1.266 L 59.451,-6.325 C 59.451,-7.025 58.887,-7.59 58.186,-7.59 L 0,-7.59 C -0.7,-7.59 -1.265,-7.025 -1.265,-6.325 L -1.265,-1.266 C -1.265,-0.564 -0.7,0 0,0"
           inkscape:connector-curvature="0" /></g><g
         style="fill:#88bde6"
         transform="matrix(0.97,0,0,0.97,277.4621,421.76456)"
         id="g4844"><path
           id="path4846"
           style="fill:#88bde6;fill-opacity:1;fill-rule:nonzero;stroke:none"
           d="M 0,0 C 0.505,0.505 0.885,0.378 2.15,0.378 3.415,0.378 3.794,0.505 4.3,0 4.806,-0.506 4.68,-0.886 4.68,-2.151 4.68,-3.416 4.806,-3.795 4.3,-4.301 3.794,-4.807 3.415,-4.681 2.15,-4.681 0.885,-4.681 0.505,-4.807 0,-4.301 -0.507,-3.795 -0.38,-3.416 -0.38,-2.151 -0.38,-0.886 -0.507,-0.506 0,0"
           inkscape:connector-curvature="0" /></g><g
         style="fill:#88bde6"
         transform="matrix(0.97,0,0,0.97,284.82343,421.76456)"
         id="g4852"><path
           id="path4854"
           style="fill:#88bde6;fill-opacity:1;fill-rule:nonzero;stroke:none"
           d="M 0,0 C 0.506,0.505 0.885,0.378 2.15,0.378 3.415,0.378 3.794,0.505 4.3,0 4.806,-0.506 4.68,-0.886 4.68,-2.151 4.68,-3.416 4.806,-3.795 4.3,-4.301 3.794,-4.807 3.415,-4.681 2.15,-4.681 0.885,-4.681 0.506,-4.807 0,-4.301 -0.506,-3.795 -0.38,-3.416 -0.38,-2.151 -0.38,-0.886 -0.506,-0.506 0,0"
           inkscape:connector-curvature="0" /></g><g
         style="fill:#88bde6"
         transform="matrix(0.97,0,0,0.97,292.18476,421.76456)"
         id="g4860"><path
           id="path4862"
           style="fill:#88bde6;fill-opacity:1;fill-rule:nonzero;stroke:none"
           d="M 0,0 C 0.505,0.505 0.886,0.378 2.151,0.378 3.416,0.378 3.795,0.505 4.3,0 4.806,-0.506 4.681,-0.886 4.681,-2.151 4.681,-3.416 4.806,-3.795 4.3,-4.301 3.795,-4.807 3.416,-4.681 2.151,-4.681 0.886,-4.681 0.505,-4.807 0,-4.301 -0.506,-3.795 -0.379,-3.416 -0.379,-2.151 -0.379,-0.886 -0.506,-0.506 0,0"
           inkscape:connector-curvature="0" /></g><g
         style="fill:#88bde6"
         transform="matrix(0.97,0,0,0.97,299.54609,421.76456)"
         id="g4868"><path
           id="path4870"
           style="fill:#88bde6;fill-opacity:1;fill-rule:nonzero;stroke:none"
           d="M 0,0 C 0.506,0.505 0.886,0.378 2.151,0.378 3.416,0.378 3.795,0.505 4.301,0 4.807,-0.506 4.681,-0.886 4.681,-2.151 4.681,-3.416 4.807,-3.795 4.301,-4.301 3.795,-4.807 3.416,-4.681 2.151,-4.681 0.886,-4.681 0.506,-4.807 0,-4.301 -0.505,-3.795 -0.378,-3.416 -0.378,-2.151 -0.378,-0.886 -0.505,-0.506 0,0"
           inkscape:connector-curvature="0" /></g><g
         style="fill:#88bde6"
         transform="matrix(0.97,0,0,0.97,306.90839,421.76456)"
         id="g4876"><path
           id="path4878"
           style="fill:#88bde6;fill-opacity:1;fill-rule:nonzero;stroke:none"
           d="M 0,0 C 0.506,0.505 0.885,0.378 2.151,0.378 3.415,0.378 3.795,0.505 4.301,0 4.807,-0.506 4.68,-0.886 4.68,-2.151 4.68,-3.416 4.807,-3.795 4.301,-4.301 3.795,-4.807 3.415,-4.681 2.151,-4.681 0.885,-4.681 0.506,-4.807 0,-4.301 -0.506,-3.795 -0.379,-3.416 -0.379,-2.151 -0.379,-0.886 -0.506,-0.506 0,0"
           inkscape:connector-curvature="0" /></g><g
         style="fill:#88bde6"
         transform="matrix(0.97,0,0,0.97,314.27069,421.76456)"
         id="g4884"><path
           id="path4886"
           style="fill:#88bde6;fill-opacity:1;fill-rule:nonzero;stroke:none"
           d="M 0,0 C 0.506,0.505 0.885,0.378 2.151,0.378 3.414,0.378 3.794,0.505 4.3,0 4.806,-0.506 4.68,-0.886 4.68,-2.151 4.68,-3.416 4.806,-3.795 4.3,-4.301 3.794,-4.807 3.414,-4.681 2.151,-4.681 0.885,-4.681 0.506,-4.807 0,-4.301 -0.506,-3.795 -0.379,-3.416 -0.379,-2.151 -0.379,-0.886 -0.506,-0.506 0,0"
           inkscape:connector-curvature="0" /></g><g
         style="fill:#88bde6"
         transform="matrix(0.97,0,0,0.97,321.63202,421.76456)"
         id="g4892"><path
           id="path4894"
           style="fill:#88bde6;fill-opacity:1;fill-rule:nonzero;stroke:none"
           d="M 0,0 C 0.506,0.505 0.886,0.378 2.15,0.378 3.416,0.378 3.795,0.505 4.3,0 4.807,-0.506 4.681,-0.886 4.681,-2.151 4.681,-3.416 4.807,-3.795 4.3,-4.301 3.795,-4.807 3.416,-4.681 2.15,-4.681 0.886,-4.681 0.506,-4.807 0,-4.301 -0.506,-3.795 -0.379,-3.416 -0.379,-2.151 -0.379,-0.886 -0.506,-0.506 0,0"
           inkscape:connector-curvature="0" /></g><g
         style="fill:#88bde6"
         transform="matrix(0.97,0,0,0.97,328.99432,421.76456)"
         id="g4908"><path
           id="path4910"
           style="fill:#88bde6;fill-opacity:1;fill-rule:nonzero;stroke:none"
           d="M 0,0 C 0.506,0.505 0.886,0.378 2.15,0.378 3.416,0.378 3.795,0.505 4.3,0 4.806,-0.506 4.68,-0.886 4.68,-2.151 4.68,-3.416 4.806,-3.795 4.3,-4.301 3.795,-4.807 3.416,-4.681 2.15,-4.681 0.886,-4.681 0.506,-4.807 0,-4.301 -0.506,-3.795 -0.38,-3.416 -0.38,-2.151 -0.38,-0.886 -0.506,-0.506 0,0"
           inkscape:connector-curvature="0" /></g><g
         id="g11469"
         transform="translate(8,5.3886416)"
         style="fill:#265dab"><g
           id="g11471"
           transform="translate(0,-1.2319498)"
           style="fill:#265dab"><text
             transform="scale(1,-1)"
             sodipodi:linespacing="125%"
             id="text11473"
             y="-414.065"
             x="271.4537"
             style="font-size:4px;font-style:normal;font-variant:normal;font-weight:normal;font-stretch:normal;text-align:center;line-height:125%;letter-spacing:0px;word-spacing:0px;writing-mode:lr-tb;text-anchor:middle;fill:#265dab;fill-opacity:1;stroke:none;font-family:Sans;-inkscape-font-specification:Sans"
             xml:space="preserve"><tspan
               y="-414.065"
               x="271.4537"
               id="tspan11475"
               sodipodi:role="line">0</tspan></text>
<text
             xml:space="preserve"
             style="font-size:4px;font-style:normal;font-variant:normal;font-weight:normal;font-stretch:normal;text-align:center;line-height:125%;letter-spacing:0px;word-spacing:0px;writing-mode:lr-tb;text-anchor:middle;fill:#265dab;fill-opacity:1;stroke:none;font-family:Sans;-inkscape-font-specification:Sans"
             x="278.77319"
             y="-414.065"
             id="text11477"
             sodipodi:linespacing="125%"
             transform="scale(1,-1)"><tspan
               sodipodi:role="line"
               id="tspan11479"
               x="278.77319"
               y="-414.065">1</tspan></text>
<text
             transform="scale(1,-1)"
             sodipodi:linespacing="125%"
             id="text11481"
             y="-414.065"
             x="286.20209"
             style="font-size:4px;font-style:normal;font-variant:normal;font-weight:normal;font-stretch:normal;text-align:center;line-height:125%;letter-spacing:0px;word-spacing:0px;writing-mode:lr-tb;text-anchor:middle;fill:#265dab;fill-opacity:1;stroke:none;font-family:Sans;-inkscape-font-specification:Sans"
             xml:space="preserve"><tspan
               y="-414.065"
               x="286.20209"
               id="tspan11483"
               sodipodi:role="line">1</tspan></text>
<text
             xml:space="preserve"
             style="font-size:4px;font-style:normal;font-variant:normal;font-weight:normal;font-stretch:normal;text-align:center;line-height:125%;letter-spacing:0px;word-spacing:0px;writing-mode:lr-tb;text-anchor:middle;fill:#265dab;fill-opacity:1;stroke:none;font-family:Sans;-inkscape-font-specification:Sans"
             x="293.50009"
             y="-414.065"
             id="text11485"
             sodipodi:linespacing="125%"
             transform="scale(1,-1)"><tspan
               sodipodi:role="line"
               id="tspan11487"
               x="293.50009"
               y="-414.065">0</tspan></text>
<text
             transform="scale(1,-1)"
             sodipodi:linespacing="125%"
             id="text11489"
             y="-414.065"
             x="300.88794"
             style="font-size:4px;font-style:normal;font-variant:normal;font-weight:normal;font-stretch:normal;text-align:center;line-height:125%;letter-spacing:0px;word-spacing:0px;writing-mode:lr-tb;text-anchor:middle;fill:#265dab;fill-opacity:1;stroke:none;font-family:Sans;-inkscape-font-specification:Sans"
             xml:space="preserve"><tspan
               y="-414.065"
               x="300.88794"
               id="tspan11491"
               sodipodi:role="line">0</tspan></text>
<text
             xml:space="preserve"
             style="font-size:4px;font-style:normal;font-variant:normal;font-weight:normal;font-stretch:normal;text-align:center;line-height:125%;letter-spacing:0px;word-spacing:0px;writing-mode:lr-tb;text-anchor:middle;fill:#265dab;fill-opacity:1;stroke:none;font-family:Sans;-inkscape-font-specification:Sans"
             x="308.25137"
             y="-414.065"
             id="text11493"
             sodipodi:linespacing="125%"
             transform="scale(1,-1)"><tspan
               sodipodi:role="line"
               id="tspan11495"
               x="308.25137"
               y="-414.065">1</tspan></text>
<text
             transform="scale(1,-1)"
             sodipodi:linespacing="125%"
             id="text11497"
             y="-414.065"
             x="315.75742"
             style="font-size:4px;font-style:normal;font-variant:normal;font-weight:normal;font-stretch:normal;text-align:center;line-height:125%;letter-spacing:0px;word-spacing:0px;writing-mode:lr-tb;text-anchor:middle;fill:#265dab;fill-opacity:1;stroke:none;font-family:Sans;-inkscape-font-specification:Sans"
             xml:space="preserve"><tspan
               y="-414.065"
               x="315.75742"
               id="tspan11499"
               sodipodi:role="line">1</tspan></text>
<text
             xml:space="preserve"
             style="font-size:4px;font-style:normal;font-variant:normal;font-weight:normal;font-stretch:normal;text-align:center;line-height:125%;letter-spacing:0px;word-spacing:0px;writing-mode:lr-tb;text-anchor:middle;fill:#265dab;fill-opacity:1;stroke:none;font-family:Sans;-inkscape-font-specification:Sans"
             x="323.07983"
             y="-414.065"
             id="text11501"
             sodipodi:linespacing="125%"
             transform="scale(1,-1)"><tspan
               sodipodi:role="line"
               id="tspan11503"
               x="323.07983"
               y="-414.065">1</tspan></text>
</g></g></g></g></svg>