<?xml version="1.0" encoding="UTF-8" standalone="no"?>
<!-- Created with Inkscape (http://www.inkscape.org/) -->

<svg
   xmlns:dc="http://purl.org/dc/elements/1.1/"
   xmlns:cc="http://creativecommons.org/ns#"
   xmlns:rdf="http://www.w3.org/1999/02/22-rdf-syntax-ns#"
   xmlns:svg="http://www.w3.org/2000/svg"
   xmlns="http://www.w3.org/2000/svg"
   xmlns:sodipodi="http://sodipodi.sourceforge.net/DTD/sodipodi-0.dtd"
   xmlns:inkscape="http://www.inkscape.org/namespaces/inkscape"
   id="svg2"
   version="1.1"
   inkscape:version="0.48.4 r9939"
   width="270.11499"
   height="206.39375"
   xml:space="preserve"
   sodipodi:docname="wang-fpga2011.pdf"><metadata
     id="metadata8"><rdf:RDF><cc:Work
         rdf:about=""><dc:format>image/svg+xml</dc:format><dc:type
           rdf:resource="http://purl.org/dc/dcmitype/StillImage" /><dc:title></dc:title></cc:Work></rdf:RDF></metadata><defs
     id="defs6"><clipPath
       clipPathUnits="userSpaceOnUse"
       id="clipPath1240"><path
         d="M 786,6135.07 2659.62,6135.07 2659.62,4698 786,4698 786,6135.07 z"
         id="path1242"
         inkscape:connector-curvature="0" /></clipPath><clipPath
       clipPathUnits="userSpaceOnUse"
       id="clipPath1284"><path
         d="M 1112.28,6074.97 2642.69,6074.97 2642.69,4920.15 1112.28,4920.15 1112.28,6074.97 z"
         id="path1286"
         inkscape:connector-curvature="0" /></clipPath><clipPath
       clipPathUnits="userSpaceOnUse"
       id="clipPath1592"><path
         d="M 786,6135.07 2659.62,6135.07 2659.62,4698 786,4698 786,6135.07 z"
         id="path1594"
         inkscape:connector-curvature="0" /></clipPath><clipPath
       clipPathUnits="userSpaceOnUse"
       id="clipPath1606"><path
         d="M 1496.75,6018.02 2034.64,6018.02 2034.64,5848.41 1496.75,5848.41 1496.75,6018.02 z"
         id="path1608"
         inkscape:connector-curvature="0" /></clipPath><clipPath
       clipPathUnits="userSpaceOnUse"
       id="clipPath1736"><path
         d="M 3272.4,6131.95 5433.32,6131.95 5433.32,4480.79 3272.4,4480.79 3272.4,6131.95 z"
         id="path1738"
         inkscape:connector-curvature="0" /></clipPath><clipPath
       clipPathUnits="userSpaceOnUse"
       id="clipPath1788"><path
         d="M 3564.31,6063.88 5341.1,6063.88 5341.1,4732.43 3564.31,4732.43 3564.31,6063.88 z"
         id="path1790"
         inkscape:connector-curvature="0" /></clipPath><clipPath
       clipPathUnits="userSpaceOnUse"
       id="clipPath1804"><path
         d="M 3272.4,6131.95 5433.32,6131.95 5433.32,4480.79 3272.4,4480.79 3272.4,6131.95 z"
         id="path1806"
         inkscape:connector-curvature="0" /></clipPath><clipPath
       clipPathUnits="userSpaceOnUse"
       id="clipPath1860"><path
         d="M 3564.31,6063.88 5341.1,6063.88 5341.1,4732.43 3564.31,4732.43 3564.31,6063.88 z"
         id="path1862"
         inkscape:connector-curvature="0" /></clipPath><clipPath
       clipPathUnits="userSpaceOnUse"
       id="clipPath1872"><path
         d="M 3272.4,6131.95 5433.32,6131.95 5433.32,4480.79 3272.4,4480.79 3272.4,6131.95 z"
         id="path1874"
         inkscape:connector-curvature="0" /></clipPath><clipPath
       clipPathUnits="userSpaceOnUse"
       id="clipPath1910"><path
         d="M 3623.08,6085 4806.92,6085 4806.92,5796.82 3623.08,5796.82 3623.08,6085 z"
         id="path1912"
         inkscape:connector-curvature="0" /></clipPath><clipPath
       clipPathUnits="userSpaceOnUse"
       id="clipPath1966"><path
         d="M 3272.4,4360.21 5432.96,4360.21 5432.96,2707.2 3272.4,2707.2 3272.4,4360.21 z"
         id="path1968"
         inkscape:connector-curvature="0" /></clipPath><clipPath
       clipPathUnits="userSpaceOnUse"
       id="clipPath2010"><path
         d="M 3663.17,4291.3 5333.68,4291.3 5333.68,2961.91 3663.17,2961.91 3663.17,4291.3 z"
         id="path2012"
         inkscape:connector-curvature="0" /></clipPath><clipPath
       clipPathUnits="userSpaceOnUse"
       id="clipPath2022"><path
         d="M 3272.4,4360.21 5432.96,4360.21 5432.96,2707.2 3272.4,2707.2 3272.4,4360.21 z"
         id="path2024"
         inkscape:connector-curvature="0" /></clipPath><clipPath
       clipPathUnits="userSpaceOnUse"
       id="clipPath2078"><path
         d="M 3663.17,4291.3 5333.68,4291.3 5333.68,2961.91 3663.17,2961.91 3663.17,4291.3 z"
         id="path2080"
         inkscape:connector-curvature="0" /></clipPath><clipPath
       clipPathUnits="userSpaceOnUse"
       id="clipPath2090"><path
         d="M 3272.4,4360.21 5432.96,4360.21 5432.96,2707.2 3272.4,2707.2 3272.4,4360.21 z"
         id="path2092"
         inkscape:connector-curvature="0" /></clipPath><clipPath
       clipPathUnits="userSpaceOnUse"
       id="clipPath2152"><path
         d="M 4204.26,4207.46 5305.13,4207.46 5305.13,4013.01 4204.26,4013.01 4204.26,4207.46 z"
         id="path2154"
         inkscape:connector-curvature="0" /></clipPath></defs><sodipodi:namedview
     pagecolor="#ffffff"
     bordercolor="#666666"
     borderopacity="1"
     objecttolerance="10"
     gridtolerance="10"
     guidetolerance="10"
     inkscape:pageopacity="0"
     inkscape:pageshadow="2"
     inkscape:window-width="1855"
     inkscape:window-height="1056"
     id="namedview4"
     showgrid="false"
     fit-margin-top="0"
     fit-margin-left="0"
     fit-margin-right="0"
     fit-margin-bottom="0"
     inkscape:zoom="1.3485026"
     inkscape:cx="176.44822"
     inkscape:cy="209.17452"
     inkscape:window-x="65"
     inkscape:window-y="24"
     inkscape:window-maximized="1"
     inkscape:current-layer="g12" /><g
     id="g10"
     inkscape:groupmode="layer"
     inkscape:label="wang-fpga2011"
     transform="matrix(1.25,0,0,-1.25,-409.05,766.4925)"><g
       id="g12"
       transform="scale(0.1,0.1)"><g
         id="g1732"><g
           id="g1734"
           clip-path="url(#clipPath1736)"><path
             d="M 3272.4,4480.79 5433.33,4480.79 5433.33,6131.94 3272.4,6131.94 3272.4,4480.79 z"
             style="fill:white;fill-opacity:1;fill-rule:nonzero;stroke:none"
             id="path1740"
             inkscape:connector-curvature="0" /><g
             id="g1742"
             transform="scale(0.963984,1.03602)"><path
               d="M 3697.48,4567.91 5540.65,4567.91 M 3697.48,4547.39 3697.48,4567.91 M 3960.8,4547.39 3960.8,4567.91 M 4224.1,4547.39 4224.1,4567.91 M 4487.42,4547.39 4487.42,4567.91 M 4750.71,4547.39 4750.71,4567.91 M 5014.03,4547.39 5014.03,4567.91 M 5277.35,4547.39 5277.35,4567.91 M 5540.65,4547.39 5540.65,4567.91"
               style="fill:none;stroke:black;stroke-width:2.41455007;stroke-linecap:round;stroke-linejoin:round;stroke-miterlimit:10;stroke-opacity:1;stroke-dasharray:none"
               id="path1744"
               inkscape:connector-curvature="0" /></g><g
             id="g1746"
             transform="scale(10,10)"><text
               transform="matrix(0.930472,0,0,-1,353.945,463.686)"
               id="text1748"><tspan
                 style="font-size:8.00483036px;font-variant:normal;writing-mode:lr-tb;fill:black;fill-opacity:1;fill-rule:nonzero;stroke:none;font-family:f-0;-inkscape-font-specification:f-0-0"
                 x="0 24.734844 29.825916 52.007301 57.098373 79.279755 84.374031 106.55557 111.64664 133.83595 138.92703 161.10841 166.20142 188.38297 193.47404"
                 y="0"
                 sodipodi:role="line"
                 id="tspan1750">010203040506070</tspan></text>
<text
               transform="matrix(0.930472,0,0,-1,410.51258,452.2415)"
               id="text1752"><tspan
                 style="font-size:8.00483036px;font-variant:normal;writing-mode:lr-tb;fill:black;fill-opacity:1;fill-rule:nonzero;stroke:none;font-family:f-0;-inkscape-font-specification:f-0-0"
                 x="0 5.0750623 10.150125 17.946829 23.029896 27.952866 31.242851 33.788387 38.687344 41.505043 44.050579 47.188473 52.263535 55.385334 60.308304 65.215263 70.298332"
                 y="0"
                 sodipodi:role="line"
                 id="tspan1754">number of threads</tspan></text>
</g><g
             id="g1756"
             transform="scale(0.963984,1.03602)"><path
               d="M 3697.48,4567.91 3697.48,5853.07 M 3676.96,4567.91 3697.48,4567.91 M 3676.96,4751.49 3697.48,4751.49 M 3676.96,4935.09 3697.48,4935.09 M 3676.96,5118.69 3697.48,5118.69 M 3676.96,5302.29 3697.48,5302.29 M 3676.96,5485.87 3697.48,5485.87 M 3676.96,5669.48 3697.48,5669.48 M 3676.96,5853.07 3697.48,5853.07"
               style="fill:none;stroke:black;stroke-width:2.41455007;stroke-linecap:round;stroke-linejoin:round;stroke-miterlimit:10;stroke-opacity:1;stroke-dasharray:none"
               id="path1758"
               inkscape:connector-curvature="0" /></g><g
             id="g1760"
             transform="scale(10,10)"><text
               transform="matrix(0.930472,0,0,-1,346.995,470.596)"
               id="text1762"><tspan
                 style="font-size:8.00483036px;font-variant:normal;writing-mode:lr-tb;fill:black;fill-opacity:1;fill-rule:nonzero;stroke:none;font-family:f-0;-inkscape-font-specification:f-0-0"
                 x="0"
                 y="0"
                 id="tspan1764">0</tspan><tspan
                 style="font-size:8.00483036px;font-variant:normal;writing-mode:lr-tb;fill:black;fill-opacity:1;fill-rule:nonzero;stroke:none;font-family:f-0;-inkscape-font-specification:f-0-0"
                 x="-5.0927601 -0.00168812"
                 y="-19.019501"
                 sodipodi:role="line"
                 id="tspan1766">10</tspan><tspan
                 style="font-size:8.00483036px;font-variant:normal;writing-mode:lr-tb;fill:black;fill-opacity:1;fill-rule:nonzero;stroke:none;font-family:f-0;-inkscape-font-specification:f-0-0"
                 x="-5.0927601 -0.00168812"
                 y="-38.0406"
                 sodipodi:role="line"
                 id="tspan1768">20</tspan><tspan
                 style="font-size:8.00483036px;font-variant:normal;writing-mode:lr-tb;fill:black;fill-opacity:1;fill-rule:nonzero;stroke:none;font-family:f-0;-inkscape-font-specification:f-0-0"
                 x="-5.0927601 -0.00168812"
                 y="-57.062099"
                 sodipodi:role="line"
                 id="tspan1770">30</tspan><tspan
                 style="font-size:8.00483036px;font-variant:normal;writing-mode:lr-tb;fill:black;fill-opacity:1;fill-rule:nonzero;stroke:none;font-family:f-0;-inkscape-font-specification:f-0-0"
                 x="-5.0927601 -0.00168812"
                 y="-76.083199"
                 sodipodi:role="line"
                 id="tspan1772">40</tspan><tspan
                 style="font-size:8.00483036px;font-variant:normal;writing-mode:lr-tb;fill:black;fill-opacity:1;fill-rule:nonzero;stroke:none;font-family:f-0;-inkscape-font-specification:f-0-0"
                 x="-5.0927601 -0.00168812"
                 y="-95.102303"
                 sodipodi:role="line"
                 id="tspan1774">50</tspan><tspan
                 style="font-size:8.00483036px;font-variant:normal;writing-mode:lr-tb;fill:black;fill-opacity:1;fill-rule:nonzero;stroke:none;font-family:f-0;-inkscape-font-specification:f-0-0"
                 x="-5.0927601 -0.00168812"
                 y="-114.1238"
                 sodipodi:role="line"
                 id="tspan1776">60</tspan><tspan
                 style="font-size:8.00483036px;font-variant:normal;writing-mode:lr-tb;fill:black;fill-opacity:1;fill-rule:nonzero;stroke:none;font-family:f-0;-inkscape-font-specification:f-0-0"
                 x="-5.0927601 -0.00168812"
                 y="-133.1449"
                 sodipodi:role="line"
                 id="tspan1778">70</tspan></text>
<text
               transform="matrix(0,1,0.93047491,0,336.036,522.065)"
               id="text1780"><tspan
                 style="font-size:8.0048151px;font-variant:normal;writing-mode:lr-tb;fill:black;fill-opacity:1;fill-rule:nonzero;stroke:none;font-family:f-0;-inkscape-font-specification:f-0-0"
                 x="0 5.0830579 10.166116 15.089077 20.012039 25.095097 30.170149"
                 y="0"
                 sodipodi:role="line"
                 id="tspan1782">Speedup</tspan></text>
</g></g></g><g
         id="g1784"><g
           id="g1786"
           clip-path="url(#clipPath1788)"><g
             id="g1792"
             transform="scale(0.963984,1.03602)"><path
               d="M 3723.81,4586.27 3802.82,4641.35 3934.47,4733.14 4118.78,4861.65 4355.76,5026.88 4645.4,5228.83 4987.7,5467.52 5382.67,5742.91"
               style="fill:none;stroke:navy;stroke-width:2.41455007;stroke-linecap:round;stroke-linejoin:round;stroke-miterlimit:10;stroke-opacity:1;stroke-dasharray:14.4873, 7.24364;stroke-dashoffset:0"
               id="path1794"
               inkscape:connector-curvature="0" /></g><g
             id="g1796"
             transform="scale(0.963984,1.03602)"><path
               d="M 3723.81,4586.27 3802.82,4630.56 3934.47,4690.94 4118.78,4766 4355.76,4830.11 4645.4,4872.82 4987.7,4887.76 5382.67,4868.84"
               style="fill:none;stroke:#3cc;stroke-width:2.41455007;stroke-linecap:round;stroke-linejoin:round;stroke-miterlimit:10;stroke-opacity:1;stroke-dasharray:none"
               id="path1798"
               inkscape:connector-curvature="0" /></g></g></g><g
         id="g1800"><g
           id="g1802"
           clip-path="url(#clipPath1804)"><path
             d="M 3578.06,4738.94 3601.3373,4738.94 3601.3373,4763.9517 3578.06,4763.9517 3578.06,4738.94 z"
             style="fill:#3cc;fill-opacity:1;fill-rule:nonzero;stroke:none"
             id="path1808"
             inkscape:connector-curvature="0" /><g
             id="g1810"
             transform="scale(0.963984,-1.03602)"><path
               d="M 3711.74,-4598.34 3711.74,-4574.19 3735.89,-4574.19 3735.89,-4598.34 3711.74,-4598.34 z"
               style="fill:none;stroke:#3cc;stroke-width:2.41455007;stroke-linecap:square;stroke-linejoin:miter;stroke-miterlimit:10;stroke-opacity:1;stroke-dasharray:none"
               id="path1812"
               inkscape:connector-curvature="0" /></g><path
             d="M 3654.22,4784.82 3677.4934,4784.82 3677.4934,4809.8356 3654.22,4809.8356 3654.22,4784.82 z"
             style="fill:#3cc;fill-opacity:1;fill-rule:nonzero;stroke:none"
             id="path1814"
             inkscape:connector-curvature="0" /><g
             id="g1816"
             transform="scale(0.963984,-1.03602)"><path
               d="M 3790.75,-4642.63 3790.75,-4618.48 3814.89,-4618.48 3814.89,-4642.63 3790.75,-4642.63 z"
               style="fill:none;stroke:#3cc;stroke-width:2.41455007;stroke-linecap:square;stroke-linejoin:miter;stroke-miterlimit:10;stroke-opacity:1;stroke-dasharray:none"
               id="path1818"
               inkscape:connector-curvature="0" /></g><path
             d="M 3781.12,4847.38 3804.3973,4847.38 3804.3973,4872.3956 3781.12,4872.3956 3781.12,4847.38 z"
             style="fill:#3cc;fill-opacity:1;fill-rule:nonzero;stroke:none"
             id="path1820"
             inkscape:connector-curvature="0" /><g
             id="g1822"
             transform="scale(0.963984,-1.03602)"><path
               d="M 3922.39,-4703.01 3922.39,-4678.86 3946.54,-4678.86 3946.54,-4703.01 3922.39,-4703.01 z"
               style="fill:none;stroke:#3cc;stroke-width:2.41455007;stroke-linecap:square;stroke-linejoin:miter;stroke-miterlimit:10;stroke-opacity:1;stroke-dasharray:none"
               id="path1824"
               inkscape:connector-curvature="0" /></g><path
             d="M 3958.8,4925.14 3982.0773,4925.14 3982.0773,4950.1556 3958.8,4950.1556 3958.8,4925.14 z"
             style="fill:#3cc;fill-opacity:1;fill-rule:nonzero;stroke:none"
             id="path1826"
             inkscape:connector-curvature="0" /><g
             id="g1828"
             transform="scale(0.963984,-1.03602)"><path
               d="M 4106.71,-4778.07 4106.71,-4753.92 4130.85,-4753.92 4130.85,-4778.07 4106.71,-4778.07 z"
               style="fill:none;stroke:#3cc;stroke-width:2.41455007;stroke-linecap:square;stroke-linejoin:miter;stroke-miterlimit:10;stroke-opacity:1;stroke-dasharray:none"
               id="path1830"
               inkscape:connector-curvature="0" /></g><path
             d="M 4187.25,4991.57 4210.5234,4991.57 4210.5234,5016.5817 4187.25,5016.5817 4187.25,4991.57 z"
             style="fill:#3cc;fill-opacity:1;fill-rule:nonzero;stroke:none"
             id="path1832"
             inkscape:connector-curvature="0" /><g
             id="g1834"
             transform="scale(0.963984,-1.03602)"><path
               d="M 4343.69,-4842.19 4343.69,-4818.04 4367.84,-4818.04 4367.84,-4842.19 4343.69,-4842.19 z"
               style="fill:none;stroke:#3cc;stroke-width:2.41455007;stroke-linecap:square;stroke-linejoin:miter;stroke-miterlimit:10;stroke-opacity:1;stroke-dasharray:none"
               id="path1836"
               inkscape:connector-curvature="0" /></g><path
             d="M 4466.45,5035.82 4489.7234,5035.82 4489.7234,5060.8356 4466.45,5060.8356 4466.45,5035.82 z"
             style="fill:#3cc;fill-opacity:1;fill-rule:nonzero;stroke:none"
             id="path1838"
             inkscape:connector-curvature="0" /><g
             id="g1840"
             transform="scale(0.963984,-1.03602)"><path
               d="M 4633.33,-4884.89 4633.33,-4860.75 4657.47,-4860.75 4657.47,-4884.89 4633.33,-4884.89 z"
               style="fill:none;stroke:#3cc;stroke-width:2.41455007;stroke-linecap:square;stroke-linejoin:miter;stroke-miterlimit:10;stroke-opacity:1;stroke-dasharray:none"
               id="path1842"
               inkscape:connector-curvature="0" /></g><path
             d="M 4796.43,5051.29 4819.7034,5051.29 4819.7034,5076.3056 4796.43,5076.3056 4796.43,5051.29 z"
             style="fill:#3cc;fill-opacity:1;fill-rule:nonzero;stroke:none"
             id="path1844"
             inkscape:connector-curvature="0" /><g
             id="g1846"
             transform="scale(0.963984,-1.03602)"><path
               d="M 4975.63,-4899.84 4975.63,-4875.69 4999.77,-4875.69 4999.77,-4899.84 4975.63,-4899.84 z"
               style="fill:none;stroke:#3cc;stroke-width:2.41455007;stroke-linecap:square;stroke-linejoin:miter;stroke-miterlimit:10;stroke-opacity:1;stroke-dasharray:none"
               id="path1848"
               inkscape:connector-curvature="0" /></g><path
             d="M 5177.17,5031.69 5200.4434,5031.69 5200.4434,5056.7056 5177.17,5056.7056 5177.17,5031.69 z"
             style="fill:#3cc;fill-opacity:1;fill-rule:nonzero;stroke:none"
             id="path1850"
             inkscape:connector-curvature="0" /><g
             id="g1852"
             transform="scale(0.963984,-1.03602)"><path
               d="M 5370.59,-4880.92 5370.59,-4856.77 5394.74,-4856.77 5394.74,-4880.92 5370.59,-4880.92 z"
               style="fill:none;stroke:#3cc;stroke-width:2.41455007;stroke-linecap:square;stroke-linejoin:miter;stroke-miterlimit:10;stroke-opacity:1;stroke-dasharray:none"
               id="path1854"
               inkscape:connector-curvature="0" /></g></g></g><g
         id="g1856"><g
           id="g1858"
           clip-path="url(#clipPath1860)"><g
             id="g1864"
             transform="scale(0.963984,1.03602)"><path
               d="M 3723.81,4586.27 3802.82,4627.2 3934.47,4688.79 4118.78,4756.38"
               style="fill:none;stroke:green;stroke-width:2.41455007;stroke-linecap:round;stroke-linejoin:miter;stroke-miterlimit:10;stroke-opacity:1;stroke-dasharray:none"
               id="path1866"
               inkscape:connector-curvature="0" /></g></g></g><g
         id="g1868"><g
           id="g1870"
           clip-path="url(#clipPath1872)"><path
             d="M 3578.06,4763.95 3601.34,4763.95 3589.7,4738.94 3578.06,4763.95 z"
             style="fill:green;fill-opacity:1;fill-rule:nonzero;stroke:none"
             id="path1876"
             inkscape:connector-curvature="0" /><g
             id="g1878"
             transform="scale(0.963984,-1.03602)"><path
               d="M 3711.74,-4598.34 3735.89,-4598.34 3723.81,-4574.19 3711.74,-4598.34 z"
               style="fill:none;stroke:green;stroke-width:2.41455007;stroke-linecap:square;stroke-linejoin:miter;stroke-miterlimit:10;stroke-opacity:1;stroke-dasharray:none"
               id="path1880"
               inkscape:connector-curvature="0" /></g><path
             d="M 3654.22,4806.36 3677.49,4806.36 3665.86,4781.35 3654.22,4806.36 z"
             style="fill:green;fill-opacity:1;fill-rule:nonzero;stroke:none"
             id="path1882"
             inkscape:connector-curvature="0" /><g
             id="g1884"
             transform="scale(0.963984,-1.03602)"><path
               d="M 3790.75,-4639.27 3814.89,-4639.27 3802.82,-4615.13 3790.75,-4639.27 z"
               style="fill:none;stroke:green;stroke-width:2.41455007;stroke-linecap:square;stroke-linejoin:miter;stroke-miterlimit:10;stroke-opacity:1;stroke-dasharray:none"
               id="path1886"
               inkscape:connector-curvature="0" /></g><path
             d="M 3781.12,4870.16 3804.4,4870.16 3792.76,4845.15 3781.12,4870.16 z"
             style="fill:green;fill-opacity:1;fill-rule:nonzero;stroke:none"
             id="path1888"
             inkscape:connector-curvature="0" /><g
             id="g1890"
             transform="scale(0.963984,-1.03602)"><path
               d="M 3922.39,-4700.86 3946.54,-4700.86 3934.47,-4676.72 3922.39,-4700.86 z"
               style="fill:none;stroke:green;stroke-width:2.41455007;stroke-linecap:square;stroke-linejoin:miter;stroke-miterlimit:10;stroke-opacity:1;stroke-dasharray:none"
               id="path1892"
               inkscape:connector-curvature="0" /></g><path
             d="M 3958.8,4940.19 3982.08,4940.19 3970.44,4915.18 3958.8,4940.19 z"
             style="fill:green;fill-opacity:1;fill-rule:nonzero;stroke:none"
             id="path1894"
             inkscape:connector-curvature="0" /><g
             id="g1896"
             transform="scale(0.963984,-1.03602)"><path
               d="M 4106.71,-4768.45 4130.85,-4768.45 4118.78,-4744.3 4106.71,-4768.45 z"
               style="fill:none;stroke:green;stroke-width:2.41455007;stroke-linecap:square;stroke-linejoin:miter;stroke-miterlimit:10;stroke-opacity:1;stroke-dasharray:none"
               id="path1898"
               inkscape:connector-curvature="0" /></g><path
             d="M 3605.43,5777.84 4824.58,5777.84 4824.58,6103.977 3605.43,6103.977 3605.43,5777.84 z"
             style="fill:white;fill-opacity:1;fill-rule:nonzero;stroke:none"
             id="path1900"
             inkscape:connector-curvature="0" /><g
             id="g1902"
             transform="scale(0.963984,1.03602)"><path
               d="M 3740.13,5891.78 5004.83,5891.78 5004.83,5576.98 3740.13,5576.98 3740.13,5891.78 z"
               style="fill:none;stroke:black;stroke-width:2.41455007;stroke-linecap:round;stroke-linejoin:miter;stroke-miterlimit:10;stroke-opacity:1;stroke-dasharray:none"
               id="path1904"
               inkscape:connector-curvature="0" /></g></g></g><g
         id="g1906"><g
           id="g1908"
           clip-path="url(#clipPath1910)"><g
             id="g1914"
             transform="scale(0.963984,1.03602)"><path
               d="M 3759.65,5827.1 4066.3,5827.1"
               style="fill:none;stroke:navy;stroke-width:2.41455007;stroke-linecap:round;stroke-linejoin:miter;stroke-miterlimit:10;stroke-opacity:1;stroke-dasharray:14.4873, 7.24364;stroke-dashoffset:0"
               id="path1916"
               inkscape:connector-curvature="0" /></g><g
             id="g1918"
             transform="scale(10,10)"><text
               transform="matrix(0.930472,0,0,-1,395.826,601.05)"
               id="text1920"><tspan
                 style="font-size:8.00483036px;font-variant:normal;writing-mode:lr-tb;fill:black;fill-opacity:1;fill-rule:nonzero;stroke:none;font-family:f-0;-inkscape-font-specification:f-0-0"
                 x="0 2.3614249 7.4444919 12.367462 17.274424 19.499765 22.045301 25.167185 29.625875 31.851219 36.926281 41.849251 46.75621 50.046196 53.168079 55.713615 60.796684 65.879753 70.802719 75.725693 80.808762 85.88382"
                 y="0"
                 sodipodi:role="line"
                 id="tspan1922">Ideal (Linear) Speedup</tspan></text>
</g><g
             id="g1924"
             transform="scale(0.963984,1.03602)"><path
               d="M 3759.65,5734.38 4066.3,5734.38"
               style="fill:none;stroke:#3cc;stroke-width:2.41455007;stroke-linecap:round;stroke-linejoin:miter;stroke-miterlimit:10;stroke-opacity:1;stroke-dasharray:none"
               id="path1926"
               inkscape:connector-curvature="0" /></g><path
             d="M 3760.41,5928.4 3783.6873,5928.4 3783.6873,5953.4156 3760.41,5953.4156 3760.41,5928.4 z"
             style="fill:#3cc;fill-opacity:1;fill-rule:nonzero;stroke:none"
             id="path1928"
             inkscape:connector-curvature="0" /><g
             id="g1930"
             transform="scale(0.963984,-1.03602)"><path
               d="M 3900.9,-5746.45 3900.9,-5722.31 3925.05,-5722.31 3925.05,-5746.45 3900.9,-5746.45 z"
               style="fill:none;stroke:#3cc;stroke-width:2.41455007;stroke-linecap:square;stroke-linejoin:miter;stroke-miterlimit:10;stroke-opacity:1;stroke-dasharray:none"
               id="path1932"
               inkscape:connector-curvature="0" /></g><g
             id="g1934"
             transform="scale(10,10)"><text
               transform="matrix(0.930472,0,0,-1,395.826,591.445)"
               id="text1936"><tspan
                 style="font-size:8.00483036px;font-variant:normal;writing-mode:lr-tb;fill:black;fill-opacity:1;fill-rule:nonzero;stroke:none;font-family:f-0;-inkscape-font-specification:f-0-0"
                 x="0 5.9876127 8.2129555 13.119916 18.202984 23.109943 26.399929 31.30689 33.852425 38.935493 43.858463 46.083805 48.901508 51.447041 56.530109 61.613178 66.536148 71.459114 76.542183 81.617249"
                 y="0"
                 sodipodi:role="line"
                 id="tspan1938">Niagara Self Speedup</tspan></text>
</g><g
             id="g1940"
             transform="scale(0.963984,1.03602)"><path
               d="M 3759.65,5641.67 4066.3,5641.67"
               style="fill:none;stroke:green;stroke-width:2.41455007;stroke-linecap:round;stroke-linejoin:miter;stroke-miterlimit:10;stroke-opacity:1;stroke-dasharray:none"
               id="path1942"
               inkscape:connector-curvature="0" /></g><path
             d="M 3760.41,5857.37 3783.69,5857.37 3772.05,5832.35 3760.41,5857.37 z"
             style="fill:green;fill-opacity:1;fill-rule:nonzero;stroke:none"
             id="path1944"
             inkscape:connector-curvature="0" /><g
             id="g1946"
             transform="scale(0.963984,-1.03602)"><path
               d="M 3900.9,-5653.74 3925.05,-5653.74 3912.98,-5629.59 3900.9,-5653.74 z"
               style="fill:none;stroke:green;stroke-width:2.41455007;stroke-linecap:square;stroke-linejoin:miter;stroke-miterlimit:10;stroke-opacity:1;stroke-dasharray:none"
               id="path1948"
               inkscape:connector-curvature="0" /></g><g
             id="g1950"
             transform="scale(10,10)"><text
               transform="matrix(0.930472,0,0,-1,395.826,581.839)"
               id="text1952"><tspan
                 style="font-size:8.00483036px;font-variant:normal;writing-mode:lr-tb;fill:black;fill-opacity:1;fill-rule:nonzero;stroke:none;font-family:f-0;-inkscape-font-specification:f-0-0"
                 x="0 5.4753036 12.383472 18.547192 21.092728 26.175795 31.098764 33.324108 36.141808 38.687344 43.770409 48.853477 53.776447 58.699417 63.782486 68.857544"
                 y="0"
                 sodipodi:role="line"
                 id="tspan1954">AMD Self Speedup</tspan></text>
</g></g></g></g></g></svg>